G04 #@! TF.GenerationSoftware,KiCad,Pcbnew,5.0.2-bee76a0~70~ubuntu18.04.1*
G04 #@! TF.CreationDate,2019-12-02T22:21:51+01:00*
G04 #@! TF.ProjectId,meross,6d65726f-7373-42e6-9b69-6361645f7063,rev?*
G04 #@! TF.SameCoordinates,PX6ea0500PY700e860*
G04 #@! TF.FileFunction,Copper,L3,Inr*
G04 #@! TF.FilePolarity,Positive*
%FSLAX46Y46*%
G04 Gerber Fmt 4.6, Leading zero omitted, Abs format (unit mm)*
G04 Created by KiCad (PCBNEW 5.0.2-bee76a0~70~ubuntu18.04.1) date Mon 02 Dec 2019 10:21:51 PM CET*
%MOMM*%
%LPD*%
G01*
G04 APERTURE LIST*
G04 #@! TA.AperFunction,NonConductor*
%ADD10C,0.200000*%
G04 #@! TD*
G04 #@! TA.AperFunction,ViaPad*
%ADD11R,1.520000X1.520000*%
G04 #@! TD*
G04 #@! TA.AperFunction,ViaPad*
%ADD12C,2.000000*%
G04 #@! TD*
G04 #@! TA.AperFunction,ViaPad*
%ADD13C,1.520000*%
G04 #@! TD*
G04 #@! TA.AperFunction,ViaPad*
%ADD14C,1.524000*%
G04 #@! TD*
G04 #@! TA.AperFunction,ViaPad*
%ADD15C,3.000000*%
G04 #@! TD*
G04 #@! TA.AperFunction,ViaPad*
%ADD16R,1.700000X1.700000*%
G04 #@! TD*
G04 #@! TA.AperFunction,ViaPad*
%ADD17O,1.700000X1.700000*%
G04 #@! TD*
G04 #@! TA.AperFunction,ViaPad*
%ADD18C,0.800000*%
G04 #@! TD*
G04 #@! TA.AperFunction,Conductor*
%ADD19C,0.500000*%
G04 #@! TD*
G04 #@! TA.AperFunction,Conductor*
%ADD20C,0.254000*%
G04 #@! TD*
G04 APERTURE END LIST*
D10*
X32500000Y10000000D02*
G75*
G03X32500000Y10000000I-1000000J0D01*
G01*
X5000000Y43000000D02*
G75*
G03X5000000Y43000000I-1000000J0D01*
G01*
X73500000Y27500000D02*
G75*
G03X73500000Y27500000I-1000000J0D01*
G01*
X81499999Y53000000D02*
X81500000Y2000000D01*
X81499999Y53000000D02*
X19500000Y53000000D01*
X19500000Y2000000D02*
X81500000Y2000000D01*
X19500000Y0D02*
X19500000Y2000000D01*
X19500000Y53000000D02*
X19500000Y55000000D01*
X19500000Y0D02*
X11500000Y0D01*
X11500000Y55000000D02*
X19500000Y55000000D01*
X11500000Y55000000D02*
X11500000Y47500000D01*
X11500000Y7500000D02*
X11500000Y0D01*
X11500000Y7500000D02*
X0Y7500000D01*
X0Y47500000D02*
X11500000Y47500000D01*
X0Y7500000D02*
X0Y47500000D01*
D11*
G04 #@! TO.N,Net-(D2-Pad2)*
G04 #@! TO.C,K1*
X50125000Y45300000D03*
D12*
G04 #@! TO.N,/L*
X60285000Y45300000D03*
G04 #@! TO.N,Net-(J4-Pad1)*
X67905000Y45300000D03*
D13*
G04 #@! TO.N,+12V*
X50125000Y37680000D03*
G04 #@! TD*
G04 #@! TO.N,+12V*
G04 #@! TO.C,K2*
X50125000Y26180000D03*
D12*
G04 #@! TO.N,Net-(J5-Pad1)*
X67905000Y33800000D03*
G04 #@! TO.N,/L*
X60285000Y33800000D03*
D11*
G04 #@! TO.N,Net-(D3-Pad2)*
X50125000Y33800000D03*
G04 #@! TD*
G04 #@! TO.N,Net-(D4-Pad2)*
G04 #@! TO.C,K3*
X50125000Y22300000D03*
D12*
G04 #@! TO.N,/L*
X60285000Y22300000D03*
G04 #@! TO.N,Net-(J6-Pad1)*
X67905000Y22300000D03*
D13*
G04 #@! TO.N,+12V*
X50125000Y14680000D03*
G04 #@! TD*
G04 #@! TO.N,+12V*
G04 #@! TO.C,K4*
X50125000Y3180000D03*
D12*
G04 #@! TO.N,Net-(J7-Pad1)*
X67905000Y10800000D03*
G04 #@! TO.N,/L*
X60285000Y10800000D03*
D11*
G04 #@! TO.N,Net-(D5-Pad2)*
X50125000Y10800000D03*
G04 #@! TD*
D14*
G04 #@! TO.N,/L*
G04 #@! TO.C,PS1*
X24430000Y45380000D03*
G04 #@! TO.N,/N*
X28330000Y45380000D03*
G04 #@! TO.N,+12V*
X23140000Y24620000D03*
G04 #@! TO.N,GND*
X33300000Y24620000D03*
G04 #@! TO.N,N/C*
X44730000Y24620000D03*
G04 #@! TD*
D15*
G04 #@! TO.N,/L*
G04 #@! TO.C,J1*
X40000000Y50000000D03*
G04 #@! TD*
G04 #@! TO.N,/N*
G04 #@! TO.C,J2*
X34000000Y50000000D03*
G04 #@! TD*
G04 #@! TO.N,Net-(J4-Pad1)*
G04 #@! TO.C,J4*
X76000000Y41500000D03*
G04 #@! TD*
G04 #@! TO.N,Net-(J5-Pad1)*
G04 #@! TO.C,J5*
X76000000Y30000000D03*
G04 #@! TD*
G04 #@! TO.N,Net-(J6-Pad1)*
G04 #@! TO.C,J6*
X76000000Y18500000D03*
G04 #@! TD*
G04 #@! TO.N,Net-(J7-Pad1)*
G04 #@! TO.C,J7*
X76000000Y7000000D03*
G04 #@! TD*
D16*
G04 #@! TO.N,GND*
G04 #@! TO.C,J3*
X15240000Y41910000D03*
D17*
G04 #@! TO.N,+3.3V*
X15240000Y44450000D03*
G04 #@! TO.N,/Tx*
X12700000Y41910000D03*
G04 #@! TO.N,/Rx*
X12700000Y44450000D03*
G04 #@! TD*
D18*
G04 #@! TO.N,GND*
X37100000Y16909997D03*
X32700000Y15309997D03*
X31100001Y19709997D03*
X34100000Y20409997D03*
X20500000Y37400000D03*
X4000000Y39000000D03*
X2900000Y36000000D03*
X27075000Y14875000D03*
X27100000Y19875000D03*
G04 #@! TO.N,/Rx*
X5000000Y23000000D03*
G04 #@! TO.N,/Tx*
X5000000Y21000000D03*
G04 #@! TO.N,+12V*
X37100000Y20209997D03*
G04 #@! TO.N,+3.3V*
X20750000Y21550000D03*
X21350000Y35000000D03*
X25750000Y10850000D03*
X35100000Y14225000D03*
X10000000Y39200000D03*
X25000000Y18100000D03*
G04 #@! TO.N,/RST*
X22925000Y13000000D03*
G04 #@! TO.N,/GPIO0*
X7000000Y29000000D03*
X22925000Y18000000D03*
G04 #@! TO.N,Net-(R5-Pad2)*
X7000000Y31000000D03*
X7000000Y39200000D03*
G04 #@! TD*
D19*
G04 #@! TO.N,+12V*
X48050198Y3180000D02*
X50125000Y3180000D01*
X41820000Y3180000D02*
X48050198Y3180000D01*
X29000000Y16000000D02*
X41820000Y3180000D01*
X29000000Y22000000D02*
X29000000Y16000000D01*
X23140000Y24620000D02*
X26380000Y24620000D01*
X26380000Y24620000D02*
X29000000Y22000000D01*
G04 #@! TD*
D20*
G04 #@! TO.N,+3.3V*
G36*
X18973000Y53127000D02*
X18700000Y53127000D01*
X18651399Y53117333D01*
X18610197Y53089803D01*
X18582667Y53048601D01*
X18573000Y53000000D01*
X18573000Y41900000D01*
X18579473Y41859971D01*
X18603967Y41816894D01*
X23103967Y36616894D01*
X23151399Y36582667D01*
X23200000Y36573000D01*
X35700000Y36573000D01*
X35748601Y36582667D01*
X35789803Y36610197D01*
X45052606Y45873000D01*
X46365000Y45873000D01*
X46365000Y3857000D01*
X42100422Y3857000D01*
X30482924Y15474498D01*
X31873000Y15474498D01*
X31873000Y15145496D01*
X31998903Y14841539D01*
X32231542Y14608900D01*
X32535499Y14482997D01*
X32864501Y14482997D01*
X33168458Y14608900D01*
X33401097Y14841539D01*
X33527000Y15145496D01*
X33527000Y15474498D01*
X33401097Y15778455D01*
X33168458Y16011094D01*
X32864501Y16136997D01*
X32535499Y16136997D01*
X32231542Y16011094D01*
X31998903Y15778455D01*
X31873000Y15474498D01*
X30482924Y15474498D01*
X29677000Y16280421D01*
X29677000Y17074498D01*
X36273000Y17074498D01*
X36273000Y16745496D01*
X36398903Y16441539D01*
X36631542Y16208900D01*
X36935499Y16082997D01*
X37264501Y16082997D01*
X37568458Y16208900D01*
X37801097Y16441539D01*
X37927000Y16745496D01*
X37927000Y17074498D01*
X37801097Y17378455D01*
X37568458Y17611094D01*
X37264501Y17736997D01*
X36935499Y17736997D01*
X36631542Y17611094D01*
X36398903Y17378455D01*
X36273000Y17074498D01*
X29677000Y17074498D01*
X29677000Y19874498D01*
X30273001Y19874498D01*
X30273001Y19545496D01*
X30398904Y19241539D01*
X30631543Y19008900D01*
X30935500Y18882997D01*
X31264502Y18882997D01*
X31568459Y19008900D01*
X31801098Y19241539D01*
X31927001Y19545496D01*
X31927001Y19874498D01*
X31801098Y20178455D01*
X31568459Y20411094D01*
X31264502Y20536997D01*
X30935500Y20536997D01*
X30631543Y20411094D01*
X30398904Y20178455D01*
X30273001Y19874498D01*
X29677000Y19874498D01*
X29677000Y20574498D01*
X33273000Y20574498D01*
X33273000Y20245496D01*
X33398903Y19941539D01*
X33631542Y19708900D01*
X33935499Y19582997D01*
X34264501Y19582997D01*
X34568458Y19708900D01*
X34801097Y19941539D01*
X34927000Y20245496D01*
X34927000Y20374498D01*
X36273000Y20374498D01*
X36273000Y20045496D01*
X36398903Y19741539D01*
X36631542Y19508900D01*
X36935499Y19382997D01*
X37264501Y19382997D01*
X37568458Y19508900D01*
X37801097Y19741539D01*
X37927000Y20045496D01*
X37927000Y20374498D01*
X37801097Y20678455D01*
X37568458Y20911094D01*
X37264501Y21036997D01*
X36935499Y21036997D01*
X36631542Y20911094D01*
X36398903Y20678455D01*
X36273000Y20374498D01*
X34927000Y20374498D01*
X34927000Y20574498D01*
X34801097Y20878455D01*
X34568458Y21111094D01*
X34264501Y21236997D01*
X33935499Y21236997D01*
X33631542Y21111094D01*
X33398903Y20878455D01*
X33273000Y20574498D01*
X29677000Y20574498D01*
X29677000Y21933322D01*
X29690263Y22000000D01*
X29637720Y22264153D01*
X29525860Y22431563D01*
X29525858Y22431565D01*
X29488089Y22488090D01*
X29431565Y22525858D01*
X27100915Y24856507D01*
X32111000Y24856507D01*
X32111000Y24383493D01*
X32292014Y23946486D01*
X32626486Y23612014D01*
X33063493Y23431000D01*
X33536507Y23431000D01*
X33973514Y23612014D01*
X34307986Y23946486D01*
X34489000Y24383493D01*
X34489000Y24856507D01*
X43541000Y24856507D01*
X43541000Y24383493D01*
X43722014Y23946486D01*
X44056486Y23612014D01*
X44493493Y23431000D01*
X44966507Y23431000D01*
X45403514Y23612014D01*
X45737986Y23946486D01*
X45919000Y24383493D01*
X45919000Y24856507D01*
X45737986Y25293514D01*
X45403514Y25627986D01*
X44966507Y25809000D01*
X44493493Y25809000D01*
X44056486Y25627986D01*
X43722014Y25293514D01*
X43541000Y24856507D01*
X34489000Y24856507D01*
X34307986Y25293514D01*
X33973514Y25627986D01*
X33536507Y25809000D01*
X33063493Y25809000D01*
X32626486Y25627986D01*
X32292014Y25293514D01*
X32111000Y24856507D01*
X27100915Y24856507D01*
X26905864Y25051557D01*
X26868090Y25108090D01*
X26644152Y25257720D01*
X26446678Y25297000D01*
X26446676Y25297000D01*
X26380000Y25310263D01*
X26313324Y25297000D01*
X24144500Y25297000D01*
X23813514Y25627986D01*
X23376507Y25809000D01*
X22903493Y25809000D01*
X22466486Y25627986D01*
X22132014Y25293514D01*
X21951000Y24856507D01*
X21951000Y24383493D01*
X22132014Y23946486D01*
X22466486Y23612014D01*
X22903493Y23431000D01*
X23376507Y23431000D01*
X23813514Y23612014D01*
X24144500Y23943000D01*
X26099579Y23943000D01*
X28323000Y21719577D01*
X28323001Y16066681D01*
X28309737Y16000000D01*
X28336193Y15867000D01*
X28362281Y15735848D01*
X28511911Y15511910D01*
X28568441Y15474138D01*
X41294138Y2748440D01*
X41331910Y2691910D01*
X41555848Y2542280D01*
X41632666Y2527000D01*
X19551903Y2527000D01*
X19500000Y2537324D01*
X19448098Y2527000D01*
X19448097Y2527000D01*
X19294375Y2496423D01*
X19120055Y2379945D01*
X19003577Y2205625D01*
X18962676Y2000000D01*
X18973001Y1948093D01*
X18973000Y527000D01*
X12027000Y527000D01*
X12027000Y7373000D01*
X19000000Y7373000D01*
X19048601Y7382667D01*
X19089803Y7410197D01*
X19117333Y7451399D01*
X19127000Y7500000D01*
X19127000Y10000000D01*
X29953000Y10000000D01*
X30070758Y9407989D01*
X30406106Y8906106D01*
X30907989Y8570758D01*
X31500000Y8453000D01*
X32092011Y8570758D01*
X32593894Y8906106D01*
X32929242Y9407989D01*
X33047000Y10000000D01*
X32929242Y10592011D01*
X32593894Y11093894D01*
X32092011Y11429242D01*
X31500000Y11547000D01*
X30907989Y11429242D01*
X30406106Y11093894D01*
X30070758Y10592011D01*
X29953000Y10000000D01*
X19127000Y10000000D01*
X19127000Y13164501D01*
X22098000Y13164501D01*
X22098000Y12835499D01*
X22223903Y12531542D01*
X22456542Y12298903D01*
X22760499Y12173000D01*
X23089501Y12173000D01*
X23393458Y12298903D01*
X23626097Y12531542D01*
X23752000Y12835499D01*
X23752000Y13164501D01*
X23626097Y13468458D01*
X23393458Y13701097D01*
X23089501Y13827000D01*
X22760499Y13827000D01*
X22456542Y13701097D01*
X22223903Y13468458D01*
X22098000Y13164501D01*
X19127000Y13164501D01*
X19127000Y15039501D01*
X26248000Y15039501D01*
X26248000Y14710499D01*
X26373903Y14406542D01*
X26606542Y14173903D01*
X26910499Y14048000D01*
X27239501Y14048000D01*
X27543458Y14173903D01*
X27776097Y14406542D01*
X27902000Y14710499D01*
X27902000Y15039501D01*
X27776097Y15343458D01*
X27543458Y15576097D01*
X27239501Y15702000D01*
X26910499Y15702000D01*
X26606542Y15576097D01*
X26373903Y15343458D01*
X26248000Y15039501D01*
X19127000Y15039501D01*
X19127000Y18164501D01*
X22098000Y18164501D01*
X22098000Y17835499D01*
X22223903Y17531542D01*
X22456542Y17298903D01*
X22760499Y17173000D01*
X23089501Y17173000D01*
X23393458Y17298903D01*
X23626097Y17531542D01*
X23752000Y17835499D01*
X23752000Y18164501D01*
X23626097Y18468458D01*
X23393458Y18701097D01*
X23089501Y18827000D01*
X22760499Y18827000D01*
X22456542Y18701097D01*
X22223903Y18468458D01*
X22098000Y18164501D01*
X19127000Y18164501D01*
X19127000Y20039501D01*
X26273000Y20039501D01*
X26273000Y19710499D01*
X26398903Y19406542D01*
X26631542Y19173903D01*
X26935499Y19048000D01*
X27264501Y19048000D01*
X27568458Y19173903D01*
X27801097Y19406542D01*
X27927000Y19710499D01*
X27927000Y20039501D01*
X27801097Y20343458D01*
X27568458Y20576097D01*
X27264501Y20702000D01*
X26935499Y20702000D01*
X26631542Y20576097D01*
X26398903Y20343458D01*
X26273000Y20039501D01*
X19127000Y20039501D01*
X19127000Y20200000D01*
X19117333Y20248601D01*
X19089803Y20289803D01*
X19048601Y20317333D01*
X19000000Y20327000D01*
X5496555Y20327000D01*
X5701097Y20531542D01*
X5827000Y20835499D01*
X5827000Y21164501D01*
X5701097Y21468458D01*
X5468458Y21701097D01*
X5164501Y21827000D01*
X4835499Y21827000D01*
X4531542Y21701097D01*
X4298903Y21468458D01*
X4173000Y21164501D01*
X4173000Y20835499D01*
X4298903Y20531542D01*
X4503445Y20327000D01*
X527000Y20327000D01*
X527000Y23164501D01*
X4173000Y23164501D01*
X4173000Y22835499D01*
X4298903Y22531542D01*
X4531542Y22298903D01*
X4835499Y22173000D01*
X5164501Y22173000D01*
X5468458Y22298903D01*
X5701097Y22531542D01*
X5827000Y22835499D01*
X5827000Y23164501D01*
X5701097Y23468458D01*
X5468458Y23701097D01*
X5164501Y23827000D01*
X4835499Y23827000D01*
X4531542Y23701097D01*
X4298903Y23468458D01*
X4173000Y23164501D01*
X527000Y23164501D01*
X527000Y29164501D01*
X6173000Y29164501D01*
X6173000Y28835499D01*
X6298903Y28531542D01*
X6531542Y28298903D01*
X6835499Y28173000D01*
X7164501Y28173000D01*
X7468458Y28298903D01*
X7701097Y28531542D01*
X7827000Y28835499D01*
X7827000Y29164501D01*
X7701097Y29468458D01*
X7468458Y29701097D01*
X7164501Y29827000D01*
X6835499Y29827000D01*
X6531542Y29701097D01*
X6298903Y29468458D01*
X6173000Y29164501D01*
X527000Y29164501D01*
X527000Y31164501D01*
X6173000Y31164501D01*
X6173000Y30835499D01*
X6298903Y30531542D01*
X6531542Y30298903D01*
X6835499Y30173000D01*
X7164501Y30173000D01*
X7468458Y30298903D01*
X7701097Y30531542D01*
X7827000Y30835499D01*
X7827000Y31164501D01*
X7701097Y31468458D01*
X7468458Y31701097D01*
X7164501Y31827000D01*
X6835499Y31827000D01*
X6531542Y31701097D01*
X6298903Y31468458D01*
X6173000Y31164501D01*
X527000Y31164501D01*
X527000Y36164501D01*
X2073000Y36164501D01*
X2073000Y35835499D01*
X2198903Y35531542D01*
X2431542Y35298903D01*
X2735499Y35173000D01*
X3064501Y35173000D01*
X3368458Y35298903D01*
X3601097Y35531542D01*
X3727000Y35835499D01*
X3727000Y36164501D01*
X3601097Y36468458D01*
X3368458Y36701097D01*
X3064501Y36827000D01*
X2735499Y36827000D01*
X2431542Y36701097D01*
X2198903Y36468458D01*
X2073000Y36164501D01*
X527000Y36164501D01*
X527000Y37564501D01*
X19673000Y37564501D01*
X19673000Y37235499D01*
X19798903Y36931542D01*
X20031542Y36698903D01*
X20335499Y36573000D01*
X20664501Y36573000D01*
X20968458Y36698903D01*
X21201097Y36931542D01*
X21327000Y37235499D01*
X21327000Y37564501D01*
X21201097Y37868458D01*
X20968458Y38101097D01*
X20664501Y38227000D01*
X20335499Y38227000D01*
X20031542Y38101097D01*
X19798903Y37868458D01*
X19673000Y37564501D01*
X527000Y37564501D01*
X527000Y39164501D01*
X3173000Y39164501D01*
X3173000Y38835499D01*
X3298903Y38531542D01*
X3531542Y38298903D01*
X3835499Y38173000D01*
X4164501Y38173000D01*
X4468458Y38298903D01*
X4701097Y38531542D01*
X4827000Y38835499D01*
X4827000Y39164501D01*
X4744158Y39364501D01*
X6173000Y39364501D01*
X6173000Y39035499D01*
X6298903Y38731542D01*
X6531542Y38498903D01*
X6835499Y38373000D01*
X7164501Y38373000D01*
X7468458Y38498903D01*
X7701097Y38731542D01*
X7827000Y39035499D01*
X7827000Y39364501D01*
X7701097Y39668458D01*
X7468458Y39901097D01*
X7164501Y40027000D01*
X6835499Y40027000D01*
X6531542Y39901097D01*
X6298903Y39668458D01*
X6173000Y39364501D01*
X4744158Y39364501D01*
X4701097Y39468458D01*
X4468458Y39701097D01*
X4164501Y39827000D01*
X3835499Y39827000D01*
X3531542Y39701097D01*
X3298903Y39468458D01*
X3173000Y39164501D01*
X527000Y39164501D01*
X527000Y43000000D01*
X2453000Y43000000D01*
X2570758Y42407989D01*
X2906106Y41906106D01*
X3407989Y41570758D01*
X4000000Y41453000D01*
X4592011Y41570758D01*
X5093894Y41906106D01*
X5429242Y42407989D01*
X5547000Y43000000D01*
X5429242Y43592011D01*
X5093894Y44093894D01*
X4592011Y44429242D01*
X4487654Y44450000D01*
X11397983Y44450000D01*
X11497093Y43951740D01*
X11779335Y43529335D01*
X12201740Y43247093D01*
X12539040Y43180000D01*
X12201740Y43112907D01*
X11779335Y42830665D01*
X11497093Y42408260D01*
X11397983Y41910000D01*
X11497093Y41411740D01*
X11779335Y40989335D01*
X12201740Y40707093D01*
X12574231Y40633000D01*
X12825769Y40633000D01*
X13198260Y40707093D01*
X13620665Y40989335D01*
X13902907Y41411740D01*
X13954635Y41671794D01*
X13954635Y41060000D01*
X13987775Y40893393D01*
X14082150Y40752150D01*
X14223393Y40657775D01*
X14390000Y40624635D01*
X16090000Y40624635D01*
X16256607Y40657775D01*
X16397850Y40752150D01*
X16492225Y40893393D01*
X16525365Y41060000D01*
X16525365Y42760000D01*
X16492225Y42926607D01*
X16397850Y43067850D01*
X16256607Y43162225D01*
X16090000Y43195365D01*
X16025589Y43195365D01*
X16435183Y43568642D01*
X16681486Y44093108D01*
X16560819Y44323000D01*
X15367000Y44323000D01*
X15367000Y44303000D01*
X15113000Y44303000D01*
X15113000Y44323000D01*
X15093000Y44323000D01*
X15093000Y44577000D01*
X15113000Y44577000D01*
X15113000Y45770155D01*
X15367000Y45770155D01*
X15367000Y44577000D01*
X16560819Y44577000D01*
X16681486Y44806892D01*
X16435183Y45331358D01*
X16006924Y45721645D01*
X15596890Y45891476D01*
X15367000Y45770155D01*
X15113000Y45770155D01*
X14883110Y45891476D01*
X14473076Y45721645D01*
X14044817Y45331358D01*
X13880590Y44981660D01*
X13620665Y45370665D01*
X13198260Y45652907D01*
X12825769Y45727000D01*
X12574231Y45727000D01*
X12201740Y45652907D01*
X11779335Y45370665D01*
X11497093Y44948260D01*
X11397983Y44450000D01*
X4487654Y44450000D01*
X4000000Y44547000D01*
X3407989Y44429242D01*
X2906106Y44093894D01*
X2570758Y43592011D01*
X2453000Y43000000D01*
X527000Y43000000D01*
X527000Y46973000D01*
X11448098Y46973000D01*
X11500000Y46962676D01*
X11705625Y47003577D01*
X11879945Y47120055D01*
X11996423Y47294375D01*
X12027000Y47448097D01*
X12037324Y47500000D01*
X12027000Y47551903D01*
X12027000Y54473000D01*
X18973001Y54473000D01*
X18973000Y53127000D01*
X18973000Y53127000D01*
G37*
X18973000Y53127000D02*
X18700000Y53127000D01*
X18651399Y53117333D01*
X18610197Y53089803D01*
X18582667Y53048601D01*
X18573000Y53000000D01*
X18573000Y41900000D01*
X18579473Y41859971D01*
X18603967Y41816894D01*
X23103967Y36616894D01*
X23151399Y36582667D01*
X23200000Y36573000D01*
X35700000Y36573000D01*
X35748601Y36582667D01*
X35789803Y36610197D01*
X45052606Y45873000D01*
X46365000Y45873000D01*
X46365000Y3857000D01*
X42100422Y3857000D01*
X30482924Y15474498D01*
X31873000Y15474498D01*
X31873000Y15145496D01*
X31998903Y14841539D01*
X32231542Y14608900D01*
X32535499Y14482997D01*
X32864501Y14482997D01*
X33168458Y14608900D01*
X33401097Y14841539D01*
X33527000Y15145496D01*
X33527000Y15474498D01*
X33401097Y15778455D01*
X33168458Y16011094D01*
X32864501Y16136997D01*
X32535499Y16136997D01*
X32231542Y16011094D01*
X31998903Y15778455D01*
X31873000Y15474498D01*
X30482924Y15474498D01*
X29677000Y16280421D01*
X29677000Y17074498D01*
X36273000Y17074498D01*
X36273000Y16745496D01*
X36398903Y16441539D01*
X36631542Y16208900D01*
X36935499Y16082997D01*
X37264501Y16082997D01*
X37568458Y16208900D01*
X37801097Y16441539D01*
X37927000Y16745496D01*
X37927000Y17074498D01*
X37801097Y17378455D01*
X37568458Y17611094D01*
X37264501Y17736997D01*
X36935499Y17736997D01*
X36631542Y17611094D01*
X36398903Y17378455D01*
X36273000Y17074498D01*
X29677000Y17074498D01*
X29677000Y19874498D01*
X30273001Y19874498D01*
X30273001Y19545496D01*
X30398904Y19241539D01*
X30631543Y19008900D01*
X30935500Y18882997D01*
X31264502Y18882997D01*
X31568459Y19008900D01*
X31801098Y19241539D01*
X31927001Y19545496D01*
X31927001Y19874498D01*
X31801098Y20178455D01*
X31568459Y20411094D01*
X31264502Y20536997D01*
X30935500Y20536997D01*
X30631543Y20411094D01*
X30398904Y20178455D01*
X30273001Y19874498D01*
X29677000Y19874498D01*
X29677000Y20574498D01*
X33273000Y20574498D01*
X33273000Y20245496D01*
X33398903Y19941539D01*
X33631542Y19708900D01*
X33935499Y19582997D01*
X34264501Y19582997D01*
X34568458Y19708900D01*
X34801097Y19941539D01*
X34927000Y20245496D01*
X34927000Y20374498D01*
X36273000Y20374498D01*
X36273000Y20045496D01*
X36398903Y19741539D01*
X36631542Y19508900D01*
X36935499Y19382997D01*
X37264501Y19382997D01*
X37568458Y19508900D01*
X37801097Y19741539D01*
X37927000Y20045496D01*
X37927000Y20374498D01*
X37801097Y20678455D01*
X37568458Y20911094D01*
X37264501Y21036997D01*
X36935499Y21036997D01*
X36631542Y20911094D01*
X36398903Y20678455D01*
X36273000Y20374498D01*
X34927000Y20374498D01*
X34927000Y20574498D01*
X34801097Y20878455D01*
X34568458Y21111094D01*
X34264501Y21236997D01*
X33935499Y21236997D01*
X33631542Y21111094D01*
X33398903Y20878455D01*
X33273000Y20574498D01*
X29677000Y20574498D01*
X29677000Y21933322D01*
X29690263Y22000000D01*
X29637720Y22264153D01*
X29525860Y22431563D01*
X29525858Y22431565D01*
X29488089Y22488090D01*
X29431565Y22525858D01*
X27100915Y24856507D01*
X32111000Y24856507D01*
X32111000Y24383493D01*
X32292014Y23946486D01*
X32626486Y23612014D01*
X33063493Y23431000D01*
X33536507Y23431000D01*
X33973514Y23612014D01*
X34307986Y23946486D01*
X34489000Y24383493D01*
X34489000Y24856507D01*
X43541000Y24856507D01*
X43541000Y24383493D01*
X43722014Y23946486D01*
X44056486Y23612014D01*
X44493493Y23431000D01*
X44966507Y23431000D01*
X45403514Y23612014D01*
X45737986Y23946486D01*
X45919000Y24383493D01*
X45919000Y24856507D01*
X45737986Y25293514D01*
X45403514Y25627986D01*
X44966507Y25809000D01*
X44493493Y25809000D01*
X44056486Y25627986D01*
X43722014Y25293514D01*
X43541000Y24856507D01*
X34489000Y24856507D01*
X34307986Y25293514D01*
X33973514Y25627986D01*
X33536507Y25809000D01*
X33063493Y25809000D01*
X32626486Y25627986D01*
X32292014Y25293514D01*
X32111000Y24856507D01*
X27100915Y24856507D01*
X26905864Y25051557D01*
X26868090Y25108090D01*
X26644152Y25257720D01*
X26446678Y25297000D01*
X26446676Y25297000D01*
X26380000Y25310263D01*
X26313324Y25297000D01*
X24144500Y25297000D01*
X23813514Y25627986D01*
X23376507Y25809000D01*
X22903493Y25809000D01*
X22466486Y25627986D01*
X22132014Y25293514D01*
X21951000Y24856507D01*
X21951000Y24383493D01*
X22132014Y23946486D01*
X22466486Y23612014D01*
X22903493Y23431000D01*
X23376507Y23431000D01*
X23813514Y23612014D01*
X24144500Y23943000D01*
X26099579Y23943000D01*
X28323000Y21719577D01*
X28323001Y16066681D01*
X28309737Y16000000D01*
X28336193Y15867000D01*
X28362281Y15735848D01*
X28511911Y15511910D01*
X28568441Y15474138D01*
X41294138Y2748440D01*
X41331910Y2691910D01*
X41555848Y2542280D01*
X41632666Y2527000D01*
X19551903Y2527000D01*
X19500000Y2537324D01*
X19448098Y2527000D01*
X19448097Y2527000D01*
X19294375Y2496423D01*
X19120055Y2379945D01*
X19003577Y2205625D01*
X18962676Y2000000D01*
X18973001Y1948093D01*
X18973000Y527000D01*
X12027000Y527000D01*
X12027000Y7373000D01*
X19000000Y7373000D01*
X19048601Y7382667D01*
X19089803Y7410197D01*
X19117333Y7451399D01*
X19127000Y7500000D01*
X19127000Y10000000D01*
X29953000Y10000000D01*
X30070758Y9407989D01*
X30406106Y8906106D01*
X30907989Y8570758D01*
X31500000Y8453000D01*
X32092011Y8570758D01*
X32593894Y8906106D01*
X32929242Y9407989D01*
X33047000Y10000000D01*
X32929242Y10592011D01*
X32593894Y11093894D01*
X32092011Y11429242D01*
X31500000Y11547000D01*
X30907989Y11429242D01*
X30406106Y11093894D01*
X30070758Y10592011D01*
X29953000Y10000000D01*
X19127000Y10000000D01*
X19127000Y13164501D01*
X22098000Y13164501D01*
X22098000Y12835499D01*
X22223903Y12531542D01*
X22456542Y12298903D01*
X22760499Y12173000D01*
X23089501Y12173000D01*
X23393458Y12298903D01*
X23626097Y12531542D01*
X23752000Y12835499D01*
X23752000Y13164501D01*
X23626097Y13468458D01*
X23393458Y13701097D01*
X23089501Y13827000D01*
X22760499Y13827000D01*
X22456542Y13701097D01*
X22223903Y13468458D01*
X22098000Y13164501D01*
X19127000Y13164501D01*
X19127000Y15039501D01*
X26248000Y15039501D01*
X26248000Y14710499D01*
X26373903Y14406542D01*
X26606542Y14173903D01*
X26910499Y14048000D01*
X27239501Y14048000D01*
X27543458Y14173903D01*
X27776097Y14406542D01*
X27902000Y14710499D01*
X27902000Y15039501D01*
X27776097Y15343458D01*
X27543458Y15576097D01*
X27239501Y15702000D01*
X26910499Y15702000D01*
X26606542Y15576097D01*
X26373903Y15343458D01*
X26248000Y15039501D01*
X19127000Y15039501D01*
X19127000Y18164501D01*
X22098000Y18164501D01*
X22098000Y17835499D01*
X22223903Y17531542D01*
X22456542Y17298903D01*
X22760499Y17173000D01*
X23089501Y17173000D01*
X23393458Y17298903D01*
X23626097Y17531542D01*
X23752000Y17835499D01*
X23752000Y18164501D01*
X23626097Y18468458D01*
X23393458Y18701097D01*
X23089501Y18827000D01*
X22760499Y18827000D01*
X22456542Y18701097D01*
X22223903Y18468458D01*
X22098000Y18164501D01*
X19127000Y18164501D01*
X19127000Y20039501D01*
X26273000Y20039501D01*
X26273000Y19710499D01*
X26398903Y19406542D01*
X26631542Y19173903D01*
X26935499Y19048000D01*
X27264501Y19048000D01*
X27568458Y19173903D01*
X27801097Y19406542D01*
X27927000Y19710499D01*
X27927000Y20039501D01*
X27801097Y20343458D01*
X27568458Y20576097D01*
X27264501Y20702000D01*
X26935499Y20702000D01*
X26631542Y20576097D01*
X26398903Y20343458D01*
X26273000Y20039501D01*
X19127000Y20039501D01*
X19127000Y20200000D01*
X19117333Y20248601D01*
X19089803Y20289803D01*
X19048601Y20317333D01*
X19000000Y20327000D01*
X5496555Y20327000D01*
X5701097Y20531542D01*
X5827000Y20835499D01*
X5827000Y21164501D01*
X5701097Y21468458D01*
X5468458Y21701097D01*
X5164501Y21827000D01*
X4835499Y21827000D01*
X4531542Y21701097D01*
X4298903Y21468458D01*
X4173000Y21164501D01*
X4173000Y20835499D01*
X4298903Y20531542D01*
X4503445Y20327000D01*
X527000Y20327000D01*
X527000Y23164501D01*
X4173000Y23164501D01*
X4173000Y22835499D01*
X4298903Y22531542D01*
X4531542Y22298903D01*
X4835499Y22173000D01*
X5164501Y22173000D01*
X5468458Y22298903D01*
X5701097Y22531542D01*
X5827000Y22835499D01*
X5827000Y23164501D01*
X5701097Y23468458D01*
X5468458Y23701097D01*
X5164501Y23827000D01*
X4835499Y23827000D01*
X4531542Y23701097D01*
X4298903Y23468458D01*
X4173000Y23164501D01*
X527000Y23164501D01*
X527000Y29164501D01*
X6173000Y29164501D01*
X6173000Y28835499D01*
X6298903Y28531542D01*
X6531542Y28298903D01*
X6835499Y28173000D01*
X7164501Y28173000D01*
X7468458Y28298903D01*
X7701097Y28531542D01*
X7827000Y28835499D01*
X7827000Y29164501D01*
X7701097Y29468458D01*
X7468458Y29701097D01*
X7164501Y29827000D01*
X6835499Y29827000D01*
X6531542Y29701097D01*
X6298903Y29468458D01*
X6173000Y29164501D01*
X527000Y29164501D01*
X527000Y31164501D01*
X6173000Y31164501D01*
X6173000Y30835499D01*
X6298903Y30531542D01*
X6531542Y30298903D01*
X6835499Y30173000D01*
X7164501Y30173000D01*
X7468458Y30298903D01*
X7701097Y30531542D01*
X7827000Y30835499D01*
X7827000Y31164501D01*
X7701097Y31468458D01*
X7468458Y31701097D01*
X7164501Y31827000D01*
X6835499Y31827000D01*
X6531542Y31701097D01*
X6298903Y31468458D01*
X6173000Y31164501D01*
X527000Y31164501D01*
X527000Y36164501D01*
X2073000Y36164501D01*
X2073000Y35835499D01*
X2198903Y35531542D01*
X2431542Y35298903D01*
X2735499Y35173000D01*
X3064501Y35173000D01*
X3368458Y35298903D01*
X3601097Y35531542D01*
X3727000Y35835499D01*
X3727000Y36164501D01*
X3601097Y36468458D01*
X3368458Y36701097D01*
X3064501Y36827000D01*
X2735499Y36827000D01*
X2431542Y36701097D01*
X2198903Y36468458D01*
X2073000Y36164501D01*
X527000Y36164501D01*
X527000Y37564501D01*
X19673000Y37564501D01*
X19673000Y37235499D01*
X19798903Y36931542D01*
X20031542Y36698903D01*
X20335499Y36573000D01*
X20664501Y36573000D01*
X20968458Y36698903D01*
X21201097Y36931542D01*
X21327000Y37235499D01*
X21327000Y37564501D01*
X21201097Y37868458D01*
X20968458Y38101097D01*
X20664501Y38227000D01*
X20335499Y38227000D01*
X20031542Y38101097D01*
X19798903Y37868458D01*
X19673000Y37564501D01*
X527000Y37564501D01*
X527000Y39164501D01*
X3173000Y39164501D01*
X3173000Y38835499D01*
X3298903Y38531542D01*
X3531542Y38298903D01*
X3835499Y38173000D01*
X4164501Y38173000D01*
X4468458Y38298903D01*
X4701097Y38531542D01*
X4827000Y38835499D01*
X4827000Y39164501D01*
X4744158Y39364501D01*
X6173000Y39364501D01*
X6173000Y39035499D01*
X6298903Y38731542D01*
X6531542Y38498903D01*
X6835499Y38373000D01*
X7164501Y38373000D01*
X7468458Y38498903D01*
X7701097Y38731542D01*
X7827000Y39035499D01*
X7827000Y39364501D01*
X7701097Y39668458D01*
X7468458Y39901097D01*
X7164501Y40027000D01*
X6835499Y40027000D01*
X6531542Y39901097D01*
X6298903Y39668458D01*
X6173000Y39364501D01*
X4744158Y39364501D01*
X4701097Y39468458D01*
X4468458Y39701097D01*
X4164501Y39827000D01*
X3835499Y39827000D01*
X3531542Y39701097D01*
X3298903Y39468458D01*
X3173000Y39164501D01*
X527000Y39164501D01*
X527000Y43000000D01*
X2453000Y43000000D01*
X2570758Y42407989D01*
X2906106Y41906106D01*
X3407989Y41570758D01*
X4000000Y41453000D01*
X4592011Y41570758D01*
X5093894Y41906106D01*
X5429242Y42407989D01*
X5547000Y43000000D01*
X5429242Y43592011D01*
X5093894Y44093894D01*
X4592011Y44429242D01*
X4487654Y44450000D01*
X11397983Y44450000D01*
X11497093Y43951740D01*
X11779335Y43529335D01*
X12201740Y43247093D01*
X12539040Y43180000D01*
X12201740Y43112907D01*
X11779335Y42830665D01*
X11497093Y42408260D01*
X11397983Y41910000D01*
X11497093Y41411740D01*
X11779335Y40989335D01*
X12201740Y40707093D01*
X12574231Y40633000D01*
X12825769Y40633000D01*
X13198260Y40707093D01*
X13620665Y40989335D01*
X13902907Y41411740D01*
X13954635Y41671794D01*
X13954635Y41060000D01*
X13987775Y40893393D01*
X14082150Y40752150D01*
X14223393Y40657775D01*
X14390000Y40624635D01*
X16090000Y40624635D01*
X16256607Y40657775D01*
X16397850Y40752150D01*
X16492225Y40893393D01*
X16525365Y41060000D01*
X16525365Y42760000D01*
X16492225Y42926607D01*
X16397850Y43067850D01*
X16256607Y43162225D01*
X16090000Y43195365D01*
X16025589Y43195365D01*
X16435183Y43568642D01*
X16681486Y44093108D01*
X16560819Y44323000D01*
X15367000Y44323000D01*
X15367000Y44303000D01*
X15113000Y44303000D01*
X15113000Y44323000D01*
X15093000Y44323000D01*
X15093000Y44577000D01*
X15113000Y44577000D01*
X15113000Y45770155D01*
X15367000Y45770155D01*
X15367000Y44577000D01*
X16560819Y44577000D01*
X16681486Y44806892D01*
X16435183Y45331358D01*
X16006924Y45721645D01*
X15596890Y45891476D01*
X15367000Y45770155D01*
X15113000Y45770155D01*
X14883110Y45891476D01*
X14473076Y45721645D01*
X14044817Y45331358D01*
X13880590Y44981660D01*
X13620665Y45370665D01*
X13198260Y45652907D01*
X12825769Y45727000D01*
X12574231Y45727000D01*
X12201740Y45652907D01*
X11779335Y45370665D01*
X11497093Y44948260D01*
X11397983Y44450000D01*
X4487654Y44450000D01*
X4000000Y44547000D01*
X3407989Y44429242D01*
X2906106Y44093894D01*
X2570758Y43592011D01*
X2453000Y43000000D01*
X527000Y43000000D01*
X527000Y46973000D01*
X11448098Y46973000D01*
X11500000Y46962676D01*
X11705625Y47003577D01*
X11879945Y47120055D01*
X11996423Y47294375D01*
X12027000Y47448097D01*
X12037324Y47500000D01*
X12027000Y47551903D01*
X12027000Y54473000D01*
X18973001Y54473000D01*
X18973000Y53127000D01*
G04 #@! TO.N,+12V*
G36*
X48717560Y44540000D02*
X48766843Y44292235D01*
X48907191Y44082191D01*
X49117235Y43941843D01*
X49365000Y43892560D01*
X50885000Y43892560D01*
X51132765Y43941843D01*
X51342809Y44082191D01*
X51483157Y44292235D01*
X51532440Y44540000D01*
X51532440Y45873000D01*
X53873000Y45873000D01*
X53873000Y2735000D01*
X51447358Y2735000D01*
X51532155Y2972780D01*
X51504341Y3527049D01*
X51345742Y3909941D01*
X51103764Y3979159D01*
X50304605Y3180000D01*
X50318748Y3165857D01*
X50139143Y2986252D01*
X50125000Y3000395D01*
X50110858Y2986252D01*
X49931253Y3165857D01*
X49945395Y3180000D01*
X49146236Y3979159D01*
X48904258Y3909941D01*
X48717845Y3387220D01*
X48745659Y2832951D01*
X48786232Y2735000D01*
X47127000Y2735000D01*
X47127000Y4158764D01*
X49325841Y4158764D01*
X50125000Y3359605D01*
X50924159Y4158764D01*
X50854941Y4400742D01*
X50332220Y4587155D01*
X49777951Y4559341D01*
X49395059Y4400742D01*
X49325841Y4158764D01*
X47127000Y4158764D01*
X47127000Y11560000D01*
X48717560Y11560000D01*
X48717560Y10040000D01*
X48766843Y9792235D01*
X48907191Y9582191D01*
X49117235Y9441843D01*
X49365000Y9392560D01*
X50885000Y9392560D01*
X51132765Y9441843D01*
X51342809Y9582191D01*
X51483157Y9792235D01*
X51532440Y10040000D01*
X51532440Y11560000D01*
X51483157Y11807765D01*
X51342809Y12017809D01*
X51132765Y12158157D01*
X50885000Y12207440D01*
X49365000Y12207440D01*
X49117235Y12158157D01*
X48907191Y12017809D01*
X48766843Y11807765D01*
X48717560Y11560000D01*
X47127000Y11560000D01*
X47127000Y13701236D01*
X49325841Y13701236D01*
X49395059Y13459258D01*
X49917780Y13272845D01*
X50472049Y13300659D01*
X50854941Y13459258D01*
X50924159Y13701236D01*
X50125000Y14500395D01*
X49325841Y13701236D01*
X47127000Y13701236D01*
X47127000Y14887220D01*
X48717845Y14887220D01*
X48745659Y14332951D01*
X48904258Y13950059D01*
X49146236Y13880841D01*
X49945395Y14680000D01*
X50304605Y14680000D01*
X51103764Y13880841D01*
X51345742Y13950059D01*
X51532155Y14472780D01*
X51504341Y15027049D01*
X51345742Y15409941D01*
X51103764Y15479159D01*
X50304605Y14680000D01*
X49945395Y14680000D01*
X49146236Y15479159D01*
X48904258Y15409941D01*
X48717845Y14887220D01*
X47127000Y14887220D01*
X47127000Y15658764D01*
X49325841Y15658764D01*
X50125000Y14859605D01*
X50924159Y15658764D01*
X50854941Y15900742D01*
X50332220Y16087155D01*
X49777951Y16059341D01*
X49395059Y15900742D01*
X49325841Y15658764D01*
X47127000Y15658764D01*
X47127000Y23060000D01*
X48717560Y23060000D01*
X48717560Y21540000D01*
X48766843Y21292235D01*
X48907191Y21082191D01*
X49117235Y20941843D01*
X49365000Y20892560D01*
X50885000Y20892560D01*
X51132765Y20941843D01*
X51342809Y21082191D01*
X51483157Y21292235D01*
X51532440Y21540000D01*
X51532440Y23060000D01*
X51483157Y23307765D01*
X51342809Y23517809D01*
X51132765Y23658157D01*
X50885000Y23707440D01*
X49365000Y23707440D01*
X49117235Y23658157D01*
X48907191Y23517809D01*
X48766843Y23307765D01*
X48717560Y23060000D01*
X47127000Y23060000D01*
X47127000Y25201236D01*
X49325841Y25201236D01*
X49395059Y24959258D01*
X49917780Y24772845D01*
X50472049Y24800659D01*
X50854941Y24959258D01*
X50924159Y25201236D01*
X50125000Y26000395D01*
X49325841Y25201236D01*
X47127000Y25201236D01*
X47127000Y26387220D01*
X48717845Y26387220D01*
X48745659Y25832951D01*
X48904258Y25450059D01*
X49146236Y25380841D01*
X49945395Y26180000D01*
X50304605Y26180000D01*
X51103764Y25380841D01*
X51345742Y25450059D01*
X51532155Y25972780D01*
X51504341Y26527049D01*
X51345742Y26909941D01*
X51103764Y26979159D01*
X50304605Y26180000D01*
X49945395Y26180000D01*
X49146236Y26979159D01*
X48904258Y26909941D01*
X48717845Y26387220D01*
X47127000Y26387220D01*
X47127000Y27158764D01*
X49325841Y27158764D01*
X50125000Y26359605D01*
X50924159Y27158764D01*
X50854941Y27400742D01*
X50332220Y27587155D01*
X49777951Y27559341D01*
X49395059Y27400742D01*
X49325841Y27158764D01*
X47127000Y27158764D01*
X47127000Y34560000D01*
X48717560Y34560000D01*
X48717560Y33040000D01*
X48766843Y32792235D01*
X48907191Y32582191D01*
X49117235Y32441843D01*
X49365000Y32392560D01*
X50885000Y32392560D01*
X51132765Y32441843D01*
X51342809Y32582191D01*
X51483157Y32792235D01*
X51532440Y33040000D01*
X51532440Y34560000D01*
X51483157Y34807765D01*
X51342809Y35017809D01*
X51132765Y35158157D01*
X50885000Y35207440D01*
X49365000Y35207440D01*
X49117235Y35158157D01*
X48907191Y35017809D01*
X48766843Y34807765D01*
X48717560Y34560000D01*
X47127000Y34560000D01*
X47127000Y36701236D01*
X49325841Y36701236D01*
X49395059Y36459258D01*
X49917780Y36272845D01*
X50472049Y36300659D01*
X50854941Y36459258D01*
X50924159Y36701236D01*
X50125000Y37500395D01*
X49325841Y36701236D01*
X47127000Y36701236D01*
X47127000Y37887220D01*
X48717845Y37887220D01*
X48745659Y37332951D01*
X48904258Y36950059D01*
X49146236Y36880841D01*
X49945395Y37680000D01*
X50304605Y37680000D01*
X51103764Y36880841D01*
X51345742Y36950059D01*
X51532155Y37472780D01*
X51504341Y38027049D01*
X51345742Y38409941D01*
X51103764Y38479159D01*
X50304605Y37680000D01*
X49945395Y37680000D01*
X49146236Y38479159D01*
X48904258Y38409941D01*
X48717845Y37887220D01*
X47127000Y37887220D01*
X47127000Y38658764D01*
X49325841Y38658764D01*
X50125000Y37859605D01*
X50924159Y38658764D01*
X50854941Y38900742D01*
X50332220Y39087155D01*
X49777951Y39059341D01*
X49395059Y38900742D01*
X49325841Y38658764D01*
X47127000Y38658764D01*
X47127000Y45873000D01*
X48717560Y45873000D01*
X48717560Y44540000D01*
X48717560Y44540000D01*
G37*
X48717560Y44540000D02*
X48766843Y44292235D01*
X48907191Y44082191D01*
X49117235Y43941843D01*
X49365000Y43892560D01*
X50885000Y43892560D01*
X51132765Y43941843D01*
X51342809Y44082191D01*
X51483157Y44292235D01*
X51532440Y44540000D01*
X51532440Y45873000D01*
X53873000Y45873000D01*
X53873000Y2735000D01*
X51447358Y2735000D01*
X51532155Y2972780D01*
X51504341Y3527049D01*
X51345742Y3909941D01*
X51103764Y3979159D01*
X50304605Y3180000D01*
X50318748Y3165857D01*
X50139143Y2986252D01*
X50125000Y3000395D01*
X50110858Y2986252D01*
X49931253Y3165857D01*
X49945395Y3180000D01*
X49146236Y3979159D01*
X48904258Y3909941D01*
X48717845Y3387220D01*
X48745659Y2832951D01*
X48786232Y2735000D01*
X47127000Y2735000D01*
X47127000Y4158764D01*
X49325841Y4158764D01*
X50125000Y3359605D01*
X50924159Y4158764D01*
X50854941Y4400742D01*
X50332220Y4587155D01*
X49777951Y4559341D01*
X49395059Y4400742D01*
X49325841Y4158764D01*
X47127000Y4158764D01*
X47127000Y11560000D01*
X48717560Y11560000D01*
X48717560Y10040000D01*
X48766843Y9792235D01*
X48907191Y9582191D01*
X49117235Y9441843D01*
X49365000Y9392560D01*
X50885000Y9392560D01*
X51132765Y9441843D01*
X51342809Y9582191D01*
X51483157Y9792235D01*
X51532440Y10040000D01*
X51532440Y11560000D01*
X51483157Y11807765D01*
X51342809Y12017809D01*
X51132765Y12158157D01*
X50885000Y12207440D01*
X49365000Y12207440D01*
X49117235Y12158157D01*
X48907191Y12017809D01*
X48766843Y11807765D01*
X48717560Y11560000D01*
X47127000Y11560000D01*
X47127000Y13701236D01*
X49325841Y13701236D01*
X49395059Y13459258D01*
X49917780Y13272845D01*
X50472049Y13300659D01*
X50854941Y13459258D01*
X50924159Y13701236D01*
X50125000Y14500395D01*
X49325841Y13701236D01*
X47127000Y13701236D01*
X47127000Y14887220D01*
X48717845Y14887220D01*
X48745659Y14332951D01*
X48904258Y13950059D01*
X49146236Y13880841D01*
X49945395Y14680000D01*
X50304605Y14680000D01*
X51103764Y13880841D01*
X51345742Y13950059D01*
X51532155Y14472780D01*
X51504341Y15027049D01*
X51345742Y15409941D01*
X51103764Y15479159D01*
X50304605Y14680000D01*
X49945395Y14680000D01*
X49146236Y15479159D01*
X48904258Y15409941D01*
X48717845Y14887220D01*
X47127000Y14887220D01*
X47127000Y15658764D01*
X49325841Y15658764D01*
X50125000Y14859605D01*
X50924159Y15658764D01*
X50854941Y15900742D01*
X50332220Y16087155D01*
X49777951Y16059341D01*
X49395059Y15900742D01*
X49325841Y15658764D01*
X47127000Y15658764D01*
X47127000Y23060000D01*
X48717560Y23060000D01*
X48717560Y21540000D01*
X48766843Y21292235D01*
X48907191Y21082191D01*
X49117235Y20941843D01*
X49365000Y20892560D01*
X50885000Y20892560D01*
X51132765Y20941843D01*
X51342809Y21082191D01*
X51483157Y21292235D01*
X51532440Y21540000D01*
X51532440Y23060000D01*
X51483157Y23307765D01*
X51342809Y23517809D01*
X51132765Y23658157D01*
X50885000Y23707440D01*
X49365000Y23707440D01*
X49117235Y23658157D01*
X48907191Y23517809D01*
X48766843Y23307765D01*
X48717560Y23060000D01*
X47127000Y23060000D01*
X47127000Y25201236D01*
X49325841Y25201236D01*
X49395059Y24959258D01*
X49917780Y24772845D01*
X50472049Y24800659D01*
X50854941Y24959258D01*
X50924159Y25201236D01*
X50125000Y26000395D01*
X49325841Y25201236D01*
X47127000Y25201236D01*
X47127000Y26387220D01*
X48717845Y26387220D01*
X48745659Y25832951D01*
X48904258Y25450059D01*
X49146236Y25380841D01*
X49945395Y26180000D01*
X50304605Y26180000D01*
X51103764Y25380841D01*
X51345742Y25450059D01*
X51532155Y25972780D01*
X51504341Y26527049D01*
X51345742Y26909941D01*
X51103764Y26979159D01*
X50304605Y26180000D01*
X49945395Y26180000D01*
X49146236Y26979159D01*
X48904258Y26909941D01*
X48717845Y26387220D01*
X47127000Y26387220D01*
X47127000Y27158764D01*
X49325841Y27158764D01*
X50125000Y26359605D01*
X50924159Y27158764D01*
X50854941Y27400742D01*
X50332220Y27587155D01*
X49777951Y27559341D01*
X49395059Y27400742D01*
X49325841Y27158764D01*
X47127000Y27158764D01*
X47127000Y34560000D01*
X48717560Y34560000D01*
X48717560Y33040000D01*
X48766843Y32792235D01*
X48907191Y32582191D01*
X49117235Y32441843D01*
X49365000Y32392560D01*
X50885000Y32392560D01*
X51132765Y32441843D01*
X51342809Y32582191D01*
X51483157Y32792235D01*
X51532440Y33040000D01*
X51532440Y34560000D01*
X51483157Y34807765D01*
X51342809Y35017809D01*
X51132765Y35158157D01*
X50885000Y35207440D01*
X49365000Y35207440D01*
X49117235Y35158157D01*
X48907191Y35017809D01*
X48766843Y34807765D01*
X48717560Y34560000D01*
X47127000Y34560000D01*
X47127000Y36701236D01*
X49325841Y36701236D01*
X49395059Y36459258D01*
X49917780Y36272845D01*
X50472049Y36300659D01*
X50854941Y36459258D01*
X50924159Y36701236D01*
X50125000Y37500395D01*
X49325841Y36701236D01*
X47127000Y36701236D01*
X47127000Y37887220D01*
X48717845Y37887220D01*
X48745659Y37332951D01*
X48904258Y36950059D01*
X49146236Y36880841D01*
X49945395Y37680000D01*
X50304605Y37680000D01*
X51103764Y36880841D01*
X51345742Y36950059D01*
X51532155Y37472780D01*
X51504341Y38027049D01*
X51345742Y38409941D01*
X51103764Y38479159D01*
X50304605Y37680000D01*
X49945395Y37680000D01*
X49146236Y38479159D01*
X48904258Y38409941D01*
X48717845Y37887220D01*
X47127000Y37887220D01*
X47127000Y38658764D01*
X49325841Y38658764D01*
X50125000Y37859605D01*
X50924159Y38658764D01*
X50854941Y38900742D01*
X50332220Y39087155D01*
X49777951Y39059341D01*
X49395059Y38900742D01*
X49325841Y38658764D01*
X47127000Y38658764D01*
X47127000Y45873000D01*
X48717560Y45873000D01*
X48717560Y44540000D01*
G04 #@! TD*
M02*
