%FSLAX45Y45*%
G04 Gerber Fmt 4.5, Leading zero omitted, Abs format (unit mm)*
G04 Created by KiCad (PCBNEW 5.0.2-bee76a0~70~ubuntu18.04.1) date Mon 02 Dec 2019 10:21:49 PM CET*
%MOMM*%
%LPD*%
G01*
G04 APERTURE LIST*
%ADD10C,0.200000*%
%ADD11C,0.300000*%
G04 APERTURE END LIST*
D10*
X3250000Y1000000D02*
G75*
G03X3250000Y1000000I-100000J0D01*
G01*
X500000Y4300000D02*
G75*
G03X500000Y4300000I-100000J0D01*
G01*
X7350000Y2750000D02*
G75*
G03X7350000Y2750000I-100000J0D01*
G01*
X8150000Y5300000D02*
X8150000Y200000D01*
X8150000Y5300000D02*
X1950000Y5300000D01*
X1950000Y200000D02*
X8150000Y200000D01*
X1950000Y0D02*
X1950000Y200000D01*
X1950000Y5300000D02*
X1950000Y5500000D01*
X1950000Y0D02*
X1150000Y0D01*
X1150000Y5500000D02*
X1950000Y5500000D01*
X1150000Y5500000D02*
X1150000Y4750000D01*
X1150000Y750000D02*
X1150000Y0D01*
X1150000Y750000D02*
X0Y750000D01*
X0Y4750000D02*
X1150000Y4750000D01*
X0Y750000D02*
X0Y4750000D01*
D10*
X270000Y3620000D02*
X310000Y3580000D01*
X310000Y3620000D02*
X270000Y3580000D01*
X380000Y3920000D02*
X420000Y3880000D01*
X420000Y3920000D02*
X380000Y3880000D01*
X480000Y2320000D02*
X520000Y2280000D01*
X520000Y2320000D02*
X480000Y2280000D01*
X480000Y2120000D02*
X520000Y2080000D01*
X520000Y2120000D02*
X480000Y2080000D01*
X680000Y3940000D02*
X720000Y3900000D01*
X720000Y3940000D02*
X680000Y3900000D01*
X680000Y3120000D02*
X720000Y3080000D01*
X720000Y3120000D02*
X680000Y3080000D01*
X680000Y2920000D02*
X720000Y2880000D01*
X720000Y2920000D02*
X680000Y2880000D01*
X980000Y3940000D02*
X1020000Y3900000D01*
X1020000Y3940000D02*
X980000Y3900000D01*
X2030000Y3760000D02*
X2070000Y3720000D01*
X2070000Y3760000D02*
X2030000Y3720000D01*
X2055000Y2175000D02*
X2095000Y2135000D01*
X2095000Y2175000D02*
X2055000Y2135000D01*
X2115000Y3520000D02*
X2155000Y3480000D01*
X2155000Y3520000D02*
X2115000Y3480000D01*
X2272500Y1820000D02*
X2312500Y1780000D01*
X2312500Y1820000D02*
X2272500Y1780000D01*
X2272500Y1320000D02*
X2312500Y1280000D01*
X2312500Y1320000D02*
X2272500Y1280000D01*
X2480000Y1830000D02*
X2520000Y1790000D01*
X2520000Y1830000D02*
X2480000Y1790000D01*
X2555000Y1105000D02*
X2595000Y1065000D01*
X2595000Y1105000D02*
X2555000Y1065000D01*
X2687500Y1507500D02*
X2727500Y1467500D01*
X2727500Y1507500D02*
X2687500Y1467500D01*
X2690000Y2007500D02*
X2730000Y1967500D01*
X2730000Y2007500D02*
X2690000Y1967500D01*
X3090000Y1991000D02*
X3130000Y1951000D01*
X3130000Y1991000D02*
X3090000Y1951000D01*
X3250000Y1551000D02*
X3290000Y1511000D01*
X3290000Y1551000D02*
X3250000Y1511000D01*
X3390000Y2061000D02*
X3430000Y2021000D01*
X3430000Y2061000D02*
X3390000Y2021000D01*
X3490000Y1442500D02*
X3530000Y1402500D01*
X3530000Y1442500D02*
X3490000Y1402500D01*
X3690000Y2041000D02*
X3730000Y2001000D01*
X3730000Y2041000D02*
X3690000Y2001000D01*
X3690000Y1711000D02*
X3730000Y1671000D01*
X3730000Y1711000D02*
X3690000Y1671000D01*
X5050500Y2230000D02*
G75*
G03X5050500Y2230000I-38000J0D01*
G01*
X5050500Y1468000D02*
G75*
G03X5050500Y1468000I-38000J0D01*
G01*
X5050500Y4530000D02*
G75*
G03X5050500Y4530000I-38000J0D01*
G01*
X5050500Y3768000D02*
G75*
G03X5050500Y3768000I-38000J0D01*
G01*
X5050500Y3380000D02*
G75*
G03X5050500Y3380000I-38000J0D01*
G01*
X5050500Y2618000D02*
G75*
G03X5050500Y2618000I-38000J0D01*
G01*
X5050500Y1080000D02*
G75*
G03X5050500Y1080000I-38000J0D01*
G01*
X5050500Y318000D02*
G75*
G03X5050500Y318000I-38000J0D01*
G01*
X2314000Y2500100D02*
X2314000Y2423900D01*
X2275900Y2462000D02*
X2352100Y2462000D01*
X2443000Y4576100D02*
X2443000Y4499900D01*
X2404900Y4538000D02*
X2481100Y4538000D01*
X2833000Y4576100D02*
X2833000Y4499900D01*
X2794900Y4538000D02*
X2871100Y4538000D01*
X3330000Y2500100D02*
X3330000Y2423900D01*
X3291900Y2462000D02*
X3368100Y2462000D01*
X4473000Y2500100D02*
X4473000Y2423900D01*
X4434900Y2462000D02*
X4511100Y2462000D01*
X1305356Y4409644D02*
X1305356Y4480356D01*
X1234644Y4480356D01*
X1234644Y4409644D01*
X1305356Y4409644D01*
X1305356Y4155644D02*
X1305356Y4226356D01*
X1234644Y4226356D01*
X1234644Y4155644D01*
X1305356Y4155644D01*
X1559356Y4409644D02*
X1559356Y4480356D01*
X1488644Y4480356D01*
X1488644Y4409644D01*
X1559356Y4409644D01*
X1559356Y4155644D02*
X1559356Y4226356D01*
X1488644Y4226356D01*
X1488644Y4155644D01*
X1559356Y4155644D01*
X6028500Y4465000D02*
X6093500Y4530000D01*
X6028500Y4595000D01*
X5963500Y4530000D01*
X6028500Y4465000D01*
X6790500Y4465000D02*
X6855500Y4530000D01*
X6790500Y4595000D01*
X6725500Y4530000D01*
X6790500Y4465000D01*
X6028500Y3315000D02*
X6093500Y3380000D01*
X6028500Y3445000D01*
X5963500Y3380000D01*
X6028500Y3315000D01*
X6790500Y3315000D02*
X6855500Y3380000D01*
X6790500Y3445000D01*
X6725500Y3380000D01*
X6790500Y3315000D01*
X6028500Y1015000D02*
X6093500Y1080000D01*
X6028500Y1145000D01*
X5963500Y1080000D01*
X6028500Y1015000D01*
X6790500Y1015000D02*
X6855500Y1080000D01*
X6790500Y1145000D01*
X6725500Y1080000D01*
X6790500Y1015000D01*
X6028500Y2165000D02*
X6093500Y2230000D01*
X6028500Y2295000D01*
X5963500Y2230000D01*
X6028500Y2165000D01*
X6790500Y2165000D02*
X6855500Y2230000D01*
X6790500Y2295000D01*
X6725500Y2230000D01*
X6790500Y2165000D01*
X7525000Y4225000D02*
X7675000Y4075000D01*
X7675000Y4225000D02*
X7525000Y4075000D01*
X7675000Y4150000D02*
G75*
G03X7675000Y4150000I-75000J0D01*
G01*
X7525000Y3075000D02*
X7675000Y2925000D01*
X7675000Y3075000D02*
X7525000Y2925000D01*
X7675000Y3000000D02*
G75*
G03X7675000Y3000000I-75000J0D01*
G01*
X7525000Y775000D02*
X7675000Y625000D01*
X7675000Y775000D02*
X7525000Y625000D01*
X7675000Y700000D02*
G75*
G03X7675000Y700000I-75000J0D01*
G01*
X7525000Y1925000D02*
X7675000Y1775000D01*
X7675000Y1925000D02*
X7525000Y1775000D01*
X7675000Y1850000D02*
G75*
G03X7675000Y1850000I-75000J0D01*
G01*
X3325000Y5075000D02*
X3475000Y4925000D01*
X3475000Y5075000D02*
X3325000Y4925000D01*
X3475000Y5000000D02*
G75*
G03X3475000Y5000000I-75000J0D01*
G01*
X3925000Y5075000D02*
X4075000Y4925000D01*
X4075000Y5075000D02*
X3925000Y4925000D01*
X4075000Y5000000D02*
G75*
G03X4075000Y5000000I-75000J0D01*
G01*
D11*
X276428Y-475714D02*
X276428Y-175714D01*
X347857Y-175714D01*
X390714Y-190000D01*
X419286Y-218571D01*
X433571Y-247143D01*
X447857Y-304286D01*
X447857Y-347143D01*
X433571Y-404286D01*
X419286Y-432857D01*
X390714Y-461429D01*
X347857Y-475714D01*
X276428Y-475714D01*
X576428Y-475714D02*
X576428Y-275714D01*
X576428Y-332857D02*
X590714Y-304286D01*
X605000Y-290000D01*
X633571Y-275714D01*
X662143Y-275714D01*
X762143Y-475714D02*
X762143Y-275714D01*
X762143Y-175714D02*
X747857Y-190000D01*
X762143Y-204286D01*
X776428Y-190000D01*
X762143Y-175714D01*
X762143Y-204286D01*
X947857Y-475714D02*
X919286Y-461429D01*
X905000Y-432857D01*
X905000Y-175714D01*
X1105000Y-475714D02*
X1076428Y-461429D01*
X1062143Y-432857D01*
X1062143Y-175714D01*
X1447857Y-475714D02*
X1447857Y-175714D01*
X1547857Y-390000D01*
X1647857Y-175714D01*
X1647857Y-475714D01*
X1919286Y-475714D02*
X1919286Y-318572D01*
X1905000Y-290000D01*
X1876428Y-275714D01*
X1819286Y-275714D01*
X1790714Y-290000D01*
X1919286Y-461429D02*
X1890714Y-475714D01*
X1819286Y-475714D01*
X1790714Y-461429D01*
X1776428Y-432857D01*
X1776428Y-404286D01*
X1790714Y-375714D01*
X1819286Y-361429D01*
X1890714Y-361429D01*
X1919286Y-347143D01*
X2062143Y-275714D02*
X2062143Y-575714D01*
X2062143Y-290000D02*
X2090714Y-275714D01*
X2147857Y-275714D01*
X2176428Y-290000D01*
X2190714Y-304286D01*
X2205000Y-332857D01*
X2205000Y-418571D01*
X2190714Y-447143D01*
X2176428Y-461429D01*
X2147857Y-475714D01*
X2090714Y-475714D01*
X2062143Y-461429D01*
X2333571Y-447143D02*
X2347857Y-461429D01*
X2333571Y-475714D01*
X2319286Y-461429D01*
X2333571Y-447143D01*
X2333571Y-475714D01*
X2333571Y-290000D02*
X2347857Y-304286D01*
X2333571Y-318572D01*
X2319286Y-304286D01*
X2333571Y-290000D01*
X2333571Y-318572D01*
X-50000Y-950000D02*
X-10000Y-990000D01*
X-10000Y-950000D02*
X-50000Y-990000D01*
X333571Y-805714D02*
X362143Y-805714D01*
X390714Y-820000D01*
X405000Y-834286D01*
X419286Y-862857D01*
X433571Y-920000D01*
X433571Y-991429D01*
X419286Y-1048571D01*
X405000Y-1077143D01*
X390714Y-1091429D01*
X362143Y-1105714D01*
X333571Y-1105714D01*
X305000Y-1091429D01*
X290714Y-1077143D01*
X276428Y-1048571D01*
X262143Y-991429D01*
X262143Y-920000D01*
X276428Y-862857D01*
X290714Y-834286D01*
X305000Y-820000D01*
X333571Y-805714D01*
X562143Y-1077143D02*
X576428Y-1091429D01*
X562143Y-1105714D01*
X547857Y-1091429D01*
X562143Y-1077143D01*
X562143Y-1105714D01*
X833571Y-905714D02*
X833571Y-1105714D01*
X762143Y-791429D02*
X690714Y-1005714D01*
X876428Y-1005714D01*
X1047857Y-805714D02*
X1076428Y-805714D01*
X1105000Y-820000D01*
X1119286Y-834286D01*
X1133571Y-862857D01*
X1147857Y-920000D01*
X1147857Y-991429D01*
X1133571Y-1048571D01*
X1119286Y-1077143D01*
X1105000Y-1091429D01*
X1076428Y-1105714D01*
X1047857Y-1105714D01*
X1019286Y-1091429D01*
X1005000Y-1077143D01*
X990714Y-1048571D01*
X976428Y-991429D01*
X976428Y-920000D01*
X990714Y-862857D01*
X1005000Y-834286D01*
X1019286Y-820000D01*
X1047857Y-805714D01*
X1276428Y-1105714D02*
X1276428Y-905714D01*
X1276428Y-934286D02*
X1290714Y-920000D01*
X1319286Y-905714D01*
X1362143Y-905714D01*
X1390714Y-920000D01*
X1405000Y-948571D01*
X1405000Y-1105714D01*
X1405000Y-948571D02*
X1419286Y-920000D01*
X1447857Y-905714D01*
X1490714Y-905714D01*
X1519286Y-920000D01*
X1533571Y-948571D01*
X1533571Y-1105714D01*
X1676428Y-1105714D02*
X1676428Y-905714D01*
X1676428Y-934286D02*
X1690714Y-920000D01*
X1719286Y-905714D01*
X1762143Y-905714D01*
X1790714Y-920000D01*
X1805000Y-948571D01*
X1805000Y-1105714D01*
X1805000Y-948571D02*
X1819286Y-920000D01*
X1847857Y-905714D01*
X1890714Y-905714D01*
X1919286Y-920000D01*
X1933571Y-948571D01*
X1933571Y-1105714D01*
X2519286Y-791429D02*
X2262143Y-1177143D01*
X2905000Y-805714D02*
X2933571Y-805714D01*
X2962143Y-820000D01*
X2976428Y-834286D01*
X2990714Y-862857D01*
X3005000Y-920000D01*
X3005000Y-991429D01*
X2990714Y-1048571D01*
X2976428Y-1077143D01*
X2962143Y-1091429D01*
X2933571Y-1105714D01*
X2905000Y-1105714D01*
X2876428Y-1091429D01*
X2862143Y-1077143D01*
X2847857Y-1048571D01*
X2833571Y-991429D01*
X2833571Y-920000D01*
X2847857Y-862857D01*
X2862143Y-834286D01*
X2876428Y-820000D01*
X2905000Y-805714D01*
X3133571Y-1077143D02*
X3147857Y-1091429D01*
X3133571Y-1105714D01*
X3119286Y-1091429D01*
X3133571Y-1077143D01*
X3133571Y-1105714D01*
X3333571Y-805714D02*
X3362143Y-805714D01*
X3390714Y-820000D01*
X3405000Y-834286D01*
X3419286Y-862857D01*
X3433571Y-920000D01*
X3433571Y-991429D01*
X3419286Y-1048571D01*
X3405000Y-1077143D01*
X3390714Y-1091429D01*
X3362143Y-1105714D01*
X3333571Y-1105714D01*
X3305000Y-1091429D01*
X3290714Y-1077143D01*
X3276428Y-1048571D01*
X3262143Y-991429D01*
X3262143Y-920000D01*
X3276428Y-862857D01*
X3290714Y-834286D01*
X3305000Y-820000D01*
X3333571Y-805714D01*
X3719286Y-1105714D02*
X3547857Y-1105714D01*
X3633571Y-1105714D02*
X3633571Y-805714D01*
X3605000Y-848571D01*
X3576428Y-877143D01*
X3547857Y-891429D01*
X3976428Y-805714D02*
X3919286Y-805714D01*
X3890714Y-820000D01*
X3876428Y-834286D01*
X3847857Y-877143D01*
X3833571Y-934286D01*
X3833571Y-1048571D01*
X3847857Y-1077143D01*
X3862143Y-1091429D01*
X3890714Y-1105714D01*
X3947857Y-1105714D01*
X3976428Y-1091429D01*
X3990714Y-1077143D01*
X4005000Y-1048571D01*
X4005000Y-977143D01*
X3990714Y-948571D01*
X3976428Y-934286D01*
X3947857Y-920000D01*
X3890714Y-920000D01*
X3862143Y-934286D01*
X3847857Y-948571D01*
X3833571Y-977143D01*
X4119286Y-805714D02*
X4119286Y-862857D01*
X4233571Y-805714D02*
X4233571Y-862857D01*
X4676428Y-1220000D02*
X4662143Y-1205714D01*
X4633571Y-1162857D01*
X4619286Y-1134286D01*
X4605000Y-1091429D01*
X4590714Y-1020000D01*
X4590714Y-962857D01*
X4605000Y-891429D01*
X4619286Y-848571D01*
X4633571Y-820000D01*
X4662143Y-777143D01*
X4676428Y-762857D01*
X4776428Y-834286D02*
X4790714Y-820000D01*
X4819286Y-805714D01*
X4890714Y-805714D01*
X4919286Y-820000D01*
X4933571Y-834286D01*
X4947857Y-862857D01*
X4947857Y-891429D01*
X4933571Y-934286D01*
X4762143Y-1105714D01*
X4947857Y-1105714D01*
X5047857Y-805714D02*
X5233571Y-805714D01*
X5133571Y-920000D01*
X5176428Y-920000D01*
X5205000Y-934286D01*
X5219286Y-948571D01*
X5233571Y-977143D01*
X5233571Y-1048571D01*
X5219286Y-1077143D01*
X5205000Y-1091429D01*
X5176428Y-1105714D01*
X5090714Y-1105714D01*
X5062143Y-1091429D01*
X5047857Y-1077143D01*
X5590714Y-1105714D02*
X5590714Y-805714D01*
X5719286Y-1105714D02*
X5719286Y-948571D01*
X5705000Y-920000D01*
X5676428Y-905714D01*
X5633571Y-905714D01*
X5605000Y-920000D01*
X5590714Y-934286D01*
X5905000Y-1105714D02*
X5876428Y-1091429D01*
X5862143Y-1077143D01*
X5847857Y-1048571D01*
X5847857Y-962857D01*
X5862143Y-934286D01*
X5876428Y-920000D01*
X5905000Y-905714D01*
X5947857Y-905714D01*
X5976428Y-920000D01*
X5990714Y-934286D01*
X6005000Y-962857D01*
X6005000Y-1048571D01*
X5990714Y-1077143D01*
X5976428Y-1091429D01*
X5947857Y-1105714D01*
X5905000Y-1105714D01*
X6176428Y-1105714D02*
X6147857Y-1091429D01*
X6133571Y-1062857D01*
X6133571Y-805714D01*
X6405000Y-1091429D02*
X6376428Y-1105714D01*
X6319286Y-1105714D01*
X6290714Y-1091429D01*
X6276428Y-1062857D01*
X6276428Y-948571D01*
X6290714Y-920000D01*
X6319286Y-905714D01*
X6376428Y-905714D01*
X6405000Y-920000D01*
X6419286Y-948571D01*
X6419286Y-977143D01*
X6276428Y-1005714D01*
X6533571Y-1091429D02*
X6562143Y-1105714D01*
X6619286Y-1105714D01*
X6647857Y-1091429D01*
X6662143Y-1062857D01*
X6662143Y-1048571D01*
X6647857Y-1020000D01*
X6619286Y-1005714D01*
X6576428Y-1005714D01*
X6547857Y-991429D01*
X6533571Y-962857D01*
X6533571Y-948571D01*
X6547857Y-920000D01*
X6576428Y-905714D01*
X6619286Y-905714D01*
X6647857Y-920000D01*
X6762143Y-1220000D02*
X6776428Y-1205714D01*
X6805000Y-1162857D01*
X6819286Y-1134286D01*
X6833571Y-1091429D01*
X6847857Y-1020000D01*
X6847857Y-962857D01*
X6833571Y-891429D01*
X6819286Y-848571D01*
X6805000Y-820000D01*
X6776428Y-777143D01*
X6762143Y-762857D01*
X-10000Y-1366000D02*
G75*
G03X-10000Y-1366000I-38000J0D01*
G01*
X333571Y-1201714D02*
X362143Y-1201714D01*
X390714Y-1216000D01*
X405000Y-1230286D01*
X419286Y-1258857D01*
X433571Y-1316000D01*
X433571Y-1387429D01*
X419286Y-1444571D01*
X405000Y-1473143D01*
X390714Y-1487429D01*
X362143Y-1501714D01*
X333571Y-1501714D01*
X305000Y-1487429D01*
X290714Y-1473143D01*
X276428Y-1444571D01*
X262143Y-1387429D01*
X262143Y-1316000D01*
X276428Y-1258857D01*
X290714Y-1230286D01*
X305000Y-1216000D01*
X333571Y-1201714D01*
X562143Y-1473143D02*
X576428Y-1487429D01*
X562143Y-1501714D01*
X547857Y-1487429D01*
X562143Y-1473143D01*
X562143Y-1501714D01*
X676428Y-1201714D02*
X876428Y-1201714D01*
X747857Y-1501714D01*
X1119286Y-1201714D02*
X1062143Y-1201714D01*
X1033571Y-1216000D01*
X1019286Y-1230286D01*
X990714Y-1273143D01*
X976428Y-1330286D01*
X976428Y-1444571D01*
X990714Y-1473143D01*
X1005000Y-1487429D01*
X1033571Y-1501714D01*
X1090714Y-1501714D01*
X1119286Y-1487429D01*
X1133571Y-1473143D01*
X1147857Y-1444571D01*
X1147857Y-1373143D01*
X1133571Y-1344572D01*
X1119286Y-1330286D01*
X1090714Y-1316000D01*
X1033571Y-1316000D01*
X1005000Y-1330286D01*
X990714Y-1344572D01*
X976428Y-1373143D01*
X1276428Y-1501714D02*
X1276428Y-1301714D01*
X1276428Y-1330286D02*
X1290714Y-1316000D01*
X1319286Y-1301714D01*
X1362143Y-1301714D01*
X1390714Y-1316000D01*
X1405000Y-1344572D01*
X1405000Y-1501714D01*
X1405000Y-1344572D02*
X1419286Y-1316000D01*
X1447857Y-1301714D01*
X1490714Y-1301714D01*
X1519286Y-1316000D01*
X1533571Y-1344572D01*
X1533571Y-1501714D01*
X1676428Y-1501714D02*
X1676428Y-1301714D01*
X1676428Y-1330286D02*
X1690714Y-1316000D01*
X1719286Y-1301714D01*
X1762143Y-1301714D01*
X1790714Y-1316000D01*
X1805000Y-1344572D01*
X1805000Y-1501714D01*
X1805000Y-1344572D02*
X1819286Y-1316000D01*
X1847857Y-1301714D01*
X1890714Y-1301714D01*
X1919286Y-1316000D01*
X1933571Y-1344572D01*
X1933571Y-1501714D01*
X2519286Y-1187429D02*
X2262143Y-1573143D01*
X2905000Y-1201714D02*
X2933571Y-1201714D01*
X2962143Y-1216000D01*
X2976428Y-1230286D01*
X2990714Y-1258857D01*
X3005000Y-1316000D01*
X3005000Y-1387429D01*
X2990714Y-1444571D01*
X2976428Y-1473143D01*
X2962143Y-1487429D01*
X2933571Y-1501714D01*
X2905000Y-1501714D01*
X2876428Y-1487429D01*
X2862143Y-1473143D01*
X2847857Y-1444571D01*
X2833571Y-1387429D01*
X2833571Y-1316000D01*
X2847857Y-1258857D01*
X2862143Y-1230286D01*
X2876428Y-1216000D01*
X2905000Y-1201714D01*
X3133571Y-1473143D02*
X3147857Y-1487429D01*
X3133571Y-1501714D01*
X3119286Y-1487429D01*
X3133571Y-1473143D01*
X3133571Y-1501714D01*
X3333571Y-1201714D02*
X3362143Y-1201714D01*
X3390714Y-1216000D01*
X3405000Y-1230286D01*
X3419286Y-1258857D01*
X3433571Y-1316000D01*
X3433571Y-1387429D01*
X3419286Y-1444571D01*
X3405000Y-1473143D01*
X3390714Y-1487429D01*
X3362143Y-1501714D01*
X3333571Y-1501714D01*
X3305000Y-1487429D01*
X3290714Y-1473143D01*
X3276428Y-1444571D01*
X3262143Y-1387429D01*
X3262143Y-1316000D01*
X3276428Y-1258857D01*
X3290714Y-1230286D01*
X3305000Y-1216000D01*
X3333571Y-1201714D01*
X3533571Y-1201714D02*
X3719286Y-1201714D01*
X3619286Y-1316000D01*
X3662143Y-1316000D01*
X3690714Y-1330286D01*
X3705000Y-1344572D01*
X3719286Y-1373143D01*
X3719286Y-1444571D01*
X3705000Y-1473143D01*
X3690714Y-1487429D01*
X3662143Y-1501714D01*
X3576428Y-1501714D01*
X3547857Y-1487429D01*
X3533571Y-1473143D01*
X3905000Y-1201714D02*
X3933571Y-1201714D01*
X3962143Y-1216000D01*
X3976428Y-1230286D01*
X3990714Y-1258857D01*
X4005000Y-1316000D01*
X4005000Y-1387429D01*
X3990714Y-1444571D01*
X3976428Y-1473143D01*
X3962143Y-1487429D01*
X3933571Y-1501714D01*
X3905000Y-1501714D01*
X3876428Y-1487429D01*
X3862143Y-1473143D01*
X3847857Y-1444571D01*
X3833571Y-1387429D01*
X3833571Y-1316000D01*
X3847857Y-1258857D01*
X3862143Y-1230286D01*
X3876428Y-1216000D01*
X3905000Y-1201714D01*
X4119286Y-1201714D02*
X4119286Y-1258857D01*
X4233571Y-1201714D02*
X4233571Y-1258857D01*
X4676428Y-1616000D02*
X4662143Y-1601714D01*
X4633571Y-1558857D01*
X4619286Y-1530286D01*
X4605000Y-1487429D01*
X4590714Y-1416000D01*
X4590714Y-1358857D01*
X4605000Y-1287429D01*
X4619286Y-1244572D01*
X4633571Y-1216000D01*
X4662143Y-1173143D01*
X4676428Y-1158857D01*
X4833571Y-1330286D02*
X4805000Y-1316000D01*
X4790714Y-1301714D01*
X4776428Y-1273143D01*
X4776428Y-1258857D01*
X4790714Y-1230286D01*
X4805000Y-1216000D01*
X4833571Y-1201714D01*
X4890714Y-1201714D01*
X4919286Y-1216000D01*
X4933571Y-1230286D01*
X4947857Y-1258857D01*
X4947857Y-1273143D01*
X4933571Y-1301714D01*
X4919286Y-1316000D01*
X4890714Y-1330286D01*
X4833571Y-1330286D01*
X4805000Y-1344572D01*
X4790714Y-1358857D01*
X4776428Y-1387429D01*
X4776428Y-1444571D01*
X4790714Y-1473143D01*
X4805000Y-1487429D01*
X4833571Y-1501714D01*
X4890714Y-1501714D01*
X4919286Y-1487429D01*
X4933571Y-1473143D01*
X4947857Y-1444571D01*
X4947857Y-1387429D01*
X4933571Y-1358857D01*
X4919286Y-1344572D01*
X4890714Y-1330286D01*
X5305000Y-1501714D02*
X5305000Y-1201714D01*
X5433571Y-1501714D02*
X5433571Y-1344572D01*
X5419286Y-1316000D01*
X5390714Y-1301714D01*
X5347857Y-1301714D01*
X5319286Y-1316000D01*
X5305000Y-1330286D01*
X5619286Y-1501714D02*
X5590714Y-1487429D01*
X5576428Y-1473143D01*
X5562143Y-1444571D01*
X5562143Y-1358857D01*
X5576428Y-1330286D01*
X5590714Y-1316000D01*
X5619286Y-1301714D01*
X5662143Y-1301714D01*
X5690714Y-1316000D01*
X5705000Y-1330286D01*
X5719286Y-1358857D01*
X5719286Y-1444571D01*
X5705000Y-1473143D01*
X5690714Y-1487429D01*
X5662143Y-1501714D01*
X5619286Y-1501714D01*
X5890714Y-1501714D02*
X5862143Y-1487429D01*
X5847857Y-1458857D01*
X5847857Y-1201714D01*
X6119286Y-1487429D02*
X6090714Y-1501714D01*
X6033571Y-1501714D01*
X6005000Y-1487429D01*
X5990714Y-1458857D01*
X5990714Y-1344572D01*
X6005000Y-1316000D01*
X6033571Y-1301714D01*
X6090714Y-1301714D01*
X6119286Y-1316000D01*
X6133571Y-1344572D01*
X6133571Y-1373143D01*
X5990714Y-1401714D01*
X6247857Y-1487429D02*
X6276428Y-1501714D01*
X6333571Y-1501714D01*
X6362143Y-1487429D01*
X6376428Y-1458857D01*
X6376428Y-1444571D01*
X6362143Y-1416000D01*
X6333571Y-1401714D01*
X6290714Y-1401714D01*
X6262143Y-1387429D01*
X6247857Y-1358857D01*
X6247857Y-1344572D01*
X6262143Y-1316000D01*
X6290714Y-1301714D01*
X6333571Y-1301714D01*
X6362143Y-1316000D01*
X6476428Y-1616000D02*
X6490714Y-1601714D01*
X6519286Y-1558857D01*
X6533571Y-1530286D01*
X6547857Y-1487429D01*
X6562143Y-1416000D01*
X6562143Y-1358857D01*
X6547857Y-1287429D01*
X6533571Y-1244572D01*
X6519286Y-1216000D01*
X6490714Y-1173143D01*
X6476428Y-1158857D01*
X-48100Y-1723900D02*
X-48100Y-1800100D01*
X-86200Y-1762000D02*
X-10000Y-1762000D01*
X333571Y-1597714D02*
X362143Y-1597714D01*
X390714Y-1612000D01*
X405000Y-1626286D01*
X419286Y-1654857D01*
X433571Y-1712000D01*
X433571Y-1783429D01*
X419286Y-1840571D01*
X405000Y-1869143D01*
X390714Y-1883429D01*
X362143Y-1897714D01*
X333571Y-1897714D01*
X305000Y-1883429D01*
X290714Y-1869143D01*
X276428Y-1840571D01*
X262143Y-1783429D01*
X262143Y-1712000D01*
X276428Y-1654857D01*
X290714Y-1626286D01*
X305000Y-1612000D01*
X333571Y-1597714D01*
X562143Y-1869143D02*
X576428Y-1883429D01*
X562143Y-1897714D01*
X547857Y-1883429D01*
X562143Y-1869143D01*
X562143Y-1897714D01*
X676428Y-1597714D02*
X876428Y-1597714D01*
X747857Y-1897714D01*
X1119286Y-1597714D02*
X1062143Y-1597714D01*
X1033571Y-1612000D01*
X1019286Y-1626286D01*
X990714Y-1669143D01*
X976428Y-1726286D01*
X976428Y-1840571D01*
X990714Y-1869143D01*
X1005000Y-1883429D01*
X1033571Y-1897714D01*
X1090714Y-1897714D01*
X1119286Y-1883429D01*
X1133571Y-1869143D01*
X1147857Y-1840571D01*
X1147857Y-1769143D01*
X1133571Y-1740571D01*
X1119286Y-1726286D01*
X1090714Y-1712000D01*
X1033571Y-1712000D01*
X1005000Y-1726286D01*
X990714Y-1740571D01*
X976428Y-1769143D01*
X1276428Y-1897714D02*
X1276428Y-1697714D01*
X1276428Y-1726286D02*
X1290714Y-1712000D01*
X1319286Y-1697714D01*
X1362143Y-1697714D01*
X1390714Y-1712000D01*
X1405000Y-1740571D01*
X1405000Y-1897714D01*
X1405000Y-1740571D02*
X1419286Y-1712000D01*
X1447857Y-1697714D01*
X1490714Y-1697714D01*
X1519286Y-1712000D01*
X1533571Y-1740571D01*
X1533571Y-1897714D01*
X1676428Y-1897714D02*
X1676428Y-1697714D01*
X1676428Y-1726286D02*
X1690714Y-1712000D01*
X1719286Y-1697714D01*
X1762143Y-1697714D01*
X1790714Y-1712000D01*
X1805000Y-1740571D01*
X1805000Y-1897714D01*
X1805000Y-1740571D02*
X1819286Y-1712000D01*
X1847857Y-1697714D01*
X1890714Y-1697714D01*
X1919286Y-1712000D01*
X1933571Y-1740571D01*
X1933571Y-1897714D01*
X2519286Y-1583429D02*
X2262143Y-1969143D01*
X2905000Y-1597714D02*
X2933571Y-1597714D01*
X2962143Y-1612000D01*
X2976428Y-1626286D01*
X2990714Y-1654857D01*
X3005000Y-1712000D01*
X3005000Y-1783429D01*
X2990714Y-1840571D01*
X2976428Y-1869143D01*
X2962143Y-1883429D01*
X2933571Y-1897714D01*
X2905000Y-1897714D01*
X2876428Y-1883429D01*
X2862143Y-1869143D01*
X2847857Y-1840571D01*
X2833571Y-1783429D01*
X2833571Y-1712000D01*
X2847857Y-1654857D01*
X2862143Y-1626286D01*
X2876428Y-1612000D01*
X2905000Y-1597714D01*
X3133571Y-1869143D02*
X3147857Y-1883429D01*
X3133571Y-1897714D01*
X3119286Y-1883429D01*
X3133571Y-1869143D01*
X3133571Y-1897714D01*
X3333571Y-1597714D02*
X3362143Y-1597714D01*
X3390714Y-1612000D01*
X3405000Y-1626286D01*
X3419286Y-1654857D01*
X3433571Y-1712000D01*
X3433571Y-1783429D01*
X3419286Y-1840571D01*
X3405000Y-1869143D01*
X3390714Y-1883429D01*
X3362143Y-1897714D01*
X3333571Y-1897714D01*
X3305000Y-1883429D01*
X3290714Y-1869143D01*
X3276428Y-1840571D01*
X3262143Y-1783429D01*
X3262143Y-1712000D01*
X3276428Y-1654857D01*
X3290714Y-1626286D01*
X3305000Y-1612000D01*
X3333571Y-1597714D01*
X3533571Y-1597714D02*
X3719286Y-1597714D01*
X3619286Y-1712000D01*
X3662143Y-1712000D01*
X3690714Y-1726286D01*
X3705000Y-1740571D01*
X3719286Y-1769143D01*
X3719286Y-1840571D01*
X3705000Y-1869143D01*
X3690714Y-1883429D01*
X3662143Y-1897714D01*
X3576428Y-1897714D01*
X3547857Y-1883429D01*
X3533571Y-1869143D01*
X3905000Y-1597714D02*
X3933571Y-1597714D01*
X3962143Y-1612000D01*
X3976428Y-1626286D01*
X3990714Y-1654857D01*
X4005000Y-1712000D01*
X4005000Y-1783429D01*
X3990714Y-1840571D01*
X3976428Y-1869143D01*
X3962143Y-1883429D01*
X3933571Y-1897714D01*
X3905000Y-1897714D01*
X3876428Y-1883429D01*
X3862143Y-1869143D01*
X3847857Y-1840571D01*
X3833571Y-1783429D01*
X3833571Y-1712000D01*
X3847857Y-1654857D01*
X3862143Y-1626286D01*
X3876428Y-1612000D01*
X3905000Y-1597714D01*
X4119286Y-1597714D02*
X4119286Y-1654857D01*
X4233571Y-1597714D02*
X4233571Y-1654857D01*
X4676428Y-2012000D02*
X4662143Y-1997714D01*
X4633571Y-1954857D01*
X4619286Y-1926286D01*
X4605000Y-1883429D01*
X4590714Y-1812000D01*
X4590714Y-1754857D01*
X4605000Y-1683429D01*
X4619286Y-1640571D01*
X4633571Y-1612000D01*
X4662143Y-1569143D01*
X4676428Y-1554857D01*
X4933571Y-1597714D02*
X4790714Y-1597714D01*
X4776428Y-1740571D01*
X4790714Y-1726286D01*
X4819286Y-1712000D01*
X4890714Y-1712000D01*
X4919286Y-1726286D01*
X4933571Y-1740571D01*
X4947857Y-1769143D01*
X4947857Y-1840571D01*
X4933571Y-1869143D01*
X4919286Y-1883429D01*
X4890714Y-1897714D01*
X4819286Y-1897714D01*
X4790714Y-1883429D01*
X4776428Y-1869143D01*
X5305000Y-1897714D02*
X5305000Y-1597714D01*
X5433571Y-1897714D02*
X5433571Y-1740571D01*
X5419286Y-1712000D01*
X5390714Y-1697714D01*
X5347857Y-1697714D01*
X5319286Y-1712000D01*
X5305000Y-1726286D01*
X5619286Y-1897714D02*
X5590714Y-1883429D01*
X5576428Y-1869143D01*
X5562143Y-1840571D01*
X5562143Y-1754857D01*
X5576428Y-1726286D01*
X5590714Y-1712000D01*
X5619286Y-1697714D01*
X5662143Y-1697714D01*
X5690714Y-1712000D01*
X5705000Y-1726286D01*
X5719286Y-1754857D01*
X5719286Y-1840571D01*
X5705000Y-1869143D01*
X5690714Y-1883429D01*
X5662143Y-1897714D01*
X5619286Y-1897714D01*
X5890714Y-1897714D02*
X5862143Y-1883429D01*
X5847857Y-1854857D01*
X5847857Y-1597714D01*
X6119286Y-1883429D02*
X6090714Y-1897714D01*
X6033571Y-1897714D01*
X6005000Y-1883429D01*
X5990714Y-1854857D01*
X5990714Y-1740571D01*
X6005000Y-1712000D01*
X6033571Y-1697714D01*
X6090714Y-1697714D01*
X6119286Y-1712000D01*
X6133571Y-1740571D01*
X6133571Y-1769143D01*
X5990714Y-1797714D01*
X6247857Y-1883429D02*
X6276428Y-1897714D01*
X6333571Y-1897714D01*
X6362143Y-1883429D01*
X6376428Y-1854857D01*
X6376428Y-1840571D01*
X6362143Y-1812000D01*
X6333571Y-1797714D01*
X6290714Y-1797714D01*
X6262143Y-1783429D01*
X6247857Y-1754857D01*
X6247857Y-1740571D01*
X6262143Y-1712000D01*
X6290714Y-1697714D01*
X6333571Y-1697714D01*
X6362143Y-1712000D01*
X6476428Y-2012000D02*
X6490714Y-1997714D01*
X6519286Y-1954857D01*
X6533571Y-1926286D01*
X6547857Y-1883429D01*
X6562143Y-1812000D01*
X6562143Y-1754857D01*
X6547857Y-1683429D01*
X6533571Y-1640571D01*
X6519286Y-1612000D01*
X6490714Y-1569143D01*
X6476428Y-1554857D01*
X-24644Y-2193356D02*
X-24644Y-2122644D01*
X-95356Y-2122644D01*
X-95356Y-2193356D01*
X-24644Y-2193356D01*
X433571Y-2293714D02*
X262143Y-2293714D01*
X347857Y-2293714D02*
X347857Y-1993714D01*
X319286Y-2036571D01*
X290714Y-2065143D01*
X262143Y-2079429D01*
X562143Y-2265143D02*
X576428Y-2279429D01*
X562143Y-2293714D01*
X547857Y-2279429D01*
X562143Y-2265143D01*
X562143Y-2293714D01*
X762143Y-1993714D02*
X790714Y-1993714D01*
X819286Y-2008000D01*
X833571Y-2022286D01*
X847857Y-2050857D01*
X862143Y-2108000D01*
X862143Y-2179429D01*
X847857Y-2236572D01*
X833571Y-2265143D01*
X819286Y-2279429D01*
X790714Y-2293714D01*
X762143Y-2293714D01*
X733571Y-2279429D01*
X719286Y-2265143D01*
X705000Y-2236572D01*
X690714Y-2179429D01*
X690714Y-2108000D01*
X705000Y-2050857D01*
X719286Y-2022286D01*
X733571Y-2008000D01*
X762143Y-1993714D01*
X1047857Y-1993714D02*
X1076428Y-1993714D01*
X1105000Y-2008000D01*
X1119286Y-2022286D01*
X1133571Y-2050857D01*
X1147857Y-2108000D01*
X1147857Y-2179429D01*
X1133571Y-2236572D01*
X1119286Y-2265143D01*
X1105000Y-2279429D01*
X1076428Y-2293714D01*
X1047857Y-2293714D01*
X1019286Y-2279429D01*
X1005000Y-2265143D01*
X990714Y-2236572D01*
X976428Y-2179429D01*
X976428Y-2108000D01*
X990714Y-2050857D01*
X1005000Y-2022286D01*
X1019286Y-2008000D01*
X1047857Y-1993714D01*
X1276428Y-2293714D02*
X1276428Y-2093714D01*
X1276428Y-2122286D02*
X1290714Y-2108000D01*
X1319286Y-2093714D01*
X1362143Y-2093714D01*
X1390714Y-2108000D01*
X1405000Y-2136572D01*
X1405000Y-2293714D01*
X1405000Y-2136572D02*
X1419286Y-2108000D01*
X1447857Y-2093714D01*
X1490714Y-2093714D01*
X1519286Y-2108000D01*
X1533571Y-2136572D01*
X1533571Y-2293714D01*
X1676428Y-2293714D02*
X1676428Y-2093714D01*
X1676428Y-2122286D02*
X1690714Y-2108000D01*
X1719286Y-2093714D01*
X1762143Y-2093714D01*
X1790714Y-2108000D01*
X1805000Y-2136572D01*
X1805000Y-2293714D01*
X1805000Y-2136572D02*
X1819286Y-2108000D01*
X1847857Y-2093714D01*
X1890714Y-2093714D01*
X1919286Y-2108000D01*
X1933571Y-2136572D01*
X1933571Y-2293714D01*
X2519286Y-1979429D02*
X2262143Y-2365143D01*
X2905000Y-1993714D02*
X2933571Y-1993714D01*
X2962143Y-2008000D01*
X2976428Y-2022286D01*
X2990714Y-2050857D01*
X3005000Y-2108000D01*
X3005000Y-2179429D01*
X2990714Y-2236572D01*
X2976428Y-2265143D01*
X2962143Y-2279429D01*
X2933571Y-2293714D01*
X2905000Y-2293714D01*
X2876428Y-2279429D01*
X2862143Y-2265143D01*
X2847857Y-2236572D01*
X2833571Y-2179429D01*
X2833571Y-2108000D01*
X2847857Y-2050857D01*
X2862143Y-2022286D01*
X2876428Y-2008000D01*
X2905000Y-1993714D01*
X3133571Y-2265143D02*
X3147857Y-2279429D01*
X3133571Y-2293714D01*
X3119286Y-2279429D01*
X3133571Y-2265143D01*
X3133571Y-2293714D01*
X3333571Y-1993714D02*
X3362143Y-1993714D01*
X3390714Y-2008000D01*
X3405000Y-2022286D01*
X3419286Y-2050857D01*
X3433571Y-2108000D01*
X3433571Y-2179429D01*
X3419286Y-2236572D01*
X3405000Y-2265143D01*
X3390714Y-2279429D01*
X3362143Y-2293714D01*
X3333571Y-2293714D01*
X3305000Y-2279429D01*
X3290714Y-2265143D01*
X3276428Y-2236572D01*
X3262143Y-2179429D01*
X3262143Y-2108000D01*
X3276428Y-2050857D01*
X3290714Y-2022286D01*
X3305000Y-2008000D01*
X3333571Y-1993714D01*
X3533571Y-1993714D02*
X3719286Y-1993714D01*
X3619286Y-2108000D01*
X3662143Y-2108000D01*
X3690714Y-2122286D01*
X3705000Y-2136572D01*
X3719286Y-2165143D01*
X3719286Y-2236572D01*
X3705000Y-2265143D01*
X3690714Y-2279429D01*
X3662143Y-2293714D01*
X3576428Y-2293714D01*
X3547857Y-2279429D01*
X3533571Y-2265143D01*
X3862143Y-2293714D02*
X3919286Y-2293714D01*
X3947857Y-2279429D01*
X3962143Y-2265143D01*
X3990714Y-2222286D01*
X4005000Y-2165143D01*
X4005000Y-2050857D01*
X3990714Y-2022286D01*
X3976428Y-2008000D01*
X3947857Y-1993714D01*
X3890714Y-1993714D01*
X3862143Y-2008000D01*
X3847857Y-2022286D01*
X3833571Y-2050857D01*
X3833571Y-2122286D01*
X3847857Y-2150857D01*
X3862143Y-2165143D01*
X3890714Y-2179429D01*
X3947857Y-2179429D01*
X3976428Y-2165143D01*
X3990714Y-2150857D01*
X4005000Y-2122286D01*
X4119286Y-1993714D02*
X4119286Y-2050857D01*
X4233571Y-1993714D02*
X4233571Y-2050857D01*
X4676428Y-2408000D02*
X4662143Y-2393714D01*
X4633571Y-2350857D01*
X4619286Y-2322286D01*
X4605000Y-2279429D01*
X4590714Y-2208000D01*
X4590714Y-2150857D01*
X4605000Y-2079429D01*
X4619286Y-2036571D01*
X4633571Y-2008000D01*
X4662143Y-1965143D01*
X4676428Y-1950857D01*
X4919286Y-2093714D02*
X4919286Y-2293714D01*
X4847857Y-1979429D02*
X4776428Y-2193714D01*
X4962143Y-2193714D01*
X5305000Y-2293714D02*
X5305000Y-1993714D01*
X5433571Y-2293714D02*
X5433571Y-2136572D01*
X5419286Y-2108000D01*
X5390714Y-2093714D01*
X5347857Y-2093714D01*
X5319286Y-2108000D01*
X5305000Y-2122286D01*
X5619286Y-2293714D02*
X5590714Y-2279429D01*
X5576428Y-2265143D01*
X5562143Y-2236572D01*
X5562143Y-2150857D01*
X5576428Y-2122286D01*
X5590714Y-2108000D01*
X5619286Y-2093714D01*
X5662143Y-2093714D01*
X5690714Y-2108000D01*
X5705000Y-2122286D01*
X5719286Y-2150857D01*
X5719286Y-2236572D01*
X5705000Y-2265143D01*
X5690714Y-2279429D01*
X5662143Y-2293714D01*
X5619286Y-2293714D01*
X5890714Y-2293714D02*
X5862143Y-2279429D01*
X5847857Y-2250857D01*
X5847857Y-1993714D01*
X6119286Y-2279429D02*
X6090714Y-2293714D01*
X6033571Y-2293714D01*
X6005000Y-2279429D01*
X5990714Y-2250857D01*
X5990714Y-2136572D01*
X6005000Y-2108000D01*
X6033571Y-2093714D01*
X6090714Y-2093714D01*
X6119286Y-2108000D01*
X6133571Y-2136572D01*
X6133571Y-2165143D01*
X5990714Y-2193714D01*
X6247857Y-2279429D02*
X6276428Y-2293714D01*
X6333571Y-2293714D01*
X6362143Y-2279429D01*
X6376428Y-2250857D01*
X6376428Y-2236572D01*
X6362143Y-2208000D01*
X6333571Y-2193714D01*
X6290714Y-2193714D01*
X6262143Y-2179429D01*
X6247857Y-2150857D01*
X6247857Y-2136572D01*
X6262143Y-2108000D01*
X6290714Y-2093714D01*
X6333571Y-2093714D01*
X6362143Y-2108000D01*
X6476428Y-2408000D02*
X6490714Y-2393714D01*
X6519286Y-2350857D01*
X6533571Y-2322286D01*
X6547857Y-2279429D01*
X6562143Y-2208000D01*
X6562143Y-2150857D01*
X6547857Y-2079429D01*
X6533571Y-2036571D01*
X6519286Y-2008000D01*
X6490714Y-1965143D01*
X6476428Y-1950857D01*
X-75000Y-2619000D02*
X-10000Y-2554000D01*
X-75000Y-2489000D01*
X-140000Y-2554000D01*
X-75000Y-2619000D01*
X433571Y-2689714D02*
X262143Y-2689714D01*
X347857Y-2689714D02*
X347857Y-2389714D01*
X319286Y-2432572D01*
X290714Y-2461143D01*
X262143Y-2475429D01*
X562143Y-2661143D02*
X576428Y-2675429D01*
X562143Y-2689714D01*
X547857Y-2675429D01*
X562143Y-2661143D01*
X562143Y-2689714D01*
X676428Y-2389714D02*
X862143Y-2389714D01*
X762143Y-2504000D01*
X805000Y-2504000D01*
X833571Y-2518286D01*
X847857Y-2532572D01*
X862143Y-2561143D01*
X862143Y-2632572D01*
X847857Y-2661143D01*
X833571Y-2675429D01*
X805000Y-2689714D01*
X719286Y-2689714D01*
X690714Y-2675429D01*
X676428Y-2661143D01*
X1047857Y-2389714D02*
X1076428Y-2389714D01*
X1105000Y-2404000D01*
X1119286Y-2418286D01*
X1133571Y-2446857D01*
X1147857Y-2504000D01*
X1147857Y-2575429D01*
X1133571Y-2632572D01*
X1119286Y-2661143D01*
X1105000Y-2675429D01*
X1076428Y-2689714D01*
X1047857Y-2689714D01*
X1019286Y-2675429D01*
X1005000Y-2661143D01*
X990714Y-2632572D01*
X976428Y-2575429D01*
X976428Y-2504000D01*
X990714Y-2446857D01*
X1005000Y-2418286D01*
X1019286Y-2404000D01*
X1047857Y-2389714D01*
X1276428Y-2689714D02*
X1276428Y-2489714D01*
X1276428Y-2518286D02*
X1290714Y-2504000D01*
X1319286Y-2489714D01*
X1362143Y-2489714D01*
X1390714Y-2504000D01*
X1405000Y-2532572D01*
X1405000Y-2689714D01*
X1405000Y-2532572D02*
X1419286Y-2504000D01*
X1447857Y-2489714D01*
X1490714Y-2489714D01*
X1519286Y-2504000D01*
X1533571Y-2532572D01*
X1533571Y-2689714D01*
X1676428Y-2689714D02*
X1676428Y-2489714D01*
X1676428Y-2518286D02*
X1690714Y-2504000D01*
X1719286Y-2489714D01*
X1762143Y-2489714D01*
X1790714Y-2504000D01*
X1805000Y-2532572D01*
X1805000Y-2689714D01*
X1805000Y-2532572D02*
X1819286Y-2504000D01*
X1847857Y-2489714D01*
X1890714Y-2489714D01*
X1919286Y-2504000D01*
X1933571Y-2532572D01*
X1933571Y-2689714D01*
X2519286Y-2375429D02*
X2262143Y-2761143D01*
X2905000Y-2389714D02*
X2933571Y-2389714D01*
X2962143Y-2404000D01*
X2976428Y-2418286D01*
X2990714Y-2446857D01*
X3005000Y-2504000D01*
X3005000Y-2575429D01*
X2990714Y-2632572D01*
X2976428Y-2661143D01*
X2962143Y-2675429D01*
X2933571Y-2689714D01*
X2905000Y-2689714D01*
X2876428Y-2675429D01*
X2862143Y-2661143D01*
X2847857Y-2632572D01*
X2833571Y-2575429D01*
X2833571Y-2504000D01*
X2847857Y-2446857D01*
X2862143Y-2418286D01*
X2876428Y-2404000D01*
X2905000Y-2389714D01*
X3133571Y-2661143D02*
X3147857Y-2675429D01*
X3133571Y-2689714D01*
X3119286Y-2675429D01*
X3133571Y-2661143D01*
X3133571Y-2689714D01*
X3333571Y-2389714D02*
X3362143Y-2389714D01*
X3390714Y-2404000D01*
X3405000Y-2418286D01*
X3419286Y-2446857D01*
X3433571Y-2504000D01*
X3433571Y-2575429D01*
X3419286Y-2632572D01*
X3405000Y-2661143D01*
X3390714Y-2675429D01*
X3362143Y-2689714D01*
X3333571Y-2689714D01*
X3305000Y-2675429D01*
X3290714Y-2661143D01*
X3276428Y-2632572D01*
X3262143Y-2575429D01*
X3262143Y-2504000D01*
X3276428Y-2446857D01*
X3290714Y-2418286D01*
X3305000Y-2404000D01*
X3333571Y-2389714D01*
X3705000Y-2389714D02*
X3562143Y-2389714D01*
X3547857Y-2532572D01*
X3562143Y-2518286D01*
X3590714Y-2504000D01*
X3662143Y-2504000D01*
X3690714Y-2518286D01*
X3705000Y-2532572D01*
X3719286Y-2561143D01*
X3719286Y-2632572D01*
X3705000Y-2661143D01*
X3690714Y-2675429D01*
X3662143Y-2689714D01*
X3590714Y-2689714D01*
X3562143Y-2675429D01*
X3547857Y-2661143D01*
X4005000Y-2689714D02*
X3833571Y-2689714D01*
X3919286Y-2689714D02*
X3919286Y-2389714D01*
X3890714Y-2432572D01*
X3862143Y-2461143D01*
X3833571Y-2475429D01*
X4119286Y-2389714D02*
X4119286Y-2446857D01*
X4233571Y-2389714D02*
X4233571Y-2446857D01*
X4676428Y-2804000D02*
X4662143Y-2789714D01*
X4633571Y-2746857D01*
X4619286Y-2718286D01*
X4605000Y-2675429D01*
X4590714Y-2604000D01*
X4590714Y-2546857D01*
X4605000Y-2475429D01*
X4619286Y-2432572D01*
X4633571Y-2404000D01*
X4662143Y-2361143D01*
X4676428Y-2346857D01*
X4833571Y-2518286D02*
X4805000Y-2504000D01*
X4790714Y-2489714D01*
X4776428Y-2461143D01*
X4776428Y-2446857D01*
X4790714Y-2418286D01*
X4805000Y-2404000D01*
X4833571Y-2389714D01*
X4890714Y-2389714D01*
X4919286Y-2404000D01*
X4933571Y-2418286D01*
X4947857Y-2446857D01*
X4947857Y-2461143D01*
X4933571Y-2489714D01*
X4919286Y-2504000D01*
X4890714Y-2518286D01*
X4833571Y-2518286D01*
X4805000Y-2532572D01*
X4790714Y-2546857D01*
X4776428Y-2575429D01*
X4776428Y-2632572D01*
X4790714Y-2661143D01*
X4805000Y-2675429D01*
X4833571Y-2689714D01*
X4890714Y-2689714D01*
X4919286Y-2675429D01*
X4933571Y-2661143D01*
X4947857Y-2632572D01*
X4947857Y-2575429D01*
X4933571Y-2546857D01*
X4919286Y-2532572D01*
X4890714Y-2518286D01*
X5305000Y-2689714D02*
X5305000Y-2389714D01*
X5433571Y-2689714D02*
X5433571Y-2532572D01*
X5419286Y-2504000D01*
X5390714Y-2489714D01*
X5347857Y-2489714D01*
X5319286Y-2504000D01*
X5305000Y-2518286D01*
X5619286Y-2689714D02*
X5590714Y-2675429D01*
X5576428Y-2661143D01*
X5562143Y-2632572D01*
X5562143Y-2546857D01*
X5576428Y-2518286D01*
X5590714Y-2504000D01*
X5619286Y-2489714D01*
X5662143Y-2489714D01*
X5690714Y-2504000D01*
X5705000Y-2518286D01*
X5719286Y-2546857D01*
X5719286Y-2632572D01*
X5705000Y-2661143D01*
X5690714Y-2675429D01*
X5662143Y-2689714D01*
X5619286Y-2689714D01*
X5890714Y-2689714D02*
X5862143Y-2675429D01*
X5847857Y-2646857D01*
X5847857Y-2389714D01*
X6119286Y-2675429D02*
X6090714Y-2689714D01*
X6033571Y-2689714D01*
X6005000Y-2675429D01*
X5990714Y-2646857D01*
X5990714Y-2532572D01*
X6005000Y-2504000D01*
X6033571Y-2489714D01*
X6090714Y-2489714D01*
X6119286Y-2504000D01*
X6133571Y-2532572D01*
X6133571Y-2561143D01*
X5990714Y-2589714D01*
X6247857Y-2675429D02*
X6276428Y-2689714D01*
X6333571Y-2689714D01*
X6362143Y-2675429D01*
X6376428Y-2646857D01*
X6376428Y-2632572D01*
X6362143Y-2604000D01*
X6333571Y-2589714D01*
X6290714Y-2589714D01*
X6262143Y-2575429D01*
X6247857Y-2546857D01*
X6247857Y-2532572D01*
X6262143Y-2504000D01*
X6290714Y-2489714D01*
X6333571Y-2489714D01*
X6362143Y-2504000D01*
X6476428Y-2804000D02*
X6490714Y-2789714D01*
X6519286Y-2746857D01*
X6533571Y-2718286D01*
X6547857Y-2675429D01*
X6562143Y-2604000D01*
X6562143Y-2546857D01*
X6547857Y-2475429D01*
X6533571Y-2432572D01*
X6519286Y-2404000D01*
X6490714Y-2361143D01*
X6476428Y-2346857D01*
X-160000Y-2875000D02*
X-10000Y-3025000D01*
X-10000Y-2875000D02*
X-160000Y-3025000D01*
X-10000Y-2950000D02*
G75*
G03X-10000Y-2950000I-75000J0D01*
G01*
X433571Y-3085714D02*
X262143Y-3085714D01*
X347857Y-3085714D02*
X347857Y-2785714D01*
X319286Y-2828571D01*
X290714Y-2857143D01*
X262143Y-2871429D01*
X562143Y-3057143D02*
X576428Y-3071429D01*
X562143Y-3085714D01*
X547857Y-3071429D01*
X562143Y-3057143D01*
X562143Y-3085714D01*
X847857Y-2785714D02*
X705000Y-2785714D01*
X690714Y-2928571D01*
X705000Y-2914286D01*
X733571Y-2900000D01*
X805000Y-2900000D01*
X833571Y-2914286D01*
X847857Y-2928571D01*
X862143Y-2957143D01*
X862143Y-3028571D01*
X847857Y-3057143D01*
X833571Y-3071429D01*
X805000Y-3085714D01*
X733571Y-3085714D01*
X705000Y-3071429D01*
X690714Y-3057143D01*
X1047857Y-2785714D02*
X1076428Y-2785714D01*
X1105000Y-2800000D01*
X1119286Y-2814286D01*
X1133571Y-2842857D01*
X1147857Y-2900000D01*
X1147857Y-2971429D01*
X1133571Y-3028571D01*
X1119286Y-3057143D01*
X1105000Y-3071429D01*
X1076428Y-3085714D01*
X1047857Y-3085714D01*
X1019286Y-3071429D01*
X1005000Y-3057143D01*
X990714Y-3028571D01*
X976428Y-2971429D01*
X976428Y-2900000D01*
X990714Y-2842857D01*
X1005000Y-2814286D01*
X1019286Y-2800000D01*
X1047857Y-2785714D01*
X1276428Y-3085714D02*
X1276428Y-2885714D01*
X1276428Y-2914286D02*
X1290714Y-2900000D01*
X1319286Y-2885714D01*
X1362143Y-2885714D01*
X1390714Y-2900000D01*
X1405000Y-2928571D01*
X1405000Y-3085714D01*
X1405000Y-2928571D02*
X1419286Y-2900000D01*
X1447857Y-2885714D01*
X1490714Y-2885714D01*
X1519286Y-2900000D01*
X1533571Y-2928571D01*
X1533571Y-3085714D01*
X1676428Y-3085714D02*
X1676428Y-2885714D01*
X1676428Y-2914286D02*
X1690714Y-2900000D01*
X1719286Y-2885714D01*
X1762143Y-2885714D01*
X1790714Y-2900000D01*
X1805000Y-2928571D01*
X1805000Y-3085714D01*
X1805000Y-2928571D02*
X1819286Y-2900000D01*
X1847857Y-2885714D01*
X1890714Y-2885714D01*
X1919286Y-2900000D01*
X1933571Y-2928571D01*
X1933571Y-3085714D01*
X2519286Y-2771429D02*
X2262143Y-3157143D01*
X2905000Y-2785714D02*
X2933571Y-2785714D01*
X2962143Y-2800000D01*
X2976428Y-2814286D01*
X2990714Y-2842857D01*
X3005000Y-2900000D01*
X3005000Y-2971429D01*
X2990714Y-3028571D01*
X2976428Y-3057143D01*
X2962143Y-3071429D01*
X2933571Y-3085714D01*
X2905000Y-3085714D01*
X2876428Y-3071429D01*
X2862143Y-3057143D01*
X2847857Y-3028571D01*
X2833571Y-2971429D01*
X2833571Y-2900000D01*
X2847857Y-2842857D01*
X2862143Y-2814286D01*
X2876428Y-2800000D01*
X2905000Y-2785714D01*
X3133571Y-3057143D02*
X3147857Y-3071429D01*
X3133571Y-3085714D01*
X3119286Y-3071429D01*
X3133571Y-3057143D01*
X3133571Y-3085714D01*
X3333571Y-2785714D02*
X3362143Y-2785714D01*
X3390714Y-2800000D01*
X3405000Y-2814286D01*
X3419286Y-2842857D01*
X3433571Y-2900000D01*
X3433571Y-2971429D01*
X3419286Y-3028571D01*
X3405000Y-3057143D01*
X3390714Y-3071429D01*
X3362143Y-3085714D01*
X3333571Y-3085714D01*
X3305000Y-3071429D01*
X3290714Y-3057143D01*
X3276428Y-3028571D01*
X3262143Y-2971429D01*
X3262143Y-2900000D01*
X3276428Y-2842857D01*
X3290714Y-2814286D01*
X3305000Y-2800000D01*
X3333571Y-2785714D01*
X3705000Y-2785714D02*
X3562143Y-2785714D01*
X3547857Y-2928571D01*
X3562143Y-2914286D01*
X3590714Y-2900000D01*
X3662143Y-2900000D01*
X3690714Y-2914286D01*
X3705000Y-2928571D01*
X3719286Y-2957143D01*
X3719286Y-3028571D01*
X3705000Y-3057143D01*
X3690714Y-3071429D01*
X3662143Y-3085714D01*
X3590714Y-3085714D01*
X3562143Y-3071429D01*
X3547857Y-3057143D01*
X3862143Y-3085714D02*
X3919286Y-3085714D01*
X3947857Y-3071429D01*
X3962143Y-3057143D01*
X3990714Y-3014286D01*
X4005000Y-2957143D01*
X4005000Y-2842857D01*
X3990714Y-2814286D01*
X3976428Y-2800000D01*
X3947857Y-2785714D01*
X3890714Y-2785714D01*
X3862143Y-2800000D01*
X3847857Y-2814286D01*
X3833571Y-2842857D01*
X3833571Y-2914286D01*
X3847857Y-2942857D01*
X3862143Y-2957143D01*
X3890714Y-2971429D01*
X3947857Y-2971429D01*
X3976428Y-2957143D01*
X3990714Y-2942857D01*
X4005000Y-2914286D01*
X4119286Y-2785714D02*
X4119286Y-2842857D01*
X4233571Y-2785714D02*
X4233571Y-2842857D01*
X4676428Y-3200000D02*
X4662143Y-3185714D01*
X4633571Y-3142857D01*
X4619286Y-3114286D01*
X4605000Y-3071429D01*
X4590714Y-3000000D01*
X4590714Y-2942857D01*
X4605000Y-2871429D01*
X4619286Y-2828571D01*
X4633571Y-2800000D01*
X4662143Y-2757143D01*
X4676428Y-2742857D01*
X4919286Y-2785714D02*
X4862143Y-2785714D01*
X4833571Y-2800000D01*
X4819286Y-2814286D01*
X4790714Y-2857143D01*
X4776428Y-2914286D01*
X4776428Y-3028571D01*
X4790714Y-3057143D01*
X4805000Y-3071429D01*
X4833571Y-3085714D01*
X4890714Y-3085714D01*
X4919286Y-3071429D01*
X4933571Y-3057143D01*
X4947857Y-3028571D01*
X4947857Y-2957143D01*
X4933571Y-2928571D01*
X4919286Y-2914286D01*
X4890714Y-2900000D01*
X4833571Y-2900000D01*
X4805000Y-2914286D01*
X4790714Y-2928571D01*
X4776428Y-2957143D01*
X5305000Y-3085714D02*
X5305000Y-2785714D01*
X5433571Y-3085714D02*
X5433571Y-2928571D01*
X5419286Y-2900000D01*
X5390714Y-2885714D01*
X5347857Y-2885714D01*
X5319286Y-2900000D01*
X5305000Y-2914286D01*
X5619286Y-3085714D02*
X5590714Y-3071429D01*
X5576428Y-3057143D01*
X5562143Y-3028571D01*
X5562143Y-2942857D01*
X5576428Y-2914286D01*
X5590714Y-2900000D01*
X5619286Y-2885714D01*
X5662143Y-2885714D01*
X5690714Y-2900000D01*
X5705000Y-2914286D01*
X5719286Y-2942857D01*
X5719286Y-3028571D01*
X5705000Y-3057143D01*
X5690714Y-3071429D01*
X5662143Y-3085714D01*
X5619286Y-3085714D01*
X5890714Y-3085714D02*
X5862143Y-3071429D01*
X5847857Y-3042857D01*
X5847857Y-2785714D01*
X6119286Y-3071429D02*
X6090714Y-3085714D01*
X6033571Y-3085714D01*
X6005000Y-3071429D01*
X5990714Y-3042857D01*
X5990714Y-2928571D01*
X6005000Y-2900000D01*
X6033571Y-2885714D01*
X6090714Y-2885714D01*
X6119286Y-2900000D01*
X6133571Y-2928571D01*
X6133571Y-2957143D01*
X5990714Y-2985714D01*
X6247857Y-3071429D02*
X6276428Y-3085714D01*
X6333571Y-3085714D01*
X6362143Y-3071429D01*
X6376428Y-3042857D01*
X6376428Y-3028571D01*
X6362143Y-3000000D01*
X6333571Y-2985714D01*
X6290714Y-2985714D01*
X6262143Y-2971429D01*
X6247857Y-2942857D01*
X6247857Y-2928571D01*
X6262143Y-2900000D01*
X6290714Y-2885714D01*
X6333571Y-2885714D01*
X6362143Y-2900000D01*
X6476428Y-3200000D02*
X6490714Y-3185714D01*
X6519286Y-3142857D01*
X6533571Y-3114286D01*
X6547857Y-3071429D01*
X6562143Y-3000000D01*
X6562143Y-2942857D01*
X6547857Y-2871429D01*
X6533571Y-2828571D01*
X6519286Y-2800000D01*
X6490714Y-2757143D01*
X6476428Y-2742857D01*
M02*
