G04 #@! TF.GenerationSoftware,KiCad,Pcbnew,5.0.2-bee76a0~70~ubuntu18.04.1*
G04 #@! TF.CreationDate,2019-12-02T22:21:51+01:00*
G04 #@! TF.ProjectId,meross,6d65726f-7373-42e6-9b69-6361645f7063,rev?*
G04 #@! TF.SameCoordinates,PX6ea0500PY700e860*
G04 #@! TF.FileFunction,Copper,L1,Top*
G04 #@! TF.FilePolarity,Positive*
%FSLAX46Y46*%
G04 Gerber Fmt 4.6, Leading zero omitted, Abs format (unit mm)*
G04 Created by KiCad (PCBNEW 5.0.2-bee76a0~70~ubuntu18.04.1) date Mon 02 Dec 2019 10:21:51 PM CET*
%MOMM*%
%LPD*%
G01*
G04 APERTURE LIST*
G04 #@! TA.AperFunction,NonConductor*
%ADD10C,0.200000*%
G04 #@! TD*
G04 #@! TA.AperFunction,SMDPad,CuDef*
%ADD11R,0.750000X0.800000*%
G04 #@! TD*
G04 #@! TA.AperFunction,SMDPad,CuDef*
%ADD12R,0.800000X0.750000*%
G04 #@! TD*
G04 #@! TA.AperFunction,SMDPad,CuDef*
%ADD13R,0.700000X0.600000*%
G04 #@! TD*
G04 #@! TA.AperFunction,ComponentPad*
%ADD14R,1.520000X1.520000*%
G04 #@! TD*
G04 #@! TA.AperFunction,ComponentPad*
%ADD15C,2.000000*%
G04 #@! TD*
G04 #@! TA.AperFunction,ComponentPad*
%ADD16C,1.520000*%
G04 #@! TD*
G04 #@! TA.AperFunction,SMDPad,CuDef*
%ADD17R,0.800000X0.900000*%
G04 #@! TD*
G04 #@! TA.AperFunction,SMDPad,CuDef*
%ADD18R,0.900000X0.500000*%
G04 #@! TD*
G04 #@! TA.AperFunction,SMDPad,CuDef*
%ADD19R,0.500000X0.900000*%
G04 #@! TD*
G04 #@! TA.AperFunction,SMDPad,CuDef*
%ADD20R,1.050000X0.650000*%
G04 #@! TD*
G04 #@! TA.AperFunction,SMDPad,CuDef*
%ADD21R,2.500000X1.000000*%
G04 #@! TD*
G04 #@! TA.AperFunction,SMDPad,CuDef*
%ADD22R,1.000000X1.800000*%
G04 #@! TD*
G04 #@! TA.AperFunction,SMDPad,CuDef*
%ADD23R,0.650000X1.060000*%
G04 #@! TD*
G04 #@! TA.AperFunction,ComponentPad*
%ADD24C,1.524000*%
G04 #@! TD*
G04 #@! TA.AperFunction,ComponentPad*
%ADD25C,3.000000*%
G04 #@! TD*
G04 #@! TA.AperFunction,ComponentPad*
%ADD26R,1.700000X1.700000*%
G04 #@! TD*
G04 #@! TA.AperFunction,ComponentPad*
%ADD27O,1.700000X1.700000*%
G04 #@! TD*
G04 #@! TA.AperFunction,ViaPad*
%ADD28C,0.800000*%
G04 #@! TD*
G04 #@! TA.AperFunction,Conductor*
%ADD29C,0.400000*%
G04 #@! TD*
G04 #@! TA.AperFunction,Conductor*
%ADD30C,0.300000*%
G04 #@! TD*
G04 #@! TA.AperFunction,Conductor*
%ADD31C,0.500000*%
G04 #@! TD*
G04 #@! TA.AperFunction,Conductor*
%ADD32C,0.254000*%
G04 #@! TD*
G04 APERTURE END LIST*
D10*
X32500000Y10000000D02*
G75*
G03X32500000Y10000000I-1000000J0D01*
G01*
X5000000Y43000000D02*
G75*
G03X5000000Y43000000I-1000000J0D01*
G01*
X73500000Y27500000D02*
G75*
G03X73500000Y27500000I-1000000J0D01*
G01*
X81499999Y53000000D02*
X81500000Y2000000D01*
X81499999Y53000000D02*
X19500000Y53000000D01*
X19500000Y2000000D02*
X81500000Y2000000D01*
X19500000Y0D02*
X19500000Y2000000D01*
X19500000Y53000000D02*
X19500000Y55000000D01*
X19500000Y0D02*
X11500000Y0D01*
X11500000Y55000000D02*
X19500000Y55000000D01*
X11500000Y55000000D02*
X11500000Y47500000D01*
X11500000Y7500000D02*
X11500000Y0D01*
X11500000Y7500000D02*
X0Y7500000D01*
X0Y47500000D02*
X11500000Y47500000D01*
X0Y7500000D02*
X0Y47500000D01*
D11*
G04 #@! TO.P,C2,1*
G04 #@! TO.N,GND*
X37100000Y17809997D03*
G04 #@! TO.P,C2,2*
G04 #@! TO.N,+12V*
X37100000Y19309997D03*
G04 #@! TD*
G04 #@! TO.P,C4,2*
G04 #@! TO.N,GND*
X20500000Y36500000D03*
G04 #@! TO.P,C4,1*
G04 #@! TO.N,+3.3V*
X20500000Y35000000D03*
G04 #@! TD*
G04 #@! TO.P,C5,1*
G04 #@! TO.N,Net-(C5-Pad1)*
X31100000Y17309997D03*
G04 #@! TO.P,C5,2*
G04 #@! TO.N,GND*
X31100000Y18809997D03*
G04 #@! TD*
D12*
G04 #@! TO.P,C6,2*
G04 #@! TO.N,GND*
X33600000Y15309997D03*
G04 #@! TO.P,C6,1*
G04 #@! TO.N,+3.3V*
X35100000Y15309997D03*
G04 #@! TD*
D13*
G04 #@! TO.P,D2,1*
G04 #@! TO.N,+12V*
X47500000Y41100000D03*
G04 #@! TO.P,D2,2*
G04 #@! TO.N,Net-(D2-Pad2)*
X47500000Y42500000D03*
G04 #@! TD*
G04 #@! TO.P,D3,1*
G04 #@! TO.N,+12V*
X47500000Y29600000D03*
G04 #@! TO.P,D3,2*
G04 #@! TO.N,Net-(D3-Pad2)*
X47500000Y31000000D03*
G04 #@! TD*
G04 #@! TO.P,D4,2*
G04 #@! TO.N,Net-(D4-Pad2)*
X47500000Y19500000D03*
G04 #@! TO.P,D4,1*
G04 #@! TO.N,+12V*
X47500000Y18100000D03*
G04 #@! TD*
G04 #@! TO.P,D5,2*
G04 #@! TO.N,Net-(D5-Pad2)*
X47500000Y8000000D03*
G04 #@! TO.P,D5,1*
G04 #@! TO.N,+12V*
X47500000Y6600000D03*
G04 #@! TD*
D14*
G04 #@! TO.P,K1,1*
G04 #@! TO.N,Net-(D2-Pad2)*
X50125000Y45300000D03*
D15*
G04 #@! TO.P,K1,2*
G04 #@! TO.N,/L*
X60285000Y45300000D03*
G04 #@! TO.P,K1,3*
G04 #@! TO.N,Net-(J4-Pad1)*
X67905000Y45300000D03*
D16*
G04 #@! TO.P,K1,5*
G04 #@! TO.N,+12V*
X50125000Y37680000D03*
G04 #@! TD*
G04 #@! TO.P,K2,5*
G04 #@! TO.N,+12V*
X50125000Y26180000D03*
D15*
G04 #@! TO.P,K2,3*
G04 #@! TO.N,Net-(J5-Pad1)*
X67905000Y33800000D03*
G04 #@! TO.P,K2,2*
G04 #@! TO.N,/L*
X60285000Y33800000D03*
D14*
G04 #@! TO.P,K2,1*
G04 #@! TO.N,Net-(D3-Pad2)*
X50125000Y33800000D03*
G04 #@! TD*
G04 #@! TO.P,K3,1*
G04 #@! TO.N,Net-(D4-Pad2)*
X50125000Y22300000D03*
D15*
G04 #@! TO.P,K3,2*
G04 #@! TO.N,/L*
X60285000Y22300000D03*
G04 #@! TO.P,K3,3*
G04 #@! TO.N,Net-(J6-Pad1)*
X67905000Y22300000D03*
D16*
G04 #@! TO.P,K3,5*
G04 #@! TO.N,+12V*
X50125000Y14680000D03*
G04 #@! TD*
G04 #@! TO.P,K4,5*
G04 #@! TO.N,+12V*
X50125000Y3180000D03*
D15*
G04 #@! TO.P,K4,3*
G04 #@! TO.N,Net-(J7-Pad1)*
X67905000Y10800000D03*
G04 #@! TO.P,K4,2*
G04 #@! TO.N,/L*
X60285000Y10800000D03*
D14*
G04 #@! TO.P,K4,1*
G04 #@! TO.N,Net-(D5-Pad2)*
X50125000Y10800000D03*
G04 #@! TD*
D17*
G04 #@! TO.P,Q1,3*
G04 #@! TO.N,Net-(D2-Pad2)*
X44500000Y42500000D03*
G04 #@! TO.P,Q1,2*
G04 #@! TO.N,GND*
X45450000Y40500000D03*
G04 #@! TO.P,Q1,1*
G04 #@! TO.N,/G1*
X43550000Y40500000D03*
G04 #@! TD*
G04 #@! TO.P,Q2,1*
G04 #@! TO.N,/G3*
X43550000Y29000000D03*
G04 #@! TO.P,Q2,2*
G04 #@! TO.N,GND*
X45450000Y29000000D03*
G04 #@! TO.P,Q2,3*
G04 #@! TO.N,Net-(D3-Pad2)*
X44500000Y31000000D03*
G04 #@! TD*
G04 #@! TO.P,Q3,1*
G04 #@! TO.N,/G2*
X43550000Y17500000D03*
G04 #@! TO.P,Q3,2*
G04 #@! TO.N,GND*
X45450000Y17500000D03*
G04 #@! TO.P,Q3,3*
G04 #@! TO.N,Net-(D4-Pad2)*
X44500000Y19500000D03*
G04 #@! TD*
G04 #@! TO.P,Q4,3*
G04 #@! TO.N,Net-(D5-Pad2)*
X44500000Y8000000D03*
G04 #@! TO.P,Q4,2*
G04 #@! TO.N,GND*
X45450000Y6000000D03*
G04 #@! TO.P,Q4,1*
G04 #@! TO.N,/G4*
X43550000Y6000000D03*
G04 #@! TD*
D18*
G04 #@! TO.P,R2,1*
G04 #@! TO.N,+3.3V*
X20750000Y22250000D03*
G04 #@! TO.P,R2,2*
G04 #@! TO.N,Net-(R2-Pad2)*
X20750000Y23750000D03*
G04 #@! TD*
D19*
G04 #@! TO.P,R3,1*
G04 #@! TO.N,Net-(R3-Pad1)*
X1750000Y39000000D03*
G04 #@! TO.P,R3,2*
G04 #@! TO.N,GND*
X3250000Y39000000D03*
G04 #@! TD*
G04 #@! TO.P,R5,2*
G04 #@! TO.N,Net-(R5-Pad2)*
X7750000Y39200000D03*
G04 #@! TO.P,R5,1*
G04 #@! TO.N,+3.3V*
X9250000Y39200000D03*
G04 #@! TD*
G04 #@! TO.P,R7,1*
G04 #@! TO.N,/G1*
X43750000Y38500000D03*
G04 #@! TO.P,R7,2*
G04 #@! TO.N,GND*
X45250000Y38500000D03*
G04 #@! TD*
G04 #@! TO.P,R8,1*
G04 #@! TO.N,/G3*
X43750000Y27000000D03*
G04 #@! TO.P,R8,2*
G04 #@! TO.N,GND*
X45250000Y27000000D03*
G04 #@! TD*
G04 #@! TO.P,R9,2*
G04 #@! TO.N,GND*
X45250000Y15500000D03*
G04 #@! TO.P,R9,1*
G04 #@! TO.N,/G2*
X43750000Y15500000D03*
G04 #@! TD*
G04 #@! TO.P,R10,2*
G04 #@! TO.N,GND*
X45250000Y4000000D03*
G04 #@! TO.P,R10,1*
G04 #@! TO.N,/G4*
X43750000Y4000000D03*
G04 #@! TD*
D20*
G04 #@! TO.P,SW1,1*
G04 #@! TO.N,/RST*
X27075000Y11925000D03*
G04 #@! TO.P,SW1,2*
X22925000Y11925000D03*
G04 #@! TO.P,SW1,3*
G04 #@! TO.N,GND*
X27075000Y14075000D03*
G04 #@! TO.P,SW1,4*
X22925000Y14075000D03*
G04 #@! TD*
G04 #@! TO.P,SW2,4*
G04 #@! TO.N,GND*
X22925000Y19075000D03*
G04 #@! TO.P,SW2,3*
X27075000Y19075000D03*
G04 #@! TO.P,SW2,2*
G04 #@! TO.N,/GPIO0*
X22925000Y16925000D03*
G04 #@! TO.P,SW2,1*
X27075000Y16925000D03*
G04 #@! TD*
D21*
G04 #@! TO.P,U1,1*
G04 #@! TO.N,/RST*
X18100000Y21000000D03*
G04 #@! TO.P,U1,2*
G04 #@! TO.N,N/C*
X18100000Y23000000D03*
G04 #@! TO.P,U1,3*
G04 #@! TO.N,Net-(R2-Pad2)*
X18100000Y25000000D03*
G04 #@! TO.P,U1,4*
G04 #@! TO.N,/G4*
X18100000Y27000000D03*
G04 #@! TO.P,U1,5*
G04 #@! TO.N,/G2*
X18100000Y29000000D03*
G04 #@! TO.P,U1,6*
G04 #@! TO.N,/G3*
X18100000Y31000000D03*
G04 #@! TO.P,U1,7*
G04 #@! TO.N,/G1*
X18100000Y33000000D03*
G04 #@! TO.P,U1,8*
G04 #@! TO.N,+3.3V*
X18100000Y35000000D03*
D22*
G04 #@! TO.P,U1,9*
G04 #@! TO.N,N/C*
X15500000Y36500000D03*
G04 #@! TO.P,U1,10*
X13500000Y36500000D03*
G04 #@! TO.P,U1,11*
X11500000Y36500000D03*
G04 #@! TO.P,U1,12*
X9500000Y36500000D03*
G04 #@! TO.P,U1,13*
X7500000Y36500000D03*
G04 #@! TO.P,U1,14*
X5500000Y36500000D03*
D21*
G04 #@! TO.P,U1,15*
G04 #@! TO.N,GND*
X2900000Y35000000D03*
G04 #@! TO.P,U1,16*
G04 #@! TO.N,Net-(R3-Pad1)*
X2900000Y33000000D03*
G04 #@! TO.P,U1,17*
G04 #@! TO.N,Net-(R5-Pad2)*
X2900000Y31000000D03*
G04 #@! TO.P,U1,18*
G04 #@! TO.N,/GPIO0*
X2900000Y29000000D03*
G04 #@! TO.P,U1,19*
G04 #@! TO.N,N/C*
X2900000Y27000000D03*
G04 #@! TO.P,U1,20*
X2900000Y25000000D03*
G04 #@! TO.P,U1,21*
G04 #@! TO.N,/Rx*
X2900000Y23000000D03*
G04 #@! TO.P,U1,22*
G04 #@! TO.N,/Tx*
X2900000Y21000000D03*
G04 #@! TD*
D23*
G04 #@! TO.P,U2,1*
G04 #@! TO.N,+12V*
X35049999Y19409997D03*
G04 #@! TO.P,U2,2*
G04 #@! TO.N,GND*
X34099999Y19409997D03*
G04 #@! TO.P,U2,3*
G04 #@! TO.N,+12V*
X33149999Y19409997D03*
G04 #@! TO.P,U2,4*
G04 #@! TO.N,Net-(C5-Pad1)*
X33149999Y17209997D03*
G04 #@! TO.P,U2,5*
G04 #@! TO.N,+3.3V*
X35049999Y17209997D03*
G04 #@! TD*
D24*
G04 #@! TO.P,PS1,1*
G04 #@! TO.N,/L*
X24430000Y45380000D03*
G04 #@! TO.P,PS1,2*
G04 #@! TO.N,/N*
X28330000Y45380000D03*
G04 #@! TO.P,PS1,5*
G04 #@! TO.N,+12V*
X23140000Y24620000D03*
G04 #@! TO.P,PS1,4*
G04 #@! TO.N,GND*
X33300000Y24620000D03*
G04 #@! TO.P,PS1,3*
G04 #@! TO.N,N/C*
X44730000Y24620000D03*
G04 #@! TD*
D25*
G04 #@! TO.P,J1,1*
G04 #@! TO.N,/L*
X40000000Y50000000D03*
G04 #@! TD*
G04 #@! TO.P,J2,1*
G04 #@! TO.N,/N*
X34000000Y50000000D03*
G04 #@! TD*
G04 #@! TO.P,J4,1*
G04 #@! TO.N,Net-(J4-Pad1)*
X76000000Y41500000D03*
G04 #@! TD*
G04 #@! TO.P,J5,1*
G04 #@! TO.N,Net-(J5-Pad1)*
X76000000Y30000000D03*
G04 #@! TD*
G04 #@! TO.P,J6,1*
G04 #@! TO.N,Net-(J6-Pad1)*
X76000000Y18500000D03*
G04 #@! TD*
G04 #@! TO.P,J7,1*
G04 #@! TO.N,Net-(J7-Pad1)*
X76000000Y7000000D03*
G04 #@! TD*
D26*
G04 #@! TO.P,J3,1*
G04 #@! TO.N,GND*
X15240000Y41910000D03*
D27*
G04 #@! TO.P,J3,2*
G04 #@! TO.N,+3.3V*
X15240000Y44450000D03*
G04 #@! TO.P,J3,3*
G04 #@! TO.N,/Tx*
X12700000Y41910000D03*
G04 #@! TO.P,J3,4*
G04 #@! TO.N,/Rx*
X12700000Y44450000D03*
G04 #@! TD*
D28*
G04 #@! TO.N,GND*
X37100000Y16909997D03*
X32700000Y15309997D03*
X31100001Y19709997D03*
X34100000Y20409997D03*
X20500000Y37400000D03*
X4000000Y39000000D03*
X2900000Y36000000D03*
X27075000Y14875000D03*
X27100000Y19875000D03*
G04 #@! TO.N,/Rx*
X5000000Y23000000D03*
G04 #@! TO.N,/Tx*
X5000000Y21000000D03*
G04 #@! TO.N,+12V*
X37100000Y20209997D03*
G04 #@! TO.N,+3.3V*
X20750000Y21550000D03*
X21350000Y35000000D03*
X25750000Y10850000D03*
X35100000Y14225000D03*
X10000000Y39200000D03*
X25000000Y18100000D03*
G04 #@! TO.N,/RST*
X22925000Y13000000D03*
G04 #@! TO.N,/GPIO0*
X7000000Y29000000D03*
X22925000Y18000000D03*
G04 #@! TO.N,Net-(R5-Pad2)*
X7000000Y31000000D03*
X7000000Y39200000D03*
G04 #@! TD*
D29*
G04 #@! TO.N,GND*
X37100000Y17809997D02*
X37100000Y16909997D01*
X33600000Y15309997D02*
X32700000Y15309997D01*
X31100000Y18809996D02*
X31100001Y19709997D01*
X34099999Y19409997D02*
X34099999Y20409996D01*
X34099999Y20409996D02*
X34100000Y20409997D01*
X20500000Y36500000D02*
X20500000Y37400000D01*
X3250000Y39000000D02*
X4000000Y39000000D01*
X2900000Y35000000D02*
X2900000Y36000000D01*
X27075000Y14075000D02*
X27075000Y14875000D01*
X27075000Y19075000D02*
X27075000Y19850000D01*
X27075000Y19850000D02*
X27100000Y19875000D01*
X45450000Y38700000D02*
X45250000Y38500000D01*
X45450000Y40500000D02*
X45450000Y38700000D01*
X45450000Y27200000D02*
X45250000Y27000000D01*
X45450000Y29000000D02*
X45450000Y27200000D01*
X45450000Y15700000D02*
X45250000Y15500000D01*
X45450000Y17500000D02*
X45450000Y15700000D01*
X45450000Y4200000D02*
X45250000Y4000000D01*
X45450000Y6000000D02*
X45450000Y4200000D01*
D30*
G04 #@! TO.N,/Rx*
X2900000Y23000000D02*
X5000000Y23000000D01*
G04 #@! TO.N,/Tx*
X2900000Y21000000D02*
X5000000Y21000000D01*
D31*
G04 #@! TO.N,+12V*
X37000001Y19409997D02*
X37100000Y19309997D01*
X35050000Y19409997D02*
X37000001Y19409997D01*
X34700000Y18329996D02*
X35050000Y18679996D01*
X35050000Y18679996D02*
X35050000Y19409997D01*
X33149999Y19409997D02*
X33150000Y18679996D01*
X33500000Y18329996D02*
X34700000Y18329996D01*
X33150000Y18679996D02*
X33500000Y18329996D01*
X37100000Y19309997D02*
X37100000Y20209997D01*
X24217630Y24620000D02*
X23140000Y24620000D01*
X28969996Y24620000D02*
X24217630Y24620000D01*
X33149999Y20439997D02*
X28969996Y24620000D01*
X33149999Y19409997D02*
X33149999Y20439997D01*
X47500000Y40305000D02*
X50125000Y37680000D01*
X47500000Y41100000D02*
X47500000Y40305000D01*
X47500000Y28805000D02*
X50125000Y26180000D01*
X47500000Y29600000D02*
X47500000Y28805000D01*
X47500000Y17305000D02*
X50125000Y14680000D01*
X47500000Y18100000D02*
X47500000Y17305000D01*
X47500000Y5805000D02*
X50125000Y3180000D01*
X47500000Y6600000D02*
X47500000Y5805000D01*
D30*
G04 #@! TO.N,Net-(D2-Pad2)*
X47500000Y43735000D02*
X47500000Y43100000D01*
X49065000Y45300000D02*
X47500000Y43735000D01*
X47500000Y43100000D02*
X47500000Y42500000D01*
X50125000Y45300000D02*
X49065000Y45300000D01*
X47500000Y42500000D02*
X44500000Y42500000D01*
G04 #@! TO.N,Net-(D3-Pad2)*
X47500000Y31600000D02*
X47500000Y31000000D01*
X47500000Y32235000D02*
X47500000Y31600000D01*
X49065000Y33800000D02*
X47500000Y32235000D01*
X50125000Y33800000D02*
X49065000Y33800000D01*
X44500000Y31000000D02*
X47500000Y31000000D01*
G04 #@! TO.N,Net-(D4-Pad2)*
X47500000Y20100000D02*
X47500000Y19500000D01*
X47500000Y20735000D02*
X47500000Y20100000D01*
X49065000Y22300000D02*
X47500000Y20735000D01*
X50125000Y22300000D02*
X49065000Y22300000D01*
X44500000Y19500000D02*
X47500000Y19500000D01*
G04 #@! TO.N,/G1*
X43550000Y38700000D02*
X43750000Y38500000D01*
X43550000Y40500000D02*
X43550000Y38700000D01*
X38450000Y33000000D02*
X19650000Y33000000D01*
X19650000Y33000000D02*
X18100000Y33000000D01*
X43750000Y38500000D02*
X43750000Y38300000D01*
X43750000Y38300000D02*
X38450000Y33000000D01*
G04 #@! TO.N,/G2*
X43550000Y15700000D02*
X43750000Y15500000D01*
X43550000Y17500000D02*
X43550000Y16900000D01*
X43550000Y16900000D02*
X43550000Y15700000D01*
X43550000Y20400000D02*
X43550000Y17500000D01*
X18100000Y29000000D02*
X34950000Y29000000D01*
X34950000Y29000000D02*
X43550000Y20400000D01*
D29*
G04 #@! TO.N,+3.3V*
X35050000Y15359997D02*
X35100000Y15309997D01*
X35050000Y17209997D02*
X35050000Y15359997D01*
X20750000Y22250000D02*
X20750000Y21550000D01*
X18100000Y35000000D02*
X20500000Y35000000D01*
X20500000Y35000000D02*
X21350000Y35000000D01*
X35100000Y15309997D02*
X35100000Y14225000D01*
X9250000Y39200000D02*
X10000000Y39200000D01*
D30*
G04 #@! TO.N,/G4*
X43550000Y4200000D02*
X43750000Y4000000D01*
X43550000Y6000000D02*
X43550000Y4200000D01*
X40500000Y19701458D02*
X40500000Y9100000D01*
X43550000Y6050000D02*
X43550000Y6000000D01*
X33201458Y27000000D02*
X40500000Y19701458D01*
X40500000Y9100000D02*
X43550000Y6050000D01*
X18100000Y27000000D02*
X33201458Y27000000D01*
G04 #@! TO.N,/G3*
X43550000Y27200000D02*
X43750000Y27000000D01*
X43550000Y29000000D02*
X43550000Y27200000D01*
X40450000Y29000000D02*
X43550000Y29000000D01*
X18100000Y31000000D02*
X38450000Y31000000D01*
X38450000Y31000000D02*
X40450000Y29000000D01*
G04 #@! TO.N,/RST*
X21000000Y13650000D02*
X21000000Y19000000D01*
X22925000Y11925000D02*
X22725000Y11925000D01*
X19000000Y21000000D02*
X18100000Y21000000D01*
X21000000Y19000000D02*
X19000000Y21000000D01*
X22725000Y11925000D02*
X21000000Y13650000D01*
X22925000Y11925000D02*
X27075000Y11925000D01*
X22925000Y11925000D02*
X22925000Y12550000D01*
X22925000Y12550000D02*
X22925000Y13000000D01*
G04 #@! TO.N,/GPIO0*
X27075000Y16925000D02*
X22925000Y16925000D01*
X2900000Y29000000D02*
X7000000Y29000000D01*
X22925000Y16925000D02*
X22925000Y18000000D01*
G04 #@! TO.N,Net-(C5-Pad1)*
X33050000Y17309997D02*
X33149999Y17209997D01*
X31100000Y17309997D02*
X33050000Y17309997D01*
G04 #@! TO.N,Net-(D5-Pad2)*
X44500000Y8000000D02*
X47500000Y8000000D01*
X47500000Y8600000D02*
X47500000Y8000000D01*
X49065000Y10800000D02*
X47500000Y9235000D01*
X47500000Y9235000D02*
X47500000Y8600000D01*
X50125000Y10800000D02*
X49065000Y10800000D01*
G04 #@! TO.N,Net-(R2-Pad2)*
X20750000Y24250000D02*
X20750000Y23750000D01*
X18100000Y25000000D02*
X20000000Y25000000D01*
X20000000Y25000000D02*
X20750000Y24250000D01*
G04 #@! TO.N,Net-(R3-Pad1)*
X1750000Y38800000D02*
X800000Y37850000D01*
X1750000Y39000000D02*
X1750000Y38800000D01*
X800000Y37850000D02*
X800000Y34350000D01*
X800000Y34350000D02*
X2150000Y33000000D01*
X2150000Y33000000D02*
X2900000Y33000000D01*
G04 #@! TO.N,Net-(R5-Pad2)*
X2900000Y31000000D02*
X7000000Y31000000D01*
X7750000Y39200000D02*
X7000000Y39200000D01*
G04 #@! TD*
D32*
G04 #@! TO.N,GND*
G36*
X18973000Y53127000D02*
X18700000Y53127000D01*
X18651399Y53117333D01*
X18610197Y53089803D01*
X18582667Y53048601D01*
X18573000Y53000000D01*
X18573000Y41900000D01*
X18579473Y41859971D01*
X18603967Y41816894D01*
X23103967Y36616894D01*
X23151399Y36582667D01*
X23200000Y36573000D01*
X35700000Y36573000D01*
X35748601Y36582667D01*
X35789803Y36610197D01*
X45052606Y45873000D01*
X48929635Y45873000D01*
X48929635Y45861378D01*
X48839866Y45843522D01*
X48649006Y45715994D01*
X48616814Y45667815D01*
X47132188Y44183188D01*
X47084006Y44150994D01*
X46956478Y43960133D01*
X46954809Y43951740D01*
X46911696Y43735000D01*
X46923000Y43678172D01*
X46923000Y43161872D01*
X46842150Y43107850D01*
X46821537Y43077000D01*
X45310103Y43077000D01*
X45302225Y43116607D01*
X45207850Y43257850D01*
X45066607Y43352225D01*
X44900000Y43385365D01*
X44100000Y43385365D01*
X43933393Y43352225D01*
X43792150Y43257850D01*
X43697775Y43116607D01*
X43664635Y42950000D01*
X43664635Y42050000D01*
X43697775Y41883393D01*
X43792150Y41742150D01*
X43933393Y41647775D01*
X44100000Y41614635D01*
X44900000Y41614635D01*
X45066607Y41647775D01*
X45207850Y41742150D01*
X45302225Y41883393D01*
X45310103Y41923000D01*
X46821537Y41923000D01*
X46842150Y41892150D01*
X46980063Y41800000D01*
X46842150Y41707850D01*
X46747775Y41566607D01*
X46714635Y41400000D01*
X46714635Y40800000D01*
X46747775Y40633393D01*
X46823000Y40520810D01*
X46823000Y40371676D01*
X46809737Y40305000D01*
X46823000Y40238324D01*
X46823000Y40238322D01*
X46862281Y40040848D01*
X47011911Y39816910D01*
X47068441Y39779138D01*
X48938000Y37909578D01*
X48938000Y37443891D01*
X49118710Y37007618D01*
X49452618Y36673710D01*
X49888891Y36493000D01*
X50361109Y36493000D01*
X50797382Y36673710D01*
X51131290Y37007618D01*
X51312000Y37443891D01*
X51312000Y37916109D01*
X51131290Y38352382D01*
X50797382Y38686290D01*
X50361109Y38867000D01*
X49895422Y38867000D01*
X48202879Y40559542D01*
X48252225Y40633393D01*
X48285365Y40800000D01*
X48285365Y41400000D01*
X48252225Y41566607D01*
X48157850Y41707850D01*
X48019937Y41800000D01*
X48157850Y41892150D01*
X48252225Y42033393D01*
X48285365Y42200000D01*
X48285365Y42800000D01*
X48252225Y42966607D01*
X48157850Y43107850D01*
X48077000Y43161872D01*
X48077000Y43496000D01*
X48961384Y44380384D01*
X48962775Y44373393D01*
X49057150Y44232150D01*
X49198393Y44137775D01*
X49365000Y44104635D01*
X50885000Y44104635D01*
X51051607Y44137775D01*
X51192850Y44232150D01*
X51287225Y44373393D01*
X51320365Y44540000D01*
X51320365Y45873000D01*
X53873000Y45873000D01*
X53873000Y2527000D01*
X51139318Y2527000D01*
X51312000Y2943891D01*
X51312000Y3416109D01*
X51131290Y3852382D01*
X50797382Y4186290D01*
X50361109Y4367000D01*
X49895422Y4367000D01*
X48202879Y6059542D01*
X48252225Y6133393D01*
X48285365Y6300000D01*
X48285365Y6900000D01*
X48252225Y7066607D01*
X48157850Y7207850D01*
X48019937Y7300000D01*
X48157850Y7392150D01*
X48252225Y7533393D01*
X48285365Y7700000D01*
X48285365Y8300000D01*
X48252225Y8466607D01*
X48157850Y8607850D01*
X48077000Y8661872D01*
X48077000Y8996000D01*
X48961384Y9880384D01*
X48962775Y9873393D01*
X49057150Y9732150D01*
X49198393Y9637775D01*
X49365000Y9604635D01*
X50885000Y9604635D01*
X51051607Y9637775D01*
X51192850Y9732150D01*
X51287225Y9873393D01*
X51320365Y10040000D01*
X51320365Y11560000D01*
X51287225Y11726607D01*
X51192850Y11867850D01*
X51051607Y11962225D01*
X50885000Y11995365D01*
X49365000Y11995365D01*
X49198393Y11962225D01*
X49057150Y11867850D01*
X48962775Y11726607D01*
X48929635Y11560000D01*
X48929635Y11361378D01*
X48839866Y11343522D01*
X48649006Y11215994D01*
X48616814Y11167815D01*
X47132188Y9683188D01*
X47084006Y9650994D01*
X46956478Y9460133D01*
X46946106Y9407989D01*
X46911696Y9235000D01*
X46923000Y9178172D01*
X46923000Y8661872D01*
X46842150Y8607850D01*
X46821537Y8577000D01*
X45310103Y8577000D01*
X45302225Y8616607D01*
X45207850Y8757850D01*
X45066607Y8852225D01*
X44900000Y8885365D01*
X44100000Y8885365D01*
X43933393Y8852225D01*
X43792150Y8757850D01*
X43697775Y8616607D01*
X43664635Y8450000D01*
X43664635Y7550000D01*
X43697775Y7383393D01*
X43792150Y7242150D01*
X43933393Y7147775D01*
X44100000Y7114635D01*
X44900000Y7114635D01*
X45066607Y7147775D01*
X45207850Y7242150D01*
X45302225Y7383393D01*
X45310103Y7423000D01*
X46821537Y7423000D01*
X46842150Y7392150D01*
X46980063Y7300000D01*
X46842150Y7207850D01*
X46747775Y7066607D01*
X46714635Y6900000D01*
X46714635Y6300000D01*
X46747775Y6133393D01*
X46823000Y6020810D01*
X46823000Y5871676D01*
X46809737Y5805000D01*
X46823000Y5738324D01*
X46823000Y5738322D01*
X46862281Y5540848D01*
X47011911Y5316910D01*
X47068441Y5279138D01*
X48938000Y3409578D01*
X48938000Y2943891D01*
X49110682Y2527000D01*
X19551903Y2527000D01*
X19500000Y2537324D01*
X19448098Y2527000D01*
X19448097Y2527000D01*
X19294375Y2496423D01*
X19120055Y2379945D01*
X19003577Y2205625D01*
X18962676Y2000000D01*
X18973001Y1948093D01*
X18973000Y527000D01*
X12027000Y527000D01*
X12027000Y7373000D01*
X19000000Y7373000D01*
X19048601Y7382667D01*
X19089803Y7410197D01*
X19117333Y7451399D01*
X19127000Y7500000D01*
X19127000Y10000000D01*
X29953000Y10000000D01*
X30070758Y9407989D01*
X30406106Y8906106D01*
X30907989Y8570758D01*
X31500000Y8453000D01*
X32092011Y8570758D01*
X32593894Y8906106D01*
X32929242Y9407989D01*
X33047000Y10000000D01*
X32929242Y10592011D01*
X32593894Y11093894D01*
X32092011Y11429242D01*
X31500000Y11547000D01*
X30907989Y11429242D01*
X30406106Y11093894D01*
X30070758Y10592011D01*
X29953000Y10000000D01*
X19127000Y10000000D01*
X19127000Y20057000D01*
X20423001Y18760998D01*
X20423000Y13706828D01*
X20411696Y13650000D01*
X20423000Y13593172D01*
X20456478Y13424867D01*
X20584006Y13234006D01*
X20632188Y13201812D01*
X21964635Y11869364D01*
X21964635Y11600000D01*
X21997775Y11433393D01*
X22092150Y11292150D01*
X22233393Y11197775D01*
X22400000Y11164635D01*
X23450000Y11164635D01*
X23616607Y11197775D01*
X23757850Y11292150D01*
X23795168Y11348000D01*
X25078445Y11348000D01*
X25048903Y11318458D01*
X24923000Y11014501D01*
X24923000Y10685499D01*
X25048903Y10381542D01*
X25281542Y10148903D01*
X25585499Y10023000D01*
X25914501Y10023000D01*
X26218458Y10148903D01*
X26451097Y10381542D01*
X26577000Y10685499D01*
X26577000Y11014501D01*
X26511653Y11172263D01*
X26550000Y11164635D01*
X27600000Y11164635D01*
X27766607Y11197775D01*
X27907850Y11292150D01*
X28002225Y11433393D01*
X28035365Y11600000D01*
X28035365Y12250000D01*
X28002225Y12416607D01*
X27907850Y12557850D01*
X27766607Y12652225D01*
X27600000Y12685365D01*
X26550000Y12685365D01*
X26383393Y12652225D01*
X26242150Y12557850D01*
X26204832Y12502000D01*
X23795168Y12502000D01*
X23757850Y12557850D01*
X23663192Y12621098D01*
X23752000Y12835499D01*
X23752000Y13164501D01*
X23743772Y13184365D01*
X23809698Y13211673D01*
X23988327Y13390301D01*
X24085000Y13623690D01*
X24085000Y13789250D01*
X25915000Y13789250D01*
X25915000Y13623690D01*
X26011673Y13390301D01*
X26190302Y13211673D01*
X26423691Y13115000D01*
X26789250Y13115000D01*
X26948000Y13273750D01*
X26948000Y13948000D01*
X27202000Y13948000D01*
X27202000Y13273750D01*
X27360750Y13115000D01*
X27726309Y13115000D01*
X27959698Y13211673D01*
X28138327Y13390301D01*
X28235000Y13623690D01*
X28235000Y13789250D01*
X28076250Y13948000D01*
X27202000Y13948000D01*
X26948000Y13948000D01*
X26073750Y13948000D01*
X25915000Y13789250D01*
X24085000Y13789250D01*
X23926250Y13948000D01*
X23052000Y13948000D01*
X23052000Y13928000D01*
X22798000Y13928000D01*
X22798000Y13948000D01*
X21923750Y13948000D01*
X21765000Y13789250D01*
X21765000Y13701000D01*
X21577000Y13889000D01*
X21577000Y14526310D01*
X21765000Y14526310D01*
X21765000Y14360750D01*
X21923750Y14202000D01*
X22798000Y14202000D01*
X22798000Y14876250D01*
X23052000Y14876250D01*
X23052000Y14202000D01*
X23926250Y14202000D01*
X24085000Y14360750D01*
X24085000Y14526310D01*
X25915000Y14526310D01*
X25915000Y14360750D01*
X26073750Y14202000D01*
X26948000Y14202000D01*
X26948000Y14876250D01*
X27202000Y14876250D01*
X27202000Y14202000D01*
X28076250Y14202000D01*
X28235000Y14360750D01*
X28235000Y14526310D01*
X28138327Y14759699D01*
X27959698Y14938327D01*
X27752270Y15024247D01*
X32565000Y15024247D01*
X32565000Y14808687D01*
X32661673Y14575298D01*
X32840302Y14396670D01*
X33073691Y14299997D01*
X33314250Y14299997D01*
X33473000Y14458747D01*
X33473000Y15182997D01*
X32723750Y15182997D01*
X32565000Y15024247D01*
X27752270Y15024247D01*
X27726309Y15035000D01*
X27360750Y15035000D01*
X27202000Y14876250D01*
X26948000Y14876250D01*
X26789250Y15035000D01*
X26423691Y15035000D01*
X26190302Y14938327D01*
X26011673Y14759699D01*
X25915000Y14526310D01*
X24085000Y14526310D01*
X23988327Y14759699D01*
X23809698Y14938327D01*
X23576309Y15035000D01*
X23210750Y15035000D01*
X23052000Y14876250D01*
X22798000Y14876250D01*
X22639250Y15035000D01*
X22273691Y15035000D01*
X22040302Y14938327D01*
X21861673Y14759699D01*
X21765000Y14526310D01*
X21577000Y14526310D01*
X21577000Y18789250D01*
X21765000Y18789250D01*
X21765000Y18623690D01*
X21861673Y18390301D01*
X22040302Y18211673D01*
X22106228Y18184365D01*
X22098000Y18164501D01*
X22098000Y17835499D01*
X22186808Y17621098D01*
X22092150Y17557850D01*
X21997775Y17416607D01*
X21964635Y17250000D01*
X21964635Y16600000D01*
X21997775Y16433393D01*
X22092150Y16292150D01*
X22233393Y16197775D01*
X22400000Y16164635D01*
X23450000Y16164635D01*
X23616607Y16197775D01*
X23757850Y16292150D01*
X23795168Y16348000D01*
X26204832Y16348000D01*
X26242150Y16292150D01*
X26383393Y16197775D01*
X26550000Y16164635D01*
X27600000Y16164635D01*
X27766607Y16197775D01*
X27907850Y16292150D01*
X28002225Y16433393D01*
X28035365Y16600000D01*
X28035365Y17250000D01*
X28002225Y17416607D01*
X27907850Y17557850D01*
X27766607Y17652225D01*
X27600000Y17685365D01*
X26550000Y17685365D01*
X26383393Y17652225D01*
X26242150Y17557850D01*
X26204832Y17502000D01*
X25571555Y17502000D01*
X25701097Y17631542D01*
X25827000Y17935499D01*
X25827000Y18264501D01*
X25701097Y18568458D01*
X25480305Y18789250D01*
X25915000Y18789250D01*
X25915000Y18623690D01*
X26011673Y18390301D01*
X26190302Y18211673D01*
X26423691Y18115000D01*
X26789250Y18115000D01*
X26948000Y18273750D01*
X26948000Y18948000D01*
X27202000Y18948000D01*
X27202000Y18273750D01*
X27360750Y18115000D01*
X27726309Y18115000D01*
X27959698Y18211673D01*
X28138327Y18390301D01*
X28235000Y18623690D01*
X28235000Y18789250D01*
X28076250Y18948000D01*
X27202000Y18948000D01*
X26948000Y18948000D01*
X26073750Y18948000D01*
X25915000Y18789250D01*
X25480305Y18789250D01*
X25468458Y18801097D01*
X25164501Y18927000D01*
X24835499Y18927000D01*
X24531542Y18801097D01*
X24298903Y18568458D01*
X24173000Y18264501D01*
X24173000Y17935499D01*
X24298903Y17631542D01*
X24428445Y17502000D01*
X23795168Y17502000D01*
X23757850Y17557850D01*
X23663192Y17621098D01*
X23752000Y17835499D01*
X23752000Y18164501D01*
X23743772Y18184365D01*
X23809698Y18211673D01*
X23988327Y18390301D01*
X24085000Y18623690D01*
X24085000Y18789250D01*
X23926250Y18948000D01*
X23052000Y18948000D01*
X23052000Y18928000D01*
X22798000Y18928000D01*
X22798000Y18948000D01*
X21923750Y18948000D01*
X21765000Y18789250D01*
X21577000Y18789250D01*
X21577000Y18943173D01*
X21588304Y19000001D01*
X21571594Y19084006D01*
X21543522Y19225134D01*
X21415994Y19415994D01*
X21367815Y19448186D01*
X21289691Y19526310D01*
X21765000Y19526310D01*
X21765000Y19360750D01*
X21923750Y19202000D01*
X22798000Y19202000D01*
X22798000Y19876250D01*
X23052000Y19876250D01*
X23052000Y19202000D01*
X23926250Y19202000D01*
X24085000Y19360750D01*
X24085000Y19526310D01*
X25915000Y19526310D01*
X25915000Y19360750D01*
X26073750Y19202000D01*
X26948000Y19202000D01*
X26948000Y19876250D01*
X27202000Y19876250D01*
X27202000Y19202000D01*
X28076250Y19202000D01*
X28210556Y19336306D01*
X30090000Y19336306D01*
X30090000Y19095747D01*
X30248750Y18936997D01*
X30973000Y18936997D01*
X30973000Y19686247D01*
X31227000Y19686247D01*
X31227000Y18936997D01*
X31951250Y18936997D01*
X32110000Y19095747D01*
X32110000Y19336306D01*
X32013327Y19569695D01*
X31834699Y19748324D01*
X31601310Y19844997D01*
X31385750Y19844997D01*
X31227000Y19686247D01*
X30973000Y19686247D01*
X30814250Y19844997D01*
X30598690Y19844997D01*
X30365301Y19748324D01*
X30186673Y19569695D01*
X30090000Y19336306D01*
X28210556Y19336306D01*
X28235000Y19360750D01*
X28235000Y19526310D01*
X28138327Y19759699D01*
X27959698Y19938327D01*
X27726309Y20035000D01*
X27360750Y20035000D01*
X27202000Y19876250D01*
X26948000Y19876250D01*
X26789250Y20035000D01*
X26423691Y20035000D01*
X26190302Y19938327D01*
X26011673Y19759699D01*
X25915000Y19526310D01*
X24085000Y19526310D01*
X23988327Y19759699D01*
X23809698Y19938327D01*
X23576309Y20035000D01*
X23210750Y20035000D01*
X23052000Y19876250D01*
X22798000Y19876250D01*
X22639250Y20035000D01*
X22273691Y20035000D01*
X22040302Y19938327D01*
X21861673Y19759699D01*
X21765000Y19526310D01*
X21289691Y19526310D01*
X19785365Y21030635D01*
X19785365Y21500000D01*
X19752225Y21666607D01*
X19657850Y21807850D01*
X19516607Y21902225D01*
X19350000Y21935365D01*
X16850000Y21935365D01*
X16683393Y21902225D01*
X16542150Y21807850D01*
X16447775Y21666607D01*
X16414635Y21500000D01*
X16414635Y20500000D01*
X16447775Y20333393D01*
X16452047Y20327000D01*
X5496555Y20327000D01*
X5701097Y20531542D01*
X5827000Y20835499D01*
X5827000Y21164501D01*
X5701097Y21468458D01*
X5468458Y21701097D01*
X5164501Y21827000D01*
X4835499Y21827000D01*
X4531542Y21701097D01*
X4530126Y21699681D01*
X4457850Y21807850D01*
X4316607Y21902225D01*
X4150000Y21935365D01*
X1650000Y21935365D01*
X1483393Y21902225D01*
X1342150Y21807850D01*
X1247775Y21666607D01*
X1214635Y21500000D01*
X1214635Y20500000D01*
X1247775Y20333393D01*
X1252047Y20327000D01*
X527000Y20327000D01*
X527000Y23500000D01*
X1214635Y23500000D01*
X1214635Y22500000D01*
X1247775Y22333393D01*
X1342150Y22192150D01*
X1483393Y22097775D01*
X1650000Y22064635D01*
X4150000Y22064635D01*
X4316607Y22097775D01*
X4457850Y22192150D01*
X4530126Y22300319D01*
X4531542Y22298903D01*
X4835499Y22173000D01*
X5164501Y22173000D01*
X5468458Y22298903D01*
X5701097Y22531542D01*
X5827000Y22835499D01*
X5827000Y23164501D01*
X5701097Y23468458D01*
X5669555Y23500000D01*
X16414635Y23500000D01*
X16414635Y22500000D01*
X16447775Y22333393D01*
X16542150Y22192150D01*
X16683393Y22097775D01*
X16850000Y22064635D01*
X19350000Y22064635D01*
X19516607Y22097775D01*
X19657850Y22192150D01*
X19752225Y22333393D01*
X19785365Y22500000D01*
X19864635Y22500000D01*
X19864635Y22000000D01*
X19897775Y21833393D01*
X19943747Y21764590D01*
X19923000Y21714501D01*
X19923000Y21385499D01*
X20048903Y21081542D01*
X20281542Y20848903D01*
X20585499Y20723000D01*
X20914501Y20723000D01*
X21218458Y20848903D01*
X21451097Y21081542D01*
X21577000Y21385499D01*
X21577000Y21714501D01*
X21556253Y21764590D01*
X21602225Y21833393D01*
X21635365Y22000000D01*
X21635365Y22500000D01*
X21602225Y22666607D01*
X21507850Y22807850D01*
X21366607Y22902225D01*
X21200000Y22935365D01*
X20300000Y22935365D01*
X20133393Y22902225D01*
X19992150Y22807850D01*
X19897775Y22666607D01*
X19864635Y22500000D01*
X19785365Y22500000D01*
X19785365Y23500000D01*
X19752225Y23666607D01*
X19657850Y23807850D01*
X19516607Y23902225D01*
X19350000Y23935365D01*
X16850000Y23935365D01*
X16683393Y23902225D01*
X16542150Y23807850D01*
X16447775Y23666607D01*
X16414635Y23500000D01*
X5669555Y23500000D01*
X5468458Y23701097D01*
X5164501Y23827000D01*
X4835499Y23827000D01*
X4531542Y23701097D01*
X4530126Y23699681D01*
X4457850Y23807850D01*
X4316607Y23902225D01*
X4150000Y23935365D01*
X1650000Y23935365D01*
X1483393Y23902225D01*
X1342150Y23807850D01*
X1247775Y23666607D01*
X1214635Y23500000D01*
X527000Y23500000D01*
X527000Y25500000D01*
X1214635Y25500000D01*
X1214635Y24500000D01*
X1247775Y24333393D01*
X1342150Y24192150D01*
X1483393Y24097775D01*
X1650000Y24064635D01*
X4150000Y24064635D01*
X4316607Y24097775D01*
X4457850Y24192150D01*
X4552225Y24333393D01*
X4585365Y24500000D01*
X4585365Y25500000D01*
X16414635Y25500000D01*
X16414635Y24500000D01*
X16447775Y24333393D01*
X16542150Y24192150D01*
X16683393Y24097775D01*
X16850000Y24064635D01*
X19350000Y24064635D01*
X19516607Y24097775D01*
X19657850Y24192150D01*
X19752225Y24333393D01*
X19768548Y24415452D01*
X19945687Y24238313D01*
X19897775Y24166607D01*
X19864635Y24000000D01*
X19864635Y23500000D01*
X19897775Y23333393D01*
X19992150Y23192150D01*
X20133393Y23097775D01*
X20300000Y23064635D01*
X21200000Y23064635D01*
X21366607Y23097775D01*
X21507850Y23192150D01*
X21602225Y23333393D01*
X21635365Y23500000D01*
X21635365Y24000000D01*
X21602225Y24166607D01*
X21507850Y24307850D01*
X21366607Y24402225D01*
X21305611Y24414358D01*
X21293522Y24475134D01*
X21165994Y24665994D01*
X21117815Y24698186D01*
X20959494Y24856507D01*
X21951000Y24856507D01*
X21951000Y24383493D01*
X22132014Y23946486D01*
X22466486Y23612014D01*
X22903493Y23431000D01*
X23376507Y23431000D01*
X23813514Y23612014D01*
X24144500Y23943000D01*
X28689575Y23943000D01*
X32464108Y20168466D01*
X32422774Y20106604D01*
X32389634Y19939997D01*
X32389634Y18879997D01*
X32422774Y18713390D01*
X32465947Y18648777D01*
X32493995Y18507772D01*
X32512281Y18415844D01*
X32661911Y18191906D01*
X32718404Y18154159D01*
X32658392Y18142222D01*
X32517149Y18047847D01*
X32422774Y17906604D01*
X32418874Y17886997D01*
X31870281Y17886997D01*
X31862168Y17899139D01*
X32013327Y18050299D01*
X32110000Y18283688D01*
X32110000Y18524247D01*
X31951250Y18682997D01*
X31227000Y18682997D01*
X31227000Y18662997D01*
X30973000Y18662997D01*
X30973000Y18682997D01*
X30248750Y18682997D01*
X30090000Y18524247D01*
X30090000Y18283688D01*
X30186673Y18050299D01*
X30337832Y17899139D01*
X30322775Y17876604D01*
X30289635Y17709997D01*
X30289635Y16909997D01*
X30322775Y16743390D01*
X30417150Y16602147D01*
X30558393Y16507772D01*
X30725000Y16474632D01*
X31475000Y16474632D01*
X31641607Y16507772D01*
X31782850Y16602147D01*
X31870281Y16732997D01*
X32389634Y16732997D01*
X32389634Y16679997D01*
X32422774Y16513390D01*
X32517149Y16372147D01*
X32658392Y16277772D01*
X32824999Y16244632D01*
X32891744Y16244632D01*
X32840302Y16223324D01*
X32661673Y16044696D01*
X32565000Y15811307D01*
X32565000Y15595747D01*
X32723750Y15436997D01*
X33473000Y15436997D01*
X33473000Y15456997D01*
X33727000Y15456997D01*
X33727000Y15436997D01*
X33747000Y15436997D01*
X33747000Y15182997D01*
X33727000Y15182997D01*
X33727000Y14458747D01*
X33885750Y14299997D01*
X34126309Y14299997D01*
X34273000Y14360758D01*
X34273000Y14060499D01*
X34398903Y13756542D01*
X34631542Y13523903D01*
X34935499Y13398000D01*
X35264501Y13398000D01*
X35568458Y13523903D01*
X35801097Y13756542D01*
X35927000Y14060499D01*
X35927000Y14389501D01*
X35820637Y14646284D01*
X35902225Y14768390D01*
X35935365Y14934997D01*
X35935365Y15684997D01*
X35902225Y15851604D01*
X35807850Y15992847D01*
X35677000Y16080278D01*
X35677000Y16368239D01*
X35682849Y16372147D01*
X35777224Y16513390D01*
X35810364Y16679997D01*
X35810364Y17524247D01*
X36090000Y17524247D01*
X36090000Y17283688D01*
X36186673Y17050299D01*
X36365301Y16871670D01*
X36598690Y16774997D01*
X36814250Y16774997D01*
X36973000Y16933747D01*
X36973000Y17682997D01*
X37227000Y17682997D01*
X37227000Y16933747D01*
X37385750Y16774997D01*
X37601310Y16774997D01*
X37834699Y16871670D01*
X38013327Y17050299D01*
X38110000Y17283688D01*
X38110000Y17524247D01*
X37951250Y17682997D01*
X37227000Y17682997D01*
X36973000Y17682997D01*
X36248750Y17682997D01*
X36090000Y17524247D01*
X35810364Y17524247D01*
X35810364Y17739997D01*
X35777224Y17906604D01*
X35682849Y18047847D01*
X35541606Y18142222D01*
X35481596Y18154159D01*
X35538089Y18191906D01*
X35687720Y18415844D01*
X35727000Y18613318D01*
X35727000Y18613319D01*
X35734054Y18648781D01*
X35777224Y18713390D01*
X35781124Y18732997D01*
X36329719Y18732997D01*
X36337832Y18720855D01*
X36186673Y18569695D01*
X36090000Y18336306D01*
X36090000Y18095747D01*
X36248750Y17936997D01*
X36973000Y17936997D01*
X36973000Y17956997D01*
X37227000Y17956997D01*
X37227000Y17936997D01*
X37951250Y17936997D01*
X38110000Y18095747D01*
X38110000Y18336306D01*
X38013327Y18569695D01*
X37862168Y18720855D01*
X37877225Y18743390D01*
X37910365Y18909997D01*
X37910365Y19709997D01*
X37877225Y19876604D01*
X37864766Y19895250D01*
X37927000Y20045496D01*
X37927000Y20374498D01*
X37801097Y20678455D01*
X37568458Y20911094D01*
X37264501Y21036997D01*
X36935499Y21036997D01*
X36631542Y20911094D01*
X36398903Y20678455D01*
X36273000Y20374498D01*
X36273000Y20086997D01*
X35781124Y20086997D01*
X35777224Y20106604D01*
X35682849Y20247847D01*
X35541606Y20342222D01*
X35374999Y20375362D01*
X34887659Y20375362D01*
X34784698Y20478324D01*
X34551309Y20574997D01*
X34385749Y20574997D01*
X34226999Y20416247D01*
X34226999Y19536997D01*
X34246999Y19536997D01*
X34246999Y19282997D01*
X34226999Y19282997D01*
X34226999Y19262997D01*
X33972999Y19262997D01*
X33972999Y19282997D01*
X33952999Y19282997D01*
X33952999Y19536997D01*
X33972999Y19536997D01*
X33972999Y20416247D01*
X33814249Y20574997D01*
X33813409Y20574997D01*
X33787719Y20704149D01*
X33638089Y20928087D01*
X33581559Y20965859D01*
X30907631Y23639787D01*
X32499392Y23639787D01*
X32568857Y23397603D01*
X33092302Y23210856D01*
X33647368Y23238638D01*
X34031143Y23397603D01*
X34100608Y23639787D01*
X33300000Y24440395D01*
X32499392Y23639787D01*
X30907631Y23639787D01*
X29719720Y24827698D01*
X31890856Y24827698D01*
X31918638Y24272632D01*
X32077603Y23888857D01*
X32319787Y23819392D01*
X33120395Y24620000D01*
X32319787Y25420608D01*
X32077603Y25351143D01*
X31890856Y24827698D01*
X29719720Y24827698D01*
X29495860Y25051557D01*
X29458086Y25108090D01*
X29234148Y25257720D01*
X29036674Y25297000D01*
X29036672Y25297000D01*
X28969996Y25310263D01*
X28903320Y25297000D01*
X24144500Y25297000D01*
X23813514Y25627986D01*
X23376507Y25809000D01*
X22903493Y25809000D01*
X22466486Y25627986D01*
X22132014Y25293514D01*
X21951000Y24856507D01*
X20959494Y24856507D01*
X20448188Y25367812D01*
X20415994Y25415994D01*
X20225134Y25543522D01*
X20056829Y25577000D01*
X20056828Y25577000D01*
X20000000Y25588304D01*
X19943172Y25577000D01*
X19770049Y25577000D01*
X19752225Y25666607D01*
X19657850Y25807850D01*
X19516607Y25902225D01*
X19350000Y25935365D01*
X16850000Y25935365D01*
X16683393Y25902225D01*
X16542150Y25807850D01*
X16447775Y25666607D01*
X16414635Y25500000D01*
X4585365Y25500000D01*
X4552225Y25666607D01*
X4457850Y25807850D01*
X4316607Y25902225D01*
X4150000Y25935365D01*
X1650000Y25935365D01*
X1483393Y25902225D01*
X1342150Y25807850D01*
X1247775Y25666607D01*
X1214635Y25500000D01*
X527000Y25500000D01*
X527000Y27500000D01*
X1214635Y27500000D01*
X1214635Y26500000D01*
X1247775Y26333393D01*
X1342150Y26192150D01*
X1483393Y26097775D01*
X1650000Y26064635D01*
X4150000Y26064635D01*
X4316607Y26097775D01*
X4457850Y26192150D01*
X4552225Y26333393D01*
X4585365Y26500000D01*
X4585365Y27500000D01*
X16414635Y27500000D01*
X16414635Y26500000D01*
X16447775Y26333393D01*
X16542150Y26192150D01*
X16683393Y26097775D01*
X16850000Y26064635D01*
X19350000Y26064635D01*
X19516607Y26097775D01*
X19657850Y26192150D01*
X19752225Y26333393D01*
X19770049Y26423000D01*
X32962458Y26423000D01*
X33363530Y26021928D01*
X32952632Y26001362D01*
X32568857Y25842397D01*
X32499392Y25600213D01*
X33300000Y24799605D01*
X33314143Y24813747D01*
X33493748Y24634142D01*
X33479605Y24620000D01*
X34280213Y23819392D01*
X34522397Y23888857D01*
X34709144Y24412302D01*
X34695234Y24690224D01*
X39923000Y19462457D01*
X39923001Y9156833D01*
X39911696Y9100000D01*
X39932221Y8996817D01*
X39956479Y8874866D01*
X40084007Y8684006D01*
X40132186Y8651814D01*
X42714635Y6069364D01*
X42714635Y5550000D01*
X42747775Y5383393D01*
X42842150Y5242150D01*
X42973000Y5154719D01*
X42973001Y4256832D01*
X42961696Y4200000D01*
X43006479Y3974866D01*
X43064635Y3887829D01*
X43064635Y3550000D01*
X43097775Y3383393D01*
X43192150Y3242150D01*
X43333393Y3147775D01*
X43500000Y3114635D01*
X44000000Y3114635D01*
X44166607Y3147775D01*
X44307850Y3242150D01*
X44389549Y3364423D01*
X44461673Y3190301D01*
X44640302Y3011673D01*
X44873691Y2915000D01*
X44966250Y2915000D01*
X45125000Y3073750D01*
X45125000Y3873000D01*
X45375000Y3873000D01*
X45375000Y3073750D01*
X45533750Y2915000D01*
X45626309Y2915000D01*
X45859698Y3011673D01*
X46038327Y3190301D01*
X46135000Y3423690D01*
X46135000Y3714250D01*
X45976250Y3873000D01*
X45375000Y3873000D01*
X45125000Y3873000D01*
X45103000Y3873000D01*
X45103000Y4127000D01*
X45125000Y4127000D01*
X45125000Y4147000D01*
X45375000Y4147000D01*
X45375000Y4127000D01*
X45976250Y4127000D01*
X46135000Y4285750D01*
X46135000Y4576310D01*
X46038327Y4809699D01*
X45933025Y4915000D01*
X45976310Y4915000D01*
X46209699Y5011673D01*
X46388327Y5190302D01*
X46485000Y5423691D01*
X46485000Y5714250D01*
X46326250Y5873000D01*
X45577000Y5873000D01*
X45577000Y5853000D01*
X45323000Y5853000D01*
X45323000Y5873000D01*
X44573750Y5873000D01*
X44415000Y5714250D01*
X44415000Y5423691D01*
X44511673Y5190302D01*
X44690301Y5011673D01*
X44693483Y5010355D01*
X44640302Y4988327D01*
X44461673Y4809699D01*
X44389549Y4635577D01*
X44307850Y4757850D01*
X44166607Y4852225D01*
X44127000Y4860103D01*
X44127000Y5154719D01*
X44257850Y5242150D01*
X44352225Y5383393D01*
X44385365Y5550000D01*
X44385365Y6450000D01*
X44360241Y6576309D01*
X44415000Y6576309D01*
X44415000Y6285750D01*
X44573750Y6127000D01*
X45323000Y6127000D01*
X45323000Y6926250D01*
X45577000Y6926250D01*
X45577000Y6127000D01*
X46326250Y6127000D01*
X46485000Y6285750D01*
X46485000Y6576309D01*
X46388327Y6809698D01*
X46209699Y6988327D01*
X45976310Y7085000D01*
X45735750Y7085000D01*
X45577000Y6926250D01*
X45323000Y6926250D01*
X45164250Y7085000D01*
X44923690Y7085000D01*
X44690301Y6988327D01*
X44511673Y6809698D01*
X44415000Y6576309D01*
X44360241Y6576309D01*
X44352225Y6616607D01*
X44257850Y6757850D01*
X44116607Y6852225D01*
X43950000Y6885365D01*
X43530636Y6885365D01*
X41077000Y9339000D01*
X41077000Y19644631D01*
X41088304Y19701459D01*
X41068703Y19800000D01*
X41043522Y19926592D01*
X40915994Y20117452D01*
X40867815Y20149644D01*
X33649646Y27367812D01*
X33617452Y27415994D01*
X33426592Y27543522D01*
X33258287Y27577000D01*
X33258286Y27577000D01*
X33201458Y27588304D01*
X33144630Y27577000D01*
X19770049Y27577000D01*
X19752225Y27666607D01*
X19657850Y27807850D01*
X19516607Y27902225D01*
X19350000Y27935365D01*
X16850000Y27935365D01*
X16683393Y27902225D01*
X16542150Y27807850D01*
X16447775Y27666607D01*
X16414635Y27500000D01*
X4585365Y27500000D01*
X4552225Y27666607D01*
X4457850Y27807850D01*
X4316607Y27902225D01*
X4150000Y27935365D01*
X1650000Y27935365D01*
X1483393Y27902225D01*
X1342150Y27807850D01*
X1247775Y27666607D01*
X1214635Y27500000D01*
X527000Y27500000D01*
X527000Y29500000D01*
X1214635Y29500000D01*
X1214635Y28500000D01*
X1247775Y28333393D01*
X1342150Y28192150D01*
X1483393Y28097775D01*
X1650000Y28064635D01*
X4150000Y28064635D01*
X4316607Y28097775D01*
X4457850Y28192150D01*
X4552225Y28333393D01*
X4570049Y28423000D01*
X6407445Y28423000D01*
X6531542Y28298903D01*
X6835499Y28173000D01*
X7164501Y28173000D01*
X7468458Y28298903D01*
X7701097Y28531542D01*
X7827000Y28835499D01*
X7827000Y29164501D01*
X7701097Y29468458D01*
X7669555Y29500000D01*
X16414635Y29500000D01*
X16414635Y28500000D01*
X16447775Y28333393D01*
X16542150Y28192150D01*
X16683393Y28097775D01*
X16850000Y28064635D01*
X19350000Y28064635D01*
X19516607Y28097775D01*
X19657850Y28192150D01*
X19752225Y28333393D01*
X19770049Y28423000D01*
X34711000Y28423000D01*
X42973000Y20160998D01*
X42973001Y18345281D01*
X42842150Y18257850D01*
X42747775Y18116607D01*
X42714635Y17950000D01*
X42714635Y17050000D01*
X42747775Y16883393D01*
X42842150Y16742150D01*
X42973000Y16654719D01*
X42973001Y15756832D01*
X42961696Y15700000D01*
X43006479Y15474866D01*
X43064635Y15387829D01*
X43064635Y15050000D01*
X43097775Y14883393D01*
X43192150Y14742150D01*
X43333393Y14647775D01*
X43500000Y14614635D01*
X44000000Y14614635D01*
X44166607Y14647775D01*
X44307850Y14742150D01*
X44389549Y14864423D01*
X44461673Y14690301D01*
X44640302Y14511673D01*
X44873691Y14415000D01*
X44966250Y14415000D01*
X45125000Y14573750D01*
X45125000Y15373000D01*
X45375000Y15373000D01*
X45375000Y14573750D01*
X45533750Y14415000D01*
X45626309Y14415000D01*
X45859698Y14511673D01*
X46038327Y14690301D01*
X46135000Y14923690D01*
X46135000Y15214250D01*
X45976250Y15373000D01*
X45375000Y15373000D01*
X45125000Y15373000D01*
X45103000Y15373000D01*
X45103000Y15627000D01*
X45125000Y15627000D01*
X45125000Y15647000D01*
X45375000Y15647000D01*
X45375000Y15627000D01*
X45976250Y15627000D01*
X46135000Y15785750D01*
X46135000Y16076310D01*
X46038327Y16309699D01*
X45933025Y16415000D01*
X45976310Y16415000D01*
X46209699Y16511673D01*
X46388327Y16690302D01*
X46485000Y16923691D01*
X46485000Y17214250D01*
X46326250Y17373000D01*
X45577000Y17373000D01*
X45577000Y17353000D01*
X45323000Y17353000D01*
X45323000Y17373000D01*
X44573750Y17373000D01*
X44415000Y17214250D01*
X44415000Y16923691D01*
X44511673Y16690302D01*
X44690301Y16511673D01*
X44693483Y16510355D01*
X44640302Y16488327D01*
X44461673Y16309699D01*
X44389549Y16135577D01*
X44307850Y16257850D01*
X44166607Y16352225D01*
X44127000Y16360103D01*
X44127000Y16654719D01*
X44257850Y16742150D01*
X44352225Y16883393D01*
X44385365Y17050000D01*
X44385365Y17950000D01*
X44360241Y18076309D01*
X44415000Y18076309D01*
X44415000Y17785750D01*
X44573750Y17627000D01*
X45323000Y17627000D01*
X45323000Y18426250D01*
X45577000Y18426250D01*
X45577000Y17627000D01*
X46326250Y17627000D01*
X46485000Y17785750D01*
X46485000Y18076309D01*
X46388327Y18309698D01*
X46209699Y18488327D01*
X45976310Y18585000D01*
X45735750Y18585000D01*
X45577000Y18426250D01*
X45323000Y18426250D01*
X45164250Y18585000D01*
X44923690Y18585000D01*
X44690301Y18488327D01*
X44511673Y18309698D01*
X44415000Y18076309D01*
X44360241Y18076309D01*
X44352225Y18116607D01*
X44257850Y18257850D01*
X44127000Y18345281D01*
X44127000Y18614635D01*
X44900000Y18614635D01*
X45066607Y18647775D01*
X45207850Y18742150D01*
X45302225Y18883393D01*
X45310103Y18923000D01*
X46821537Y18923000D01*
X46842150Y18892150D01*
X46980063Y18800000D01*
X46842150Y18707850D01*
X46747775Y18566607D01*
X46714635Y18400000D01*
X46714635Y17800000D01*
X46747775Y17633393D01*
X46823000Y17520810D01*
X46823000Y17371676D01*
X46809737Y17305000D01*
X46823000Y17238324D01*
X46823000Y17238322D01*
X46862281Y17040848D01*
X47011911Y16816910D01*
X47068441Y16779138D01*
X48938000Y14909578D01*
X48938000Y14443891D01*
X49118710Y14007618D01*
X49452618Y13673710D01*
X49888891Y13493000D01*
X50361109Y13493000D01*
X50797382Y13673710D01*
X51131290Y14007618D01*
X51312000Y14443891D01*
X51312000Y14916109D01*
X51131290Y15352382D01*
X50797382Y15686290D01*
X50361109Y15867000D01*
X49895422Y15867000D01*
X48202879Y17559542D01*
X48252225Y17633393D01*
X48285365Y17800000D01*
X48285365Y18400000D01*
X48252225Y18566607D01*
X48157850Y18707850D01*
X48019937Y18800000D01*
X48157850Y18892150D01*
X48252225Y19033393D01*
X48285365Y19200000D01*
X48285365Y19800000D01*
X48252225Y19966607D01*
X48157850Y20107850D01*
X48077000Y20161872D01*
X48077000Y20496000D01*
X48961384Y21380384D01*
X48962775Y21373393D01*
X49057150Y21232150D01*
X49198393Y21137775D01*
X49365000Y21104635D01*
X50885000Y21104635D01*
X51051607Y21137775D01*
X51192850Y21232150D01*
X51287225Y21373393D01*
X51320365Y21540000D01*
X51320365Y23060000D01*
X51287225Y23226607D01*
X51192850Y23367850D01*
X51051607Y23462225D01*
X50885000Y23495365D01*
X49365000Y23495365D01*
X49198393Y23462225D01*
X49057150Y23367850D01*
X48962775Y23226607D01*
X48929635Y23060000D01*
X48929635Y22861378D01*
X48839866Y22843522D01*
X48649006Y22715994D01*
X48616814Y22667815D01*
X47132188Y21183188D01*
X47084006Y21150994D01*
X46956478Y20960133D01*
X46950104Y20928087D01*
X46911696Y20735000D01*
X46923000Y20678172D01*
X46923000Y20161872D01*
X46842150Y20107850D01*
X46821537Y20077000D01*
X45310103Y20077000D01*
X45302225Y20116607D01*
X45207850Y20257850D01*
X45066607Y20352225D01*
X44900000Y20385365D01*
X44135393Y20385365D01*
X44138304Y20400000D01*
X44093522Y20625135D01*
X43998185Y20767817D01*
X43998184Y20767818D01*
X43965994Y20815994D01*
X43917818Y20848184D01*
X39909495Y24856507D01*
X43541000Y24856507D01*
X43541000Y24383493D01*
X43722014Y23946486D01*
X44056486Y23612014D01*
X44493493Y23431000D01*
X44966507Y23431000D01*
X45403514Y23612014D01*
X45737986Y23946486D01*
X45919000Y24383493D01*
X45919000Y24856507D01*
X45737986Y25293514D01*
X45403514Y25627986D01*
X44966507Y25809000D01*
X44493493Y25809000D01*
X44056486Y25627986D01*
X43722014Y25293514D01*
X43541000Y24856507D01*
X39909495Y24856507D01*
X35398188Y29367812D01*
X35365994Y29415994D01*
X35175134Y29543522D01*
X35006829Y29577000D01*
X35006828Y29577000D01*
X34950000Y29588304D01*
X34893172Y29577000D01*
X19770049Y29577000D01*
X19752225Y29666607D01*
X19657850Y29807850D01*
X19516607Y29902225D01*
X19350000Y29935365D01*
X16850000Y29935365D01*
X16683393Y29902225D01*
X16542150Y29807850D01*
X16447775Y29666607D01*
X16414635Y29500000D01*
X7669555Y29500000D01*
X7468458Y29701097D01*
X7164501Y29827000D01*
X6835499Y29827000D01*
X6531542Y29701097D01*
X6407445Y29577000D01*
X4570049Y29577000D01*
X4552225Y29666607D01*
X4457850Y29807850D01*
X4316607Y29902225D01*
X4150000Y29935365D01*
X1650000Y29935365D01*
X1483393Y29902225D01*
X1342150Y29807850D01*
X1247775Y29666607D01*
X1214635Y29500000D01*
X527000Y29500000D01*
X527000Y31500000D01*
X1214635Y31500000D01*
X1214635Y30500000D01*
X1247775Y30333393D01*
X1342150Y30192150D01*
X1483393Y30097775D01*
X1650000Y30064635D01*
X4150000Y30064635D01*
X4316607Y30097775D01*
X4457850Y30192150D01*
X4552225Y30333393D01*
X4570049Y30423000D01*
X6407445Y30423000D01*
X6531542Y30298903D01*
X6835499Y30173000D01*
X7164501Y30173000D01*
X7468458Y30298903D01*
X7701097Y30531542D01*
X7827000Y30835499D01*
X7827000Y31164501D01*
X7701097Y31468458D01*
X7669555Y31500000D01*
X16414635Y31500000D01*
X16414635Y30500000D01*
X16447775Y30333393D01*
X16542150Y30192150D01*
X16683393Y30097775D01*
X16850000Y30064635D01*
X19350000Y30064635D01*
X19516607Y30097775D01*
X19657850Y30192150D01*
X19752225Y30333393D01*
X19770049Y30423000D01*
X38211000Y30423000D01*
X40001814Y28632185D01*
X40034006Y28584006D01*
X40224866Y28456478D01*
X40393171Y28423000D01*
X40449999Y28411696D01*
X40506827Y28423000D01*
X42739897Y28423000D01*
X42747775Y28383393D01*
X42842150Y28242150D01*
X42973000Y28154719D01*
X42973001Y27256832D01*
X42961696Y27200000D01*
X43006479Y26974866D01*
X43064635Y26887829D01*
X43064635Y26550000D01*
X43097775Y26383393D01*
X43192150Y26242150D01*
X43333393Y26147775D01*
X43500000Y26114635D01*
X44000000Y26114635D01*
X44166607Y26147775D01*
X44307850Y26242150D01*
X44389549Y26364423D01*
X44461673Y26190301D01*
X44640302Y26011673D01*
X44873691Y25915000D01*
X44966250Y25915000D01*
X45125000Y26073750D01*
X45125000Y26873000D01*
X45375000Y26873000D01*
X45375000Y26073750D01*
X45533750Y25915000D01*
X45626309Y25915000D01*
X45859698Y26011673D01*
X46038327Y26190301D01*
X46135000Y26423690D01*
X46135000Y26714250D01*
X45976250Y26873000D01*
X45375000Y26873000D01*
X45125000Y26873000D01*
X45103000Y26873000D01*
X45103000Y27127000D01*
X45125000Y27127000D01*
X45125000Y27147000D01*
X45375000Y27147000D01*
X45375000Y27127000D01*
X45976250Y27127000D01*
X46135000Y27285750D01*
X46135000Y27576310D01*
X46038327Y27809699D01*
X45933025Y27915000D01*
X45976310Y27915000D01*
X46209699Y28011673D01*
X46388327Y28190302D01*
X46485000Y28423691D01*
X46485000Y28714250D01*
X46326250Y28873000D01*
X45577000Y28873000D01*
X45577000Y28853000D01*
X45323000Y28853000D01*
X45323000Y28873000D01*
X44573750Y28873000D01*
X44415000Y28714250D01*
X44415000Y28423691D01*
X44511673Y28190302D01*
X44690301Y28011673D01*
X44693483Y28010355D01*
X44640302Y27988327D01*
X44461673Y27809699D01*
X44389549Y27635577D01*
X44307850Y27757850D01*
X44166607Y27852225D01*
X44127000Y27860103D01*
X44127000Y28154719D01*
X44257850Y28242150D01*
X44352225Y28383393D01*
X44385365Y28550000D01*
X44385365Y29450000D01*
X44360241Y29576309D01*
X44415000Y29576309D01*
X44415000Y29285750D01*
X44573750Y29127000D01*
X45323000Y29127000D01*
X45323000Y29926250D01*
X45577000Y29926250D01*
X45577000Y29127000D01*
X46326250Y29127000D01*
X46485000Y29285750D01*
X46485000Y29576309D01*
X46388327Y29809698D01*
X46209699Y29988327D01*
X45976310Y30085000D01*
X45735750Y30085000D01*
X45577000Y29926250D01*
X45323000Y29926250D01*
X45164250Y30085000D01*
X44923690Y30085000D01*
X44690301Y29988327D01*
X44511673Y29809698D01*
X44415000Y29576309D01*
X44360241Y29576309D01*
X44352225Y29616607D01*
X44257850Y29757850D01*
X44116607Y29852225D01*
X43950000Y29885365D01*
X43150000Y29885365D01*
X42983393Y29852225D01*
X42842150Y29757850D01*
X42747775Y29616607D01*
X42739897Y29577000D01*
X40689001Y29577000D01*
X38898188Y31367812D01*
X38865994Y31415994D01*
X38815101Y31450000D01*
X43664635Y31450000D01*
X43664635Y30550000D01*
X43697775Y30383393D01*
X43792150Y30242150D01*
X43933393Y30147775D01*
X44100000Y30114635D01*
X44900000Y30114635D01*
X45066607Y30147775D01*
X45207850Y30242150D01*
X45302225Y30383393D01*
X45310103Y30423000D01*
X46821537Y30423000D01*
X46842150Y30392150D01*
X46980063Y30300000D01*
X46842150Y30207850D01*
X46747775Y30066607D01*
X46714635Y29900000D01*
X46714635Y29300000D01*
X46747775Y29133393D01*
X46823000Y29020810D01*
X46823000Y28871676D01*
X46809737Y28805000D01*
X46823000Y28738324D01*
X46823000Y28738322D01*
X46862281Y28540848D01*
X47011911Y28316910D01*
X47068441Y28279138D01*
X48938000Y26409578D01*
X48938000Y25943891D01*
X49118710Y25507618D01*
X49452618Y25173710D01*
X49888891Y24993000D01*
X50361109Y24993000D01*
X50797382Y25173710D01*
X51131290Y25507618D01*
X51312000Y25943891D01*
X51312000Y26416109D01*
X51131290Y26852382D01*
X50797382Y27186290D01*
X50361109Y27367000D01*
X49895422Y27367000D01*
X48202879Y29059542D01*
X48252225Y29133393D01*
X48285365Y29300000D01*
X48285365Y29900000D01*
X48252225Y30066607D01*
X48157850Y30207850D01*
X48019937Y30300000D01*
X48157850Y30392150D01*
X48252225Y30533393D01*
X48285365Y30700000D01*
X48285365Y31300000D01*
X48252225Y31466607D01*
X48157850Y31607850D01*
X48077000Y31661872D01*
X48077000Y31996000D01*
X48961384Y32880384D01*
X48962775Y32873393D01*
X49057150Y32732150D01*
X49198393Y32637775D01*
X49365000Y32604635D01*
X50885000Y32604635D01*
X51051607Y32637775D01*
X51192850Y32732150D01*
X51287225Y32873393D01*
X51320365Y33040000D01*
X51320365Y34560000D01*
X51287225Y34726607D01*
X51192850Y34867850D01*
X51051607Y34962225D01*
X50885000Y34995365D01*
X49365000Y34995365D01*
X49198393Y34962225D01*
X49057150Y34867850D01*
X48962775Y34726607D01*
X48929635Y34560000D01*
X48929635Y34361378D01*
X48839866Y34343522D01*
X48649006Y34215994D01*
X48616814Y34167815D01*
X47132188Y32683188D01*
X47084006Y32650994D01*
X46956478Y32460133D01*
X46931268Y32333393D01*
X46911696Y32235000D01*
X46923000Y32178172D01*
X46923000Y31661872D01*
X46842150Y31607850D01*
X46821537Y31577000D01*
X45310103Y31577000D01*
X45302225Y31616607D01*
X45207850Y31757850D01*
X45066607Y31852225D01*
X44900000Y31885365D01*
X44100000Y31885365D01*
X43933393Y31852225D01*
X43792150Y31757850D01*
X43697775Y31616607D01*
X43664635Y31450000D01*
X38815101Y31450000D01*
X38675134Y31543522D01*
X38506829Y31577000D01*
X38506828Y31577000D01*
X38450000Y31588304D01*
X38393172Y31577000D01*
X19770049Y31577000D01*
X19752225Y31666607D01*
X19657850Y31807850D01*
X19516607Y31902225D01*
X19350000Y31935365D01*
X16850000Y31935365D01*
X16683393Y31902225D01*
X16542150Y31807850D01*
X16447775Y31666607D01*
X16414635Y31500000D01*
X7669555Y31500000D01*
X7468458Y31701097D01*
X7164501Y31827000D01*
X6835499Y31827000D01*
X6531542Y31701097D01*
X6407445Y31577000D01*
X4570049Y31577000D01*
X4552225Y31666607D01*
X4457850Y31807850D01*
X4316607Y31902225D01*
X4150000Y31935365D01*
X1650000Y31935365D01*
X1483393Y31902225D01*
X1342150Y31807850D01*
X1247775Y31666607D01*
X1214635Y31500000D01*
X527000Y31500000D01*
X527000Y33807000D01*
X1214635Y33119364D01*
X1214635Y32500000D01*
X1247775Y32333393D01*
X1342150Y32192150D01*
X1483393Y32097775D01*
X1650000Y32064635D01*
X4150000Y32064635D01*
X4316607Y32097775D01*
X4457850Y32192150D01*
X4552225Y32333393D01*
X4585365Y32500000D01*
X4585365Y33500000D01*
X16414635Y33500000D01*
X16414635Y32500000D01*
X16447775Y32333393D01*
X16542150Y32192150D01*
X16683393Y32097775D01*
X16850000Y32064635D01*
X19350000Y32064635D01*
X19516607Y32097775D01*
X19657850Y32192150D01*
X19752225Y32333393D01*
X19770049Y32423000D01*
X38393172Y32423000D01*
X38450000Y32411696D01*
X38506828Y32423000D01*
X38506829Y32423000D01*
X38675134Y32456478D01*
X38865994Y32584006D01*
X38898188Y32632188D01*
X43880636Y37614635D01*
X44000000Y37614635D01*
X44166607Y37647775D01*
X44307850Y37742150D01*
X44389549Y37864423D01*
X44461673Y37690301D01*
X44640302Y37511673D01*
X44873691Y37415000D01*
X44966250Y37415000D01*
X45125000Y37573750D01*
X45125000Y38373000D01*
X45375000Y38373000D01*
X45375000Y37573750D01*
X45533750Y37415000D01*
X45626309Y37415000D01*
X45859698Y37511673D01*
X46038327Y37690301D01*
X46135000Y37923690D01*
X46135000Y38214250D01*
X45976250Y38373000D01*
X45375000Y38373000D01*
X45125000Y38373000D01*
X45103000Y38373000D01*
X45103000Y38627000D01*
X45125000Y38627000D01*
X45125000Y38647000D01*
X45375000Y38647000D01*
X45375000Y38627000D01*
X45976250Y38627000D01*
X46135000Y38785750D01*
X46135000Y39076310D01*
X46038327Y39309699D01*
X45933025Y39415000D01*
X45976310Y39415000D01*
X46209699Y39511673D01*
X46388327Y39690302D01*
X46485000Y39923691D01*
X46485000Y40214250D01*
X46326250Y40373000D01*
X45577000Y40373000D01*
X45577000Y40353000D01*
X45323000Y40353000D01*
X45323000Y40373000D01*
X44573750Y40373000D01*
X44415000Y40214250D01*
X44415000Y39923691D01*
X44511673Y39690302D01*
X44690301Y39511673D01*
X44693483Y39510355D01*
X44640302Y39488327D01*
X44461673Y39309699D01*
X44389549Y39135577D01*
X44307850Y39257850D01*
X44166607Y39352225D01*
X44127000Y39360103D01*
X44127000Y39654719D01*
X44257850Y39742150D01*
X44352225Y39883393D01*
X44385365Y40050000D01*
X44385365Y40950000D01*
X44360241Y41076309D01*
X44415000Y41076309D01*
X44415000Y40785750D01*
X44573750Y40627000D01*
X45323000Y40627000D01*
X45323000Y41426250D01*
X45577000Y41426250D01*
X45577000Y40627000D01*
X46326250Y40627000D01*
X46485000Y40785750D01*
X46485000Y41076309D01*
X46388327Y41309698D01*
X46209699Y41488327D01*
X45976310Y41585000D01*
X45735750Y41585000D01*
X45577000Y41426250D01*
X45323000Y41426250D01*
X45164250Y41585000D01*
X44923690Y41585000D01*
X44690301Y41488327D01*
X44511673Y41309698D01*
X44415000Y41076309D01*
X44360241Y41076309D01*
X44352225Y41116607D01*
X44257850Y41257850D01*
X44116607Y41352225D01*
X43950000Y41385365D01*
X43150000Y41385365D01*
X42983393Y41352225D01*
X42842150Y41257850D01*
X42747775Y41116607D01*
X42714635Y40950000D01*
X42714635Y40050000D01*
X42747775Y39883393D01*
X42842150Y39742150D01*
X42973000Y39654719D01*
X42973001Y38756832D01*
X42961696Y38700000D01*
X43001698Y38498903D01*
X43006479Y38474866D01*
X43047489Y38413490D01*
X38211000Y33577000D01*
X19770049Y33577000D01*
X19752225Y33666607D01*
X19657850Y33807850D01*
X19516607Y33902225D01*
X19350000Y33935365D01*
X16850000Y33935365D01*
X16683393Y33902225D01*
X16542150Y33807850D01*
X16447775Y33666607D01*
X16414635Y33500000D01*
X4585365Y33500000D01*
X4552225Y33666607D01*
X4457850Y33807850D01*
X4335577Y33889550D01*
X4509698Y33961673D01*
X4688327Y34140301D01*
X4785000Y34373690D01*
X4785000Y34714250D01*
X4626250Y34873000D01*
X3027000Y34873000D01*
X3027000Y34853000D01*
X2773000Y34853000D01*
X2773000Y34873000D01*
X2753000Y34873000D01*
X2753000Y35127000D01*
X2773000Y35127000D01*
X2773000Y35976250D01*
X3027000Y35976250D01*
X3027000Y35127000D01*
X4626250Y35127000D01*
X4751646Y35252396D01*
X4833393Y35197775D01*
X5000000Y35164635D01*
X6000000Y35164635D01*
X6166607Y35197775D01*
X6307850Y35292150D01*
X6402225Y35433393D01*
X6435365Y35600000D01*
X6435365Y37400000D01*
X6564635Y37400000D01*
X6564635Y35600000D01*
X6597775Y35433393D01*
X6692150Y35292150D01*
X6833393Y35197775D01*
X7000000Y35164635D01*
X8000000Y35164635D01*
X8166607Y35197775D01*
X8307850Y35292150D01*
X8402225Y35433393D01*
X8435365Y35600000D01*
X8435365Y37400000D01*
X8564635Y37400000D01*
X8564635Y35600000D01*
X8597775Y35433393D01*
X8692150Y35292150D01*
X8833393Y35197775D01*
X9000000Y35164635D01*
X10000000Y35164635D01*
X10166607Y35197775D01*
X10307850Y35292150D01*
X10402225Y35433393D01*
X10435365Y35600000D01*
X10435365Y37400000D01*
X10564635Y37400000D01*
X10564635Y35600000D01*
X10597775Y35433393D01*
X10692150Y35292150D01*
X10833393Y35197775D01*
X11000000Y35164635D01*
X12000000Y35164635D01*
X12166607Y35197775D01*
X12307850Y35292150D01*
X12402225Y35433393D01*
X12435365Y35600000D01*
X12435365Y37400000D01*
X12564635Y37400000D01*
X12564635Y35600000D01*
X12597775Y35433393D01*
X12692150Y35292150D01*
X12833393Y35197775D01*
X13000000Y35164635D01*
X14000000Y35164635D01*
X14166607Y35197775D01*
X14307850Y35292150D01*
X14402225Y35433393D01*
X14435365Y35600000D01*
X14435365Y37400000D01*
X14564635Y37400000D01*
X14564635Y35600000D01*
X14597775Y35433393D01*
X14692150Y35292150D01*
X14833393Y35197775D01*
X15000000Y35164635D01*
X16000000Y35164635D01*
X16166607Y35197775D01*
X16307850Y35292150D01*
X16402225Y35433393D01*
X16414635Y35495783D01*
X16414635Y34500000D01*
X16447775Y34333393D01*
X16542150Y34192150D01*
X16683393Y34097775D01*
X16850000Y34064635D01*
X19350000Y34064635D01*
X19516607Y34097775D01*
X19657850Y34192150D01*
X19752225Y34333393D01*
X19760103Y34373000D01*
X19763128Y34373000D01*
X19817150Y34292150D01*
X19958393Y34197775D01*
X20125000Y34164635D01*
X20875000Y34164635D01*
X21041607Y34197775D01*
X21073783Y34219274D01*
X21185499Y34173000D01*
X21514501Y34173000D01*
X21818458Y34298903D01*
X22051097Y34531542D01*
X22177000Y34835499D01*
X22177000Y35164501D01*
X22051097Y35468458D01*
X21818458Y35701097D01*
X21514501Y35827000D01*
X21449239Y35827000D01*
X21510000Y35973691D01*
X21510000Y36214250D01*
X21351250Y36373000D01*
X20627000Y36373000D01*
X20627000Y36353000D01*
X20373000Y36353000D01*
X20373000Y36373000D01*
X19648750Y36373000D01*
X19490000Y36214250D01*
X19490000Y35973691D01*
X19520748Y35899458D01*
X19516607Y35902225D01*
X19350000Y35935365D01*
X16850000Y35935365D01*
X16683393Y35902225D01*
X16542150Y35807850D01*
X16447775Y35666607D01*
X16435365Y35604217D01*
X16435365Y37026309D01*
X19490000Y37026309D01*
X19490000Y36785750D01*
X19648750Y36627000D01*
X20373000Y36627000D01*
X20373000Y37376250D01*
X20627000Y37376250D01*
X20627000Y36627000D01*
X21351250Y36627000D01*
X21510000Y36785750D01*
X21510000Y37026309D01*
X21413327Y37259698D01*
X21234699Y37438327D01*
X21001310Y37535000D01*
X20785750Y37535000D01*
X20627000Y37376250D01*
X20373000Y37376250D01*
X20214250Y37535000D01*
X19998690Y37535000D01*
X19765301Y37438327D01*
X19586673Y37259698D01*
X19490000Y37026309D01*
X16435365Y37026309D01*
X16435365Y37400000D01*
X16402225Y37566607D01*
X16307850Y37707850D01*
X16166607Y37802225D01*
X16000000Y37835365D01*
X15000000Y37835365D01*
X14833393Y37802225D01*
X14692150Y37707850D01*
X14597775Y37566607D01*
X14564635Y37400000D01*
X14435365Y37400000D01*
X14402225Y37566607D01*
X14307850Y37707850D01*
X14166607Y37802225D01*
X14000000Y37835365D01*
X13000000Y37835365D01*
X12833393Y37802225D01*
X12692150Y37707850D01*
X12597775Y37566607D01*
X12564635Y37400000D01*
X12435365Y37400000D01*
X12402225Y37566607D01*
X12307850Y37707850D01*
X12166607Y37802225D01*
X12000000Y37835365D01*
X11000000Y37835365D01*
X10833393Y37802225D01*
X10692150Y37707850D01*
X10597775Y37566607D01*
X10564635Y37400000D01*
X10435365Y37400000D01*
X10402225Y37566607D01*
X10307850Y37707850D01*
X10166607Y37802225D01*
X10000000Y37835365D01*
X9000000Y37835365D01*
X8833393Y37802225D01*
X8692150Y37707850D01*
X8597775Y37566607D01*
X8564635Y37400000D01*
X8435365Y37400000D01*
X8402225Y37566607D01*
X8307850Y37707850D01*
X8166607Y37802225D01*
X8000000Y37835365D01*
X7000000Y37835365D01*
X6833393Y37802225D01*
X6692150Y37707850D01*
X6597775Y37566607D01*
X6564635Y37400000D01*
X6435365Y37400000D01*
X6402225Y37566607D01*
X6307850Y37707850D01*
X6166607Y37802225D01*
X6000000Y37835365D01*
X5000000Y37835365D01*
X4833393Y37802225D01*
X4692150Y37707850D01*
X4597775Y37566607D01*
X4564635Y37400000D01*
X4564635Y35983390D01*
X4509698Y36038327D01*
X4276309Y36135000D01*
X3185750Y36135000D01*
X3027000Y35976250D01*
X2773000Y35976250D01*
X2614250Y36135000D01*
X1523691Y36135000D01*
X1377000Y36074239D01*
X1377000Y37611000D01*
X1880636Y38114635D01*
X2000000Y38114635D01*
X2166607Y38147775D01*
X2307850Y38242150D01*
X2389549Y38364423D01*
X2461673Y38190301D01*
X2640302Y38011673D01*
X2873691Y37915000D01*
X2966250Y37915000D01*
X3125000Y38073750D01*
X3125000Y38873000D01*
X3375000Y38873000D01*
X3375000Y38073750D01*
X3533750Y37915000D01*
X3626309Y37915000D01*
X3859698Y38011673D01*
X4038327Y38190301D01*
X4135000Y38423690D01*
X4135000Y38714250D01*
X3976250Y38873000D01*
X3375000Y38873000D01*
X3125000Y38873000D01*
X3103000Y38873000D01*
X3103000Y39127000D01*
X3125000Y39127000D01*
X3125000Y39926250D01*
X3375000Y39926250D01*
X3375000Y39127000D01*
X3976250Y39127000D01*
X4135000Y39285750D01*
X4135000Y39364501D01*
X6173000Y39364501D01*
X6173000Y39035499D01*
X6298903Y38731542D01*
X6531542Y38498903D01*
X6835499Y38373000D01*
X7164501Y38373000D01*
X7245456Y38406532D01*
X7333393Y38347775D01*
X7500000Y38314635D01*
X8000000Y38314635D01*
X8166607Y38347775D01*
X8307850Y38442150D01*
X8402225Y38583393D01*
X8435365Y38750000D01*
X8435365Y39650000D01*
X8564635Y39650000D01*
X8564635Y38750000D01*
X8597775Y38583393D01*
X8692150Y38442150D01*
X8833393Y38347775D01*
X9000000Y38314635D01*
X9500000Y38314635D01*
X9666607Y38347775D01*
X9754544Y38406532D01*
X9835499Y38373000D01*
X10164501Y38373000D01*
X10468458Y38498903D01*
X10701097Y38731542D01*
X10827000Y39035499D01*
X10827000Y39364501D01*
X10701097Y39668458D01*
X10468458Y39901097D01*
X10164501Y40027000D01*
X9835499Y40027000D01*
X9754544Y39993468D01*
X9666607Y40052225D01*
X9500000Y40085365D01*
X9000000Y40085365D01*
X8833393Y40052225D01*
X8692150Y39957850D01*
X8597775Y39816607D01*
X8564635Y39650000D01*
X8435365Y39650000D01*
X8402225Y39816607D01*
X8307850Y39957850D01*
X8166607Y40052225D01*
X8000000Y40085365D01*
X7500000Y40085365D01*
X7333393Y40052225D01*
X7245456Y39993468D01*
X7164501Y40027000D01*
X6835499Y40027000D01*
X6531542Y39901097D01*
X6298903Y39668458D01*
X6173000Y39364501D01*
X4135000Y39364501D01*
X4135000Y39576310D01*
X4038327Y39809699D01*
X3859698Y39988327D01*
X3626309Y40085000D01*
X3533750Y40085000D01*
X3375000Y39926250D01*
X3125000Y39926250D01*
X2966250Y40085000D01*
X2873691Y40085000D01*
X2640302Y39988327D01*
X2461673Y39809699D01*
X2389549Y39635577D01*
X2307850Y39757850D01*
X2166607Y39852225D01*
X2000000Y39885365D01*
X1500000Y39885365D01*
X1333393Y39852225D01*
X1192150Y39757850D01*
X1097775Y39616607D01*
X1064635Y39450000D01*
X1064635Y38930636D01*
X527000Y38393000D01*
X527000Y43000000D01*
X2453000Y43000000D01*
X2570758Y42407989D01*
X2906106Y41906106D01*
X3407989Y41570758D01*
X4000000Y41453000D01*
X4592011Y41570758D01*
X5093894Y41906106D01*
X5429242Y42407989D01*
X5547000Y43000000D01*
X5429242Y43592011D01*
X5093894Y44093894D01*
X4592011Y44429242D01*
X4487654Y44450000D01*
X11397983Y44450000D01*
X11497093Y43951740D01*
X11779335Y43529335D01*
X12201740Y43247093D01*
X12539040Y43180000D01*
X12201740Y43112907D01*
X11779335Y42830665D01*
X11497093Y42408260D01*
X11397983Y41910000D01*
X11497093Y41411740D01*
X11779335Y40989335D01*
X12201740Y40707093D01*
X12574231Y40633000D01*
X12825769Y40633000D01*
X13198260Y40707093D01*
X13620665Y40989335D01*
X13755000Y41190382D01*
X13755000Y40933691D01*
X13851673Y40700302D01*
X14030301Y40521673D01*
X14263690Y40425000D01*
X14954250Y40425000D01*
X15113000Y40583750D01*
X15113000Y41783000D01*
X15367000Y41783000D01*
X15367000Y40583750D01*
X15525750Y40425000D01*
X16216310Y40425000D01*
X16449699Y40521673D01*
X16628327Y40700302D01*
X16725000Y40933691D01*
X16725000Y41624250D01*
X16566250Y41783000D01*
X15367000Y41783000D01*
X15113000Y41783000D01*
X15093000Y41783000D01*
X15093000Y42037000D01*
X15113000Y42037000D01*
X15113000Y42057000D01*
X15367000Y42057000D01*
X15367000Y42037000D01*
X16566250Y42037000D01*
X16725000Y42195750D01*
X16725000Y42886309D01*
X16628327Y43119698D01*
X16449699Y43298327D01*
X16216310Y43395000D01*
X15959618Y43395000D01*
X16160665Y43529335D01*
X16442907Y43951740D01*
X16542017Y44450000D01*
X16442907Y44948260D01*
X16160665Y45370665D01*
X15738260Y45652907D01*
X15365769Y45727000D01*
X15114231Y45727000D01*
X14741740Y45652907D01*
X14319335Y45370665D01*
X14037093Y44948260D01*
X13970000Y44610960D01*
X13902907Y44948260D01*
X13620665Y45370665D01*
X13198260Y45652907D01*
X12825769Y45727000D01*
X12574231Y45727000D01*
X12201740Y45652907D01*
X11779335Y45370665D01*
X11497093Y44948260D01*
X11397983Y44450000D01*
X4487654Y44450000D01*
X4000000Y44547000D01*
X3407989Y44429242D01*
X2906106Y44093894D01*
X2570758Y43592011D01*
X2453000Y43000000D01*
X527000Y43000000D01*
X527000Y46973000D01*
X11448098Y46973000D01*
X11500000Y46962676D01*
X11705625Y47003577D01*
X11879945Y47120055D01*
X11996423Y47294375D01*
X12027000Y47448097D01*
X12037324Y47500000D01*
X12027000Y47551903D01*
X12027000Y54473000D01*
X18973001Y54473000D01*
X18973000Y53127000D01*
X18973000Y53127000D01*
G37*
X18973000Y53127000D02*
X18700000Y53127000D01*
X18651399Y53117333D01*
X18610197Y53089803D01*
X18582667Y53048601D01*
X18573000Y53000000D01*
X18573000Y41900000D01*
X18579473Y41859971D01*
X18603967Y41816894D01*
X23103967Y36616894D01*
X23151399Y36582667D01*
X23200000Y36573000D01*
X35700000Y36573000D01*
X35748601Y36582667D01*
X35789803Y36610197D01*
X45052606Y45873000D01*
X48929635Y45873000D01*
X48929635Y45861378D01*
X48839866Y45843522D01*
X48649006Y45715994D01*
X48616814Y45667815D01*
X47132188Y44183188D01*
X47084006Y44150994D01*
X46956478Y43960133D01*
X46954809Y43951740D01*
X46911696Y43735000D01*
X46923000Y43678172D01*
X46923000Y43161872D01*
X46842150Y43107850D01*
X46821537Y43077000D01*
X45310103Y43077000D01*
X45302225Y43116607D01*
X45207850Y43257850D01*
X45066607Y43352225D01*
X44900000Y43385365D01*
X44100000Y43385365D01*
X43933393Y43352225D01*
X43792150Y43257850D01*
X43697775Y43116607D01*
X43664635Y42950000D01*
X43664635Y42050000D01*
X43697775Y41883393D01*
X43792150Y41742150D01*
X43933393Y41647775D01*
X44100000Y41614635D01*
X44900000Y41614635D01*
X45066607Y41647775D01*
X45207850Y41742150D01*
X45302225Y41883393D01*
X45310103Y41923000D01*
X46821537Y41923000D01*
X46842150Y41892150D01*
X46980063Y41800000D01*
X46842150Y41707850D01*
X46747775Y41566607D01*
X46714635Y41400000D01*
X46714635Y40800000D01*
X46747775Y40633393D01*
X46823000Y40520810D01*
X46823000Y40371676D01*
X46809737Y40305000D01*
X46823000Y40238324D01*
X46823000Y40238322D01*
X46862281Y40040848D01*
X47011911Y39816910D01*
X47068441Y39779138D01*
X48938000Y37909578D01*
X48938000Y37443891D01*
X49118710Y37007618D01*
X49452618Y36673710D01*
X49888891Y36493000D01*
X50361109Y36493000D01*
X50797382Y36673710D01*
X51131290Y37007618D01*
X51312000Y37443891D01*
X51312000Y37916109D01*
X51131290Y38352382D01*
X50797382Y38686290D01*
X50361109Y38867000D01*
X49895422Y38867000D01*
X48202879Y40559542D01*
X48252225Y40633393D01*
X48285365Y40800000D01*
X48285365Y41400000D01*
X48252225Y41566607D01*
X48157850Y41707850D01*
X48019937Y41800000D01*
X48157850Y41892150D01*
X48252225Y42033393D01*
X48285365Y42200000D01*
X48285365Y42800000D01*
X48252225Y42966607D01*
X48157850Y43107850D01*
X48077000Y43161872D01*
X48077000Y43496000D01*
X48961384Y44380384D01*
X48962775Y44373393D01*
X49057150Y44232150D01*
X49198393Y44137775D01*
X49365000Y44104635D01*
X50885000Y44104635D01*
X51051607Y44137775D01*
X51192850Y44232150D01*
X51287225Y44373393D01*
X51320365Y44540000D01*
X51320365Y45873000D01*
X53873000Y45873000D01*
X53873000Y2527000D01*
X51139318Y2527000D01*
X51312000Y2943891D01*
X51312000Y3416109D01*
X51131290Y3852382D01*
X50797382Y4186290D01*
X50361109Y4367000D01*
X49895422Y4367000D01*
X48202879Y6059542D01*
X48252225Y6133393D01*
X48285365Y6300000D01*
X48285365Y6900000D01*
X48252225Y7066607D01*
X48157850Y7207850D01*
X48019937Y7300000D01*
X48157850Y7392150D01*
X48252225Y7533393D01*
X48285365Y7700000D01*
X48285365Y8300000D01*
X48252225Y8466607D01*
X48157850Y8607850D01*
X48077000Y8661872D01*
X48077000Y8996000D01*
X48961384Y9880384D01*
X48962775Y9873393D01*
X49057150Y9732150D01*
X49198393Y9637775D01*
X49365000Y9604635D01*
X50885000Y9604635D01*
X51051607Y9637775D01*
X51192850Y9732150D01*
X51287225Y9873393D01*
X51320365Y10040000D01*
X51320365Y11560000D01*
X51287225Y11726607D01*
X51192850Y11867850D01*
X51051607Y11962225D01*
X50885000Y11995365D01*
X49365000Y11995365D01*
X49198393Y11962225D01*
X49057150Y11867850D01*
X48962775Y11726607D01*
X48929635Y11560000D01*
X48929635Y11361378D01*
X48839866Y11343522D01*
X48649006Y11215994D01*
X48616814Y11167815D01*
X47132188Y9683188D01*
X47084006Y9650994D01*
X46956478Y9460133D01*
X46946106Y9407989D01*
X46911696Y9235000D01*
X46923000Y9178172D01*
X46923000Y8661872D01*
X46842150Y8607850D01*
X46821537Y8577000D01*
X45310103Y8577000D01*
X45302225Y8616607D01*
X45207850Y8757850D01*
X45066607Y8852225D01*
X44900000Y8885365D01*
X44100000Y8885365D01*
X43933393Y8852225D01*
X43792150Y8757850D01*
X43697775Y8616607D01*
X43664635Y8450000D01*
X43664635Y7550000D01*
X43697775Y7383393D01*
X43792150Y7242150D01*
X43933393Y7147775D01*
X44100000Y7114635D01*
X44900000Y7114635D01*
X45066607Y7147775D01*
X45207850Y7242150D01*
X45302225Y7383393D01*
X45310103Y7423000D01*
X46821537Y7423000D01*
X46842150Y7392150D01*
X46980063Y7300000D01*
X46842150Y7207850D01*
X46747775Y7066607D01*
X46714635Y6900000D01*
X46714635Y6300000D01*
X46747775Y6133393D01*
X46823000Y6020810D01*
X46823000Y5871676D01*
X46809737Y5805000D01*
X46823000Y5738324D01*
X46823000Y5738322D01*
X46862281Y5540848D01*
X47011911Y5316910D01*
X47068441Y5279138D01*
X48938000Y3409578D01*
X48938000Y2943891D01*
X49110682Y2527000D01*
X19551903Y2527000D01*
X19500000Y2537324D01*
X19448098Y2527000D01*
X19448097Y2527000D01*
X19294375Y2496423D01*
X19120055Y2379945D01*
X19003577Y2205625D01*
X18962676Y2000000D01*
X18973001Y1948093D01*
X18973000Y527000D01*
X12027000Y527000D01*
X12027000Y7373000D01*
X19000000Y7373000D01*
X19048601Y7382667D01*
X19089803Y7410197D01*
X19117333Y7451399D01*
X19127000Y7500000D01*
X19127000Y10000000D01*
X29953000Y10000000D01*
X30070758Y9407989D01*
X30406106Y8906106D01*
X30907989Y8570758D01*
X31500000Y8453000D01*
X32092011Y8570758D01*
X32593894Y8906106D01*
X32929242Y9407989D01*
X33047000Y10000000D01*
X32929242Y10592011D01*
X32593894Y11093894D01*
X32092011Y11429242D01*
X31500000Y11547000D01*
X30907989Y11429242D01*
X30406106Y11093894D01*
X30070758Y10592011D01*
X29953000Y10000000D01*
X19127000Y10000000D01*
X19127000Y20057000D01*
X20423001Y18760998D01*
X20423000Y13706828D01*
X20411696Y13650000D01*
X20423000Y13593172D01*
X20456478Y13424867D01*
X20584006Y13234006D01*
X20632188Y13201812D01*
X21964635Y11869364D01*
X21964635Y11600000D01*
X21997775Y11433393D01*
X22092150Y11292150D01*
X22233393Y11197775D01*
X22400000Y11164635D01*
X23450000Y11164635D01*
X23616607Y11197775D01*
X23757850Y11292150D01*
X23795168Y11348000D01*
X25078445Y11348000D01*
X25048903Y11318458D01*
X24923000Y11014501D01*
X24923000Y10685499D01*
X25048903Y10381542D01*
X25281542Y10148903D01*
X25585499Y10023000D01*
X25914501Y10023000D01*
X26218458Y10148903D01*
X26451097Y10381542D01*
X26577000Y10685499D01*
X26577000Y11014501D01*
X26511653Y11172263D01*
X26550000Y11164635D01*
X27600000Y11164635D01*
X27766607Y11197775D01*
X27907850Y11292150D01*
X28002225Y11433393D01*
X28035365Y11600000D01*
X28035365Y12250000D01*
X28002225Y12416607D01*
X27907850Y12557850D01*
X27766607Y12652225D01*
X27600000Y12685365D01*
X26550000Y12685365D01*
X26383393Y12652225D01*
X26242150Y12557850D01*
X26204832Y12502000D01*
X23795168Y12502000D01*
X23757850Y12557850D01*
X23663192Y12621098D01*
X23752000Y12835499D01*
X23752000Y13164501D01*
X23743772Y13184365D01*
X23809698Y13211673D01*
X23988327Y13390301D01*
X24085000Y13623690D01*
X24085000Y13789250D01*
X25915000Y13789250D01*
X25915000Y13623690D01*
X26011673Y13390301D01*
X26190302Y13211673D01*
X26423691Y13115000D01*
X26789250Y13115000D01*
X26948000Y13273750D01*
X26948000Y13948000D01*
X27202000Y13948000D01*
X27202000Y13273750D01*
X27360750Y13115000D01*
X27726309Y13115000D01*
X27959698Y13211673D01*
X28138327Y13390301D01*
X28235000Y13623690D01*
X28235000Y13789250D01*
X28076250Y13948000D01*
X27202000Y13948000D01*
X26948000Y13948000D01*
X26073750Y13948000D01*
X25915000Y13789250D01*
X24085000Y13789250D01*
X23926250Y13948000D01*
X23052000Y13948000D01*
X23052000Y13928000D01*
X22798000Y13928000D01*
X22798000Y13948000D01*
X21923750Y13948000D01*
X21765000Y13789250D01*
X21765000Y13701000D01*
X21577000Y13889000D01*
X21577000Y14526310D01*
X21765000Y14526310D01*
X21765000Y14360750D01*
X21923750Y14202000D01*
X22798000Y14202000D01*
X22798000Y14876250D01*
X23052000Y14876250D01*
X23052000Y14202000D01*
X23926250Y14202000D01*
X24085000Y14360750D01*
X24085000Y14526310D01*
X25915000Y14526310D01*
X25915000Y14360750D01*
X26073750Y14202000D01*
X26948000Y14202000D01*
X26948000Y14876250D01*
X27202000Y14876250D01*
X27202000Y14202000D01*
X28076250Y14202000D01*
X28235000Y14360750D01*
X28235000Y14526310D01*
X28138327Y14759699D01*
X27959698Y14938327D01*
X27752270Y15024247D01*
X32565000Y15024247D01*
X32565000Y14808687D01*
X32661673Y14575298D01*
X32840302Y14396670D01*
X33073691Y14299997D01*
X33314250Y14299997D01*
X33473000Y14458747D01*
X33473000Y15182997D01*
X32723750Y15182997D01*
X32565000Y15024247D01*
X27752270Y15024247D01*
X27726309Y15035000D01*
X27360750Y15035000D01*
X27202000Y14876250D01*
X26948000Y14876250D01*
X26789250Y15035000D01*
X26423691Y15035000D01*
X26190302Y14938327D01*
X26011673Y14759699D01*
X25915000Y14526310D01*
X24085000Y14526310D01*
X23988327Y14759699D01*
X23809698Y14938327D01*
X23576309Y15035000D01*
X23210750Y15035000D01*
X23052000Y14876250D01*
X22798000Y14876250D01*
X22639250Y15035000D01*
X22273691Y15035000D01*
X22040302Y14938327D01*
X21861673Y14759699D01*
X21765000Y14526310D01*
X21577000Y14526310D01*
X21577000Y18789250D01*
X21765000Y18789250D01*
X21765000Y18623690D01*
X21861673Y18390301D01*
X22040302Y18211673D01*
X22106228Y18184365D01*
X22098000Y18164501D01*
X22098000Y17835499D01*
X22186808Y17621098D01*
X22092150Y17557850D01*
X21997775Y17416607D01*
X21964635Y17250000D01*
X21964635Y16600000D01*
X21997775Y16433393D01*
X22092150Y16292150D01*
X22233393Y16197775D01*
X22400000Y16164635D01*
X23450000Y16164635D01*
X23616607Y16197775D01*
X23757850Y16292150D01*
X23795168Y16348000D01*
X26204832Y16348000D01*
X26242150Y16292150D01*
X26383393Y16197775D01*
X26550000Y16164635D01*
X27600000Y16164635D01*
X27766607Y16197775D01*
X27907850Y16292150D01*
X28002225Y16433393D01*
X28035365Y16600000D01*
X28035365Y17250000D01*
X28002225Y17416607D01*
X27907850Y17557850D01*
X27766607Y17652225D01*
X27600000Y17685365D01*
X26550000Y17685365D01*
X26383393Y17652225D01*
X26242150Y17557850D01*
X26204832Y17502000D01*
X25571555Y17502000D01*
X25701097Y17631542D01*
X25827000Y17935499D01*
X25827000Y18264501D01*
X25701097Y18568458D01*
X25480305Y18789250D01*
X25915000Y18789250D01*
X25915000Y18623690D01*
X26011673Y18390301D01*
X26190302Y18211673D01*
X26423691Y18115000D01*
X26789250Y18115000D01*
X26948000Y18273750D01*
X26948000Y18948000D01*
X27202000Y18948000D01*
X27202000Y18273750D01*
X27360750Y18115000D01*
X27726309Y18115000D01*
X27959698Y18211673D01*
X28138327Y18390301D01*
X28235000Y18623690D01*
X28235000Y18789250D01*
X28076250Y18948000D01*
X27202000Y18948000D01*
X26948000Y18948000D01*
X26073750Y18948000D01*
X25915000Y18789250D01*
X25480305Y18789250D01*
X25468458Y18801097D01*
X25164501Y18927000D01*
X24835499Y18927000D01*
X24531542Y18801097D01*
X24298903Y18568458D01*
X24173000Y18264501D01*
X24173000Y17935499D01*
X24298903Y17631542D01*
X24428445Y17502000D01*
X23795168Y17502000D01*
X23757850Y17557850D01*
X23663192Y17621098D01*
X23752000Y17835499D01*
X23752000Y18164501D01*
X23743772Y18184365D01*
X23809698Y18211673D01*
X23988327Y18390301D01*
X24085000Y18623690D01*
X24085000Y18789250D01*
X23926250Y18948000D01*
X23052000Y18948000D01*
X23052000Y18928000D01*
X22798000Y18928000D01*
X22798000Y18948000D01*
X21923750Y18948000D01*
X21765000Y18789250D01*
X21577000Y18789250D01*
X21577000Y18943173D01*
X21588304Y19000001D01*
X21571594Y19084006D01*
X21543522Y19225134D01*
X21415994Y19415994D01*
X21367815Y19448186D01*
X21289691Y19526310D01*
X21765000Y19526310D01*
X21765000Y19360750D01*
X21923750Y19202000D01*
X22798000Y19202000D01*
X22798000Y19876250D01*
X23052000Y19876250D01*
X23052000Y19202000D01*
X23926250Y19202000D01*
X24085000Y19360750D01*
X24085000Y19526310D01*
X25915000Y19526310D01*
X25915000Y19360750D01*
X26073750Y19202000D01*
X26948000Y19202000D01*
X26948000Y19876250D01*
X27202000Y19876250D01*
X27202000Y19202000D01*
X28076250Y19202000D01*
X28210556Y19336306D01*
X30090000Y19336306D01*
X30090000Y19095747D01*
X30248750Y18936997D01*
X30973000Y18936997D01*
X30973000Y19686247D01*
X31227000Y19686247D01*
X31227000Y18936997D01*
X31951250Y18936997D01*
X32110000Y19095747D01*
X32110000Y19336306D01*
X32013327Y19569695D01*
X31834699Y19748324D01*
X31601310Y19844997D01*
X31385750Y19844997D01*
X31227000Y19686247D01*
X30973000Y19686247D01*
X30814250Y19844997D01*
X30598690Y19844997D01*
X30365301Y19748324D01*
X30186673Y19569695D01*
X30090000Y19336306D01*
X28210556Y19336306D01*
X28235000Y19360750D01*
X28235000Y19526310D01*
X28138327Y19759699D01*
X27959698Y19938327D01*
X27726309Y20035000D01*
X27360750Y20035000D01*
X27202000Y19876250D01*
X26948000Y19876250D01*
X26789250Y20035000D01*
X26423691Y20035000D01*
X26190302Y19938327D01*
X26011673Y19759699D01*
X25915000Y19526310D01*
X24085000Y19526310D01*
X23988327Y19759699D01*
X23809698Y19938327D01*
X23576309Y20035000D01*
X23210750Y20035000D01*
X23052000Y19876250D01*
X22798000Y19876250D01*
X22639250Y20035000D01*
X22273691Y20035000D01*
X22040302Y19938327D01*
X21861673Y19759699D01*
X21765000Y19526310D01*
X21289691Y19526310D01*
X19785365Y21030635D01*
X19785365Y21500000D01*
X19752225Y21666607D01*
X19657850Y21807850D01*
X19516607Y21902225D01*
X19350000Y21935365D01*
X16850000Y21935365D01*
X16683393Y21902225D01*
X16542150Y21807850D01*
X16447775Y21666607D01*
X16414635Y21500000D01*
X16414635Y20500000D01*
X16447775Y20333393D01*
X16452047Y20327000D01*
X5496555Y20327000D01*
X5701097Y20531542D01*
X5827000Y20835499D01*
X5827000Y21164501D01*
X5701097Y21468458D01*
X5468458Y21701097D01*
X5164501Y21827000D01*
X4835499Y21827000D01*
X4531542Y21701097D01*
X4530126Y21699681D01*
X4457850Y21807850D01*
X4316607Y21902225D01*
X4150000Y21935365D01*
X1650000Y21935365D01*
X1483393Y21902225D01*
X1342150Y21807850D01*
X1247775Y21666607D01*
X1214635Y21500000D01*
X1214635Y20500000D01*
X1247775Y20333393D01*
X1252047Y20327000D01*
X527000Y20327000D01*
X527000Y23500000D01*
X1214635Y23500000D01*
X1214635Y22500000D01*
X1247775Y22333393D01*
X1342150Y22192150D01*
X1483393Y22097775D01*
X1650000Y22064635D01*
X4150000Y22064635D01*
X4316607Y22097775D01*
X4457850Y22192150D01*
X4530126Y22300319D01*
X4531542Y22298903D01*
X4835499Y22173000D01*
X5164501Y22173000D01*
X5468458Y22298903D01*
X5701097Y22531542D01*
X5827000Y22835499D01*
X5827000Y23164501D01*
X5701097Y23468458D01*
X5669555Y23500000D01*
X16414635Y23500000D01*
X16414635Y22500000D01*
X16447775Y22333393D01*
X16542150Y22192150D01*
X16683393Y22097775D01*
X16850000Y22064635D01*
X19350000Y22064635D01*
X19516607Y22097775D01*
X19657850Y22192150D01*
X19752225Y22333393D01*
X19785365Y22500000D01*
X19864635Y22500000D01*
X19864635Y22000000D01*
X19897775Y21833393D01*
X19943747Y21764590D01*
X19923000Y21714501D01*
X19923000Y21385499D01*
X20048903Y21081542D01*
X20281542Y20848903D01*
X20585499Y20723000D01*
X20914501Y20723000D01*
X21218458Y20848903D01*
X21451097Y21081542D01*
X21577000Y21385499D01*
X21577000Y21714501D01*
X21556253Y21764590D01*
X21602225Y21833393D01*
X21635365Y22000000D01*
X21635365Y22500000D01*
X21602225Y22666607D01*
X21507850Y22807850D01*
X21366607Y22902225D01*
X21200000Y22935365D01*
X20300000Y22935365D01*
X20133393Y22902225D01*
X19992150Y22807850D01*
X19897775Y22666607D01*
X19864635Y22500000D01*
X19785365Y22500000D01*
X19785365Y23500000D01*
X19752225Y23666607D01*
X19657850Y23807850D01*
X19516607Y23902225D01*
X19350000Y23935365D01*
X16850000Y23935365D01*
X16683393Y23902225D01*
X16542150Y23807850D01*
X16447775Y23666607D01*
X16414635Y23500000D01*
X5669555Y23500000D01*
X5468458Y23701097D01*
X5164501Y23827000D01*
X4835499Y23827000D01*
X4531542Y23701097D01*
X4530126Y23699681D01*
X4457850Y23807850D01*
X4316607Y23902225D01*
X4150000Y23935365D01*
X1650000Y23935365D01*
X1483393Y23902225D01*
X1342150Y23807850D01*
X1247775Y23666607D01*
X1214635Y23500000D01*
X527000Y23500000D01*
X527000Y25500000D01*
X1214635Y25500000D01*
X1214635Y24500000D01*
X1247775Y24333393D01*
X1342150Y24192150D01*
X1483393Y24097775D01*
X1650000Y24064635D01*
X4150000Y24064635D01*
X4316607Y24097775D01*
X4457850Y24192150D01*
X4552225Y24333393D01*
X4585365Y24500000D01*
X4585365Y25500000D01*
X16414635Y25500000D01*
X16414635Y24500000D01*
X16447775Y24333393D01*
X16542150Y24192150D01*
X16683393Y24097775D01*
X16850000Y24064635D01*
X19350000Y24064635D01*
X19516607Y24097775D01*
X19657850Y24192150D01*
X19752225Y24333393D01*
X19768548Y24415452D01*
X19945687Y24238313D01*
X19897775Y24166607D01*
X19864635Y24000000D01*
X19864635Y23500000D01*
X19897775Y23333393D01*
X19992150Y23192150D01*
X20133393Y23097775D01*
X20300000Y23064635D01*
X21200000Y23064635D01*
X21366607Y23097775D01*
X21507850Y23192150D01*
X21602225Y23333393D01*
X21635365Y23500000D01*
X21635365Y24000000D01*
X21602225Y24166607D01*
X21507850Y24307850D01*
X21366607Y24402225D01*
X21305611Y24414358D01*
X21293522Y24475134D01*
X21165994Y24665994D01*
X21117815Y24698186D01*
X20959494Y24856507D01*
X21951000Y24856507D01*
X21951000Y24383493D01*
X22132014Y23946486D01*
X22466486Y23612014D01*
X22903493Y23431000D01*
X23376507Y23431000D01*
X23813514Y23612014D01*
X24144500Y23943000D01*
X28689575Y23943000D01*
X32464108Y20168466D01*
X32422774Y20106604D01*
X32389634Y19939997D01*
X32389634Y18879997D01*
X32422774Y18713390D01*
X32465947Y18648777D01*
X32493995Y18507772D01*
X32512281Y18415844D01*
X32661911Y18191906D01*
X32718404Y18154159D01*
X32658392Y18142222D01*
X32517149Y18047847D01*
X32422774Y17906604D01*
X32418874Y17886997D01*
X31870281Y17886997D01*
X31862168Y17899139D01*
X32013327Y18050299D01*
X32110000Y18283688D01*
X32110000Y18524247D01*
X31951250Y18682997D01*
X31227000Y18682997D01*
X31227000Y18662997D01*
X30973000Y18662997D01*
X30973000Y18682997D01*
X30248750Y18682997D01*
X30090000Y18524247D01*
X30090000Y18283688D01*
X30186673Y18050299D01*
X30337832Y17899139D01*
X30322775Y17876604D01*
X30289635Y17709997D01*
X30289635Y16909997D01*
X30322775Y16743390D01*
X30417150Y16602147D01*
X30558393Y16507772D01*
X30725000Y16474632D01*
X31475000Y16474632D01*
X31641607Y16507772D01*
X31782850Y16602147D01*
X31870281Y16732997D01*
X32389634Y16732997D01*
X32389634Y16679997D01*
X32422774Y16513390D01*
X32517149Y16372147D01*
X32658392Y16277772D01*
X32824999Y16244632D01*
X32891744Y16244632D01*
X32840302Y16223324D01*
X32661673Y16044696D01*
X32565000Y15811307D01*
X32565000Y15595747D01*
X32723750Y15436997D01*
X33473000Y15436997D01*
X33473000Y15456997D01*
X33727000Y15456997D01*
X33727000Y15436997D01*
X33747000Y15436997D01*
X33747000Y15182997D01*
X33727000Y15182997D01*
X33727000Y14458747D01*
X33885750Y14299997D01*
X34126309Y14299997D01*
X34273000Y14360758D01*
X34273000Y14060499D01*
X34398903Y13756542D01*
X34631542Y13523903D01*
X34935499Y13398000D01*
X35264501Y13398000D01*
X35568458Y13523903D01*
X35801097Y13756542D01*
X35927000Y14060499D01*
X35927000Y14389501D01*
X35820637Y14646284D01*
X35902225Y14768390D01*
X35935365Y14934997D01*
X35935365Y15684997D01*
X35902225Y15851604D01*
X35807850Y15992847D01*
X35677000Y16080278D01*
X35677000Y16368239D01*
X35682849Y16372147D01*
X35777224Y16513390D01*
X35810364Y16679997D01*
X35810364Y17524247D01*
X36090000Y17524247D01*
X36090000Y17283688D01*
X36186673Y17050299D01*
X36365301Y16871670D01*
X36598690Y16774997D01*
X36814250Y16774997D01*
X36973000Y16933747D01*
X36973000Y17682997D01*
X37227000Y17682997D01*
X37227000Y16933747D01*
X37385750Y16774997D01*
X37601310Y16774997D01*
X37834699Y16871670D01*
X38013327Y17050299D01*
X38110000Y17283688D01*
X38110000Y17524247D01*
X37951250Y17682997D01*
X37227000Y17682997D01*
X36973000Y17682997D01*
X36248750Y17682997D01*
X36090000Y17524247D01*
X35810364Y17524247D01*
X35810364Y17739997D01*
X35777224Y17906604D01*
X35682849Y18047847D01*
X35541606Y18142222D01*
X35481596Y18154159D01*
X35538089Y18191906D01*
X35687720Y18415844D01*
X35727000Y18613318D01*
X35727000Y18613319D01*
X35734054Y18648781D01*
X35777224Y18713390D01*
X35781124Y18732997D01*
X36329719Y18732997D01*
X36337832Y18720855D01*
X36186673Y18569695D01*
X36090000Y18336306D01*
X36090000Y18095747D01*
X36248750Y17936997D01*
X36973000Y17936997D01*
X36973000Y17956997D01*
X37227000Y17956997D01*
X37227000Y17936997D01*
X37951250Y17936997D01*
X38110000Y18095747D01*
X38110000Y18336306D01*
X38013327Y18569695D01*
X37862168Y18720855D01*
X37877225Y18743390D01*
X37910365Y18909997D01*
X37910365Y19709997D01*
X37877225Y19876604D01*
X37864766Y19895250D01*
X37927000Y20045496D01*
X37927000Y20374498D01*
X37801097Y20678455D01*
X37568458Y20911094D01*
X37264501Y21036997D01*
X36935499Y21036997D01*
X36631542Y20911094D01*
X36398903Y20678455D01*
X36273000Y20374498D01*
X36273000Y20086997D01*
X35781124Y20086997D01*
X35777224Y20106604D01*
X35682849Y20247847D01*
X35541606Y20342222D01*
X35374999Y20375362D01*
X34887659Y20375362D01*
X34784698Y20478324D01*
X34551309Y20574997D01*
X34385749Y20574997D01*
X34226999Y20416247D01*
X34226999Y19536997D01*
X34246999Y19536997D01*
X34246999Y19282997D01*
X34226999Y19282997D01*
X34226999Y19262997D01*
X33972999Y19262997D01*
X33972999Y19282997D01*
X33952999Y19282997D01*
X33952999Y19536997D01*
X33972999Y19536997D01*
X33972999Y20416247D01*
X33814249Y20574997D01*
X33813409Y20574997D01*
X33787719Y20704149D01*
X33638089Y20928087D01*
X33581559Y20965859D01*
X30907631Y23639787D01*
X32499392Y23639787D01*
X32568857Y23397603D01*
X33092302Y23210856D01*
X33647368Y23238638D01*
X34031143Y23397603D01*
X34100608Y23639787D01*
X33300000Y24440395D01*
X32499392Y23639787D01*
X30907631Y23639787D01*
X29719720Y24827698D01*
X31890856Y24827698D01*
X31918638Y24272632D01*
X32077603Y23888857D01*
X32319787Y23819392D01*
X33120395Y24620000D01*
X32319787Y25420608D01*
X32077603Y25351143D01*
X31890856Y24827698D01*
X29719720Y24827698D01*
X29495860Y25051557D01*
X29458086Y25108090D01*
X29234148Y25257720D01*
X29036674Y25297000D01*
X29036672Y25297000D01*
X28969996Y25310263D01*
X28903320Y25297000D01*
X24144500Y25297000D01*
X23813514Y25627986D01*
X23376507Y25809000D01*
X22903493Y25809000D01*
X22466486Y25627986D01*
X22132014Y25293514D01*
X21951000Y24856507D01*
X20959494Y24856507D01*
X20448188Y25367812D01*
X20415994Y25415994D01*
X20225134Y25543522D01*
X20056829Y25577000D01*
X20056828Y25577000D01*
X20000000Y25588304D01*
X19943172Y25577000D01*
X19770049Y25577000D01*
X19752225Y25666607D01*
X19657850Y25807850D01*
X19516607Y25902225D01*
X19350000Y25935365D01*
X16850000Y25935365D01*
X16683393Y25902225D01*
X16542150Y25807850D01*
X16447775Y25666607D01*
X16414635Y25500000D01*
X4585365Y25500000D01*
X4552225Y25666607D01*
X4457850Y25807850D01*
X4316607Y25902225D01*
X4150000Y25935365D01*
X1650000Y25935365D01*
X1483393Y25902225D01*
X1342150Y25807850D01*
X1247775Y25666607D01*
X1214635Y25500000D01*
X527000Y25500000D01*
X527000Y27500000D01*
X1214635Y27500000D01*
X1214635Y26500000D01*
X1247775Y26333393D01*
X1342150Y26192150D01*
X1483393Y26097775D01*
X1650000Y26064635D01*
X4150000Y26064635D01*
X4316607Y26097775D01*
X4457850Y26192150D01*
X4552225Y26333393D01*
X4585365Y26500000D01*
X4585365Y27500000D01*
X16414635Y27500000D01*
X16414635Y26500000D01*
X16447775Y26333393D01*
X16542150Y26192150D01*
X16683393Y26097775D01*
X16850000Y26064635D01*
X19350000Y26064635D01*
X19516607Y26097775D01*
X19657850Y26192150D01*
X19752225Y26333393D01*
X19770049Y26423000D01*
X32962458Y26423000D01*
X33363530Y26021928D01*
X32952632Y26001362D01*
X32568857Y25842397D01*
X32499392Y25600213D01*
X33300000Y24799605D01*
X33314143Y24813747D01*
X33493748Y24634142D01*
X33479605Y24620000D01*
X34280213Y23819392D01*
X34522397Y23888857D01*
X34709144Y24412302D01*
X34695234Y24690224D01*
X39923000Y19462457D01*
X39923001Y9156833D01*
X39911696Y9100000D01*
X39932221Y8996817D01*
X39956479Y8874866D01*
X40084007Y8684006D01*
X40132186Y8651814D01*
X42714635Y6069364D01*
X42714635Y5550000D01*
X42747775Y5383393D01*
X42842150Y5242150D01*
X42973000Y5154719D01*
X42973001Y4256832D01*
X42961696Y4200000D01*
X43006479Y3974866D01*
X43064635Y3887829D01*
X43064635Y3550000D01*
X43097775Y3383393D01*
X43192150Y3242150D01*
X43333393Y3147775D01*
X43500000Y3114635D01*
X44000000Y3114635D01*
X44166607Y3147775D01*
X44307850Y3242150D01*
X44389549Y3364423D01*
X44461673Y3190301D01*
X44640302Y3011673D01*
X44873691Y2915000D01*
X44966250Y2915000D01*
X45125000Y3073750D01*
X45125000Y3873000D01*
X45375000Y3873000D01*
X45375000Y3073750D01*
X45533750Y2915000D01*
X45626309Y2915000D01*
X45859698Y3011673D01*
X46038327Y3190301D01*
X46135000Y3423690D01*
X46135000Y3714250D01*
X45976250Y3873000D01*
X45375000Y3873000D01*
X45125000Y3873000D01*
X45103000Y3873000D01*
X45103000Y4127000D01*
X45125000Y4127000D01*
X45125000Y4147000D01*
X45375000Y4147000D01*
X45375000Y4127000D01*
X45976250Y4127000D01*
X46135000Y4285750D01*
X46135000Y4576310D01*
X46038327Y4809699D01*
X45933025Y4915000D01*
X45976310Y4915000D01*
X46209699Y5011673D01*
X46388327Y5190302D01*
X46485000Y5423691D01*
X46485000Y5714250D01*
X46326250Y5873000D01*
X45577000Y5873000D01*
X45577000Y5853000D01*
X45323000Y5853000D01*
X45323000Y5873000D01*
X44573750Y5873000D01*
X44415000Y5714250D01*
X44415000Y5423691D01*
X44511673Y5190302D01*
X44690301Y5011673D01*
X44693483Y5010355D01*
X44640302Y4988327D01*
X44461673Y4809699D01*
X44389549Y4635577D01*
X44307850Y4757850D01*
X44166607Y4852225D01*
X44127000Y4860103D01*
X44127000Y5154719D01*
X44257850Y5242150D01*
X44352225Y5383393D01*
X44385365Y5550000D01*
X44385365Y6450000D01*
X44360241Y6576309D01*
X44415000Y6576309D01*
X44415000Y6285750D01*
X44573750Y6127000D01*
X45323000Y6127000D01*
X45323000Y6926250D01*
X45577000Y6926250D01*
X45577000Y6127000D01*
X46326250Y6127000D01*
X46485000Y6285750D01*
X46485000Y6576309D01*
X46388327Y6809698D01*
X46209699Y6988327D01*
X45976310Y7085000D01*
X45735750Y7085000D01*
X45577000Y6926250D01*
X45323000Y6926250D01*
X45164250Y7085000D01*
X44923690Y7085000D01*
X44690301Y6988327D01*
X44511673Y6809698D01*
X44415000Y6576309D01*
X44360241Y6576309D01*
X44352225Y6616607D01*
X44257850Y6757850D01*
X44116607Y6852225D01*
X43950000Y6885365D01*
X43530636Y6885365D01*
X41077000Y9339000D01*
X41077000Y19644631D01*
X41088304Y19701459D01*
X41068703Y19800000D01*
X41043522Y19926592D01*
X40915994Y20117452D01*
X40867815Y20149644D01*
X33649646Y27367812D01*
X33617452Y27415994D01*
X33426592Y27543522D01*
X33258287Y27577000D01*
X33258286Y27577000D01*
X33201458Y27588304D01*
X33144630Y27577000D01*
X19770049Y27577000D01*
X19752225Y27666607D01*
X19657850Y27807850D01*
X19516607Y27902225D01*
X19350000Y27935365D01*
X16850000Y27935365D01*
X16683393Y27902225D01*
X16542150Y27807850D01*
X16447775Y27666607D01*
X16414635Y27500000D01*
X4585365Y27500000D01*
X4552225Y27666607D01*
X4457850Y27807850D01*
X4316607Y27902225D01*
X4150000Y27935365D01*
X1650000Y27935365D01*
X1483393Y27902225D01*
X1342150Y27807850D01*
X1247775Y27666607D01*
X1214635Y27500000D01*
X527000Y27500000D01*
X527000Y29500000D01*
X1214635Y29500000D01*
X1214635Y28500000D01*
X1247775Y28333393D01*
X1342150Y28192150D01*
X1483393Y28097775D01*
X1650000Y28064635D01*
X4150000Y28064635D01*
X4316607Y28097775D01*
X4457850Y28192150D01*
X4552225Y28333393D01*
X4570049Y28423000D01*
X6407445Y28423000D01*
X6531542Y28298903D01*
X6835499Y28173000D01*
X7164501Y28173000D01*
X7468458Y28298903D01*
X7701097Y28531542D01*
X7827000Y28835499D01*
X7827000Y29164501D01*
X7701097Y29468458D01*
X7669555Y29500000D01*
X16414635Y29500000D01*
X16414635Y28500000D01*
X16447775Y28333393D01*
X16542150Y28192150D01*
X16683393Y28097775D01*
X16850000Y28064635D01*
X19350000Y28064635D01*
X19516607Y28097775D01*
X19657850Y28192150D01*
X19752225Y28333393D01*
X19770049Y28423000D01*
X34711000Y28423000D01*
X42973000Y20160998D01*
X42973001Y18345281D01*
X42842150Y18257850D01*
X42747775Y18116607D01*
X42714635Y17950000D01*
X42714635Y17050000D01*
X42747775Y16883393D01*
X42842150Y16742150D01*
X42973000Y16654719D01*
X42973001Y15756832D01*
X42961696Y15700000D01*
X43006479Y15474866D01*
X43064635Y15387829D01*
X43064635Y15050000D01*
X43097775Y14883393D01*
X43192150Y14742150D01*
X43333393Y14647775D01*
X43500000Y14614635D01*
X44000000Y14614635D01*
X44166607Y14647775D01*
X44307850Y14742150D01*
X44389549Y14864423D01*
X44461673Y14690301D01*
X44640302Y14511673D01*
X44873691Y14415000D01*
X44966250Y14415000D01*
X45125000Y14573750D01*
X45125000Y15373000D01*
X45375000Y15373000D01*
X45375000Y14573750D01*
X45533750Y14415000D01*
X45626309Y14415000D01*
X45859698Y14511673D01*
X46038327Y14690301D01*
X46135000Y14923690D01*
X46135000Y15214250D01*
X45976250Y15373000D01*
X45375000Y15373000D01*
X45125000Y15373000D01*
X45103000Y15373000D01*
X45103000Y15627000D01*
X45125000Y15627000D01*
X45125000Y15647000D01*
X45375000Y15647000D01*
X45375000Y15627000D01*
X45976250Y15627000D01*
X46135000Y15785750D01*
X46135000Y16076310D01*
X46038327Y16309699D01*
X45933025Y16415000D01*
X45976310Y16415000D01*
X46209699Y16511673D01*
X46388327Y16690302D01*
X46485000Y16923691D01*
X46485000Y17214250D01*
X46326250Y17373000D01*
X45577000Y17373000D01*
X45577000Y17353000D01*
X45323000Y17353000D01*
X45323000Y17373000D01*
X44573750Y17373000D01*
X44415000Y17214250D01*
X44415000Y16923691D01*
X44511673Y16690302D01*
X44690301Y16511673D01*
X44693483Y16510355D01*
X44640302Y16488327D01*
X44461673Y16309699D01*
X44389549Y16135577D01*
X44307850Y16257850D01*
X44166607Y16352225D01*
X44127000Y16360103D01*
X44127000Y16654719D01*
X44257850Y16742150D01*
X44352225Y16883393D01*
X44385365Y17050000D01*
X44385365Y17950000D01*
X44360241Y18076309D01*
X44415000Y18076309D01*
X44415000Y17785750D01*
X44573750Y17627000D01*
X45323000Y17627000D01*
X45323000Y18426250D01*
X45577000Y18426250D01*
X45577000Y17627000D01*
X46326250Y17627000D01*
X46485000Y17785750D01*
X46485000Y18076309D01*
X46388327Y18309698D01*
X46209699Y18488327D01*
X45976310Y18585000D01*
X45735750Y18585000D01*
X45577000Y18426250D01*
X45323000Y18426250D01*
X45164250Y18585000D01*
X44923690Y18585000D01*
X44690301Y18488327D01*
X44511673Y18309698D01*
X44415000Y18076309D01*
X44360241Y18076309D01*
X44352225Y18116607D01*
X44257850Y18257850D01*
X44127000Y18345281D01*
X44127000Y18614635D01*
X44900000Y18614635D01*
X45066607Y18647775D01*
X45207850Y18742150D01*
X45302225Y18883393D01*
X45310103Y18923000D01*
X46821537Y18923000D01*
X46842150Y18892150D01*
X46980063Y18800000D01*
X46842150Y18707850D01*
X46747775Y18566607D01*
X46714635Y18400000D01*
X46714635Y17800000D01*
X46747775Y17633393D01*
X46823000Y17520810D01*
X46823000Y17371676D01*
X46809737Y17305000D01*
X46823000Y17238324D01*
X46823000Y17238322D01*
X46862281Y17040848D01*
X47011911Y16816910D01*
X47068441Y16779138D01*
X48938000Y14909578D01*
X48938000Y14443891D01*
X49118710Y14007618D01*
X49452618Y13673710D01*
X49888891Y13493000D01*
X50361109Y13493000D01*
X50797382Y13673710D01*
X51131290Y14007618D01*
X51312000Y14443891D01*
X51312000Y14916109D01*
X51131290Y15352382D01*
X50797382Y15686290D01*
X50361109Y15867000D01*
X49895422Y15867000D01*
X48202879Y17559542D01*
X48252225Y17633393D01*
X48285365Y17800000D01*
X48285365Y18400000D01*
X48252225Y18566607D01*
X48157850Y18707850D01*
X48019937Y18800000D01*
X48157850Y18892150D01*
X48252225Y19033393D01*
X48285365Y19200000D01*
X48285365Y19800000D01*
X48252225Y19966607D01*
X48157850Y20107850D01*
X48077000Y20161872D01*
X48077000Y20496000D01*
X48961384Y21380384D01*
X48962775Y21373393D01*
X49057150Y21232150D01*
X49198393Y21137775D01*
X49365000Y21104635D01*
X50885000Y21104635D01*
X51051607Y21137775D01*
X51192850Y21232150D01*
X51287225Y21373393D01*
X51320365Y21540000D01*
X51320365Y23060000D01*
X51287225Y23226607D01*
X51192850Y23367850D01*
X51051607Y23462225D01*
X50885000Y23495365D01*
X49365000Y23495365D01*
X49198393Y23462225D01*
X49057150Y23367850D01*
X48962775Y23226607D01*
X48929635Y23060000D01*
X48929635Y22861378D01*
X48839866Y22843522D01*
X48649006Y22715994D01*
X48616814Y22667815D01*
X47132188Y21183188D01*
X47084006Y21150994D01*
X46956478Y20960133D01*
X46950104Y20928087D01*
X46911696Y20735000D01*
X46923000Y20678172D01*
X46923000Y20161872D01*
X46842150Y20107850D01*
X46821537Y20077000D01*
X45310103Y20077000D01*
X45302225Y20116607D01*
X45207850Y20257850D01*
X45066607Y20352225D01*
X44900000Y20385365D01*
X44135393Y20385365D01*
X44138304Y20400000D01*
X44093522Y20625135D01*
X43998185Y20767817D01*
X43998184Y20767818D01*
X43965994Y20815994D01*
X43917818Y20848184D01*
X39909495Y24856507D01*
X43541000Y24856507D01*
X43541000Y24383493D01*
X43722014Y23946486D01*
X44056486Y23612014D01*
X44493493Y23431000D01*
X44966507Y23431000D01*
X45403514Y23612014D01*
X45737986Y23946486D01*
X45919000Y24383493D01*
X45919000Y24856507D01*
X45737986Y25293514D01*
X45403514Y25627986D01*
X44966507Y25809000D01*
X44493493Y25809000D01*
X44056486Y25627986D01*
X43722014Y25293514D01*
X43541000Y24856507D01*
X39909495Y24856507D01*
X35398188Y29367812D01*
X35365994Y29415994D01*
X35175134Y29543522D01*
X35006829Y29577000D01*
X35006828Y29577000D01*
X34950000Y29588304D01*
X34893172Y29577000D01*
X19770049Y29577000D01*
X19752225Y29666607D01*
X19657850Y29807850D01*
X19516607Y29902225D01*
X19350000Y29935365D01*
X16850000Y29935365D01*
X16683393Y29902225D01*
X16542150Y29807850D01*
X16447775Y29666607D01*
X16414635Y29500000D01*
X7669555Y29500000D01*
X7468458Y29701097D01*
X7164501Y29827000D01*
X6835499Y29827000D01*
X6531542Y29701097D01*
X6407445Y29577000D01*
X4570049Y29577000D01*
X4552225Y29666607D01*
X4457850Y29807850D01*
X4316607Y29902225D01*
X4150000Y29935365D01*
X1650000Y29935365D01*
X1483393Y29902225D01*
X1342150Y29807850D01*
X1247775Y29666607D01*
X1214635Y29500000D01*
X527000Y29500000D01*
X527000Y31500000D01*
X1214635Y31500000D01*
X1214635Y30500000D01*
X1247775Y30333393D01*
X1342150Y30192150D01*
X1483393Y30097775D01*
X1650000Y30064635D01*
X4150000Y30064635D01*
X4316607Y30097775D01*
X4457850Y30192150D01*
X4552225Y30333393D01*
X4570049Y30423000D01*
X6407445Y30423000D01*
X6531542Y30298903D01*
X6835499Y30173000D01*
X7164501Y30173000D01*
X7468458Y30298903D01*
X7701097Y30531542D01*
X7827000Y30835499D01*
X7827000Y31164501D01*
X7701097Y31468458D01*
X7669555Y31500000D01*
X16414635Y31500000D01*
X16414635Y30500000D01*
X16447775Y30333393D01*
X16542150Y30192150D01*
X16683393Y30097775D01*
X16850000Y30064635D01*
X19350000Y30064635D01*
X19516607Y30097775D01*
X19657850Y30192150D01*
X19752225Y30333393D01*
X19770049Y30423000D01*
X38211000Y30423000D01*
X40001814Y28632185D01*
X40034006Y28584006D01*
X40224866Y28456478D01*
X40393171Y28423000D01*
X40449999Y28411696D01*
X40506827Y28423000D01*
X42739897Y28423000D01*
X42747775Y28383393D01*
X42842150Y28242150D01*
X42973000Y28154719D01*
X42973001Y27256832D01*
X42961696Y27200000D01*
X43006479Y26974866D01*
X43064635Y26887829D01*
X43064635Y26550000D01*
X43097775Y26383393D01*
X43192150Y26242150D01*
X43333393Y26147775D01*
X43500000Y26114635D01*
X44000000Y26114635D01*
X44166607Y26147775D01*
X44307850Y26242150D01*
X44389549Y26364423D01*
X44461673Y26190301D01*
X44640302Y26011673D01*
X44873691Y25915000D01*
X44966250Y25915000D01*
X45125000Y26073750D01*
X45125000Y26873000D01*
X45375000Y26873000D01*
X45375000Y26073750D01*
X45533750Y25915000D01*
X45626309Y25915000D01*
X45859698Y26011673D01*
X46038327Y26190301D01*
X46135000Y26423690D01*
X46135000Y26714250D01*
X45976250Y26873000D01*
X45375000Y26873000D01*
X45125000Y26873000D01*
X45103000Y26873000D01*
X45103000Y27127000D01*
X45125000Y27127000D01*
X45125000Y27147000D01*
X45375000Y27147000D01*
X45375000Y27127000D01*
X45976250Y27127000D01*
X46135000Y27285750D01*
X46135000Y27576310D01*
X46038327Y27809699D01*
X45933025Y27915000D01*
X45976310Y27915000D01*
X46209699Y28011673D01*
X46388327Y28190302D01*
X46485000Y28423691D01*
X46485000Y28714250D01*
X46326250Y28873000D01*
X45577000Y28873000D01*
X45577000Y28853000D01*
X45323000Y28853000D01*
X45323000Y28873000D01*
X44573750Y28873000D01*
X44415000Y28714250D01*
X44415000Y28423691D01*
X44511673Y28190302D01*
X44690301Y28011673D01*
X44693483Y28010355D01*
X44640302Y27988327D01*
X44461673Y27809699D01*
X44389549Y27635577D01*
X44307850Y27757850D01*
X44166607Y27852225D01*
X44127000Y27860103D01*
X44127000Y28154719D01*
X44257850Y28242150D01*
X44352225Y28383393D01*
X44385365Y28550000D01*
X44385365Y29450000D01*
X44360241Y29576309D01*
X44415000Y29576309D01*
X44415000Y29285750D01*
X44573750Y29127000D01*
X45323000Y29127000D01*
X45323000Y29926250D01*
X45577000Y29926250D01*
X45577000Y29127000D01*
X46326250Y29127000D01*
X46485000Y29285750D01*
X46485000Y29576309D01*
X46388327Y29809698D01*
X46209699Y29988327D01*
X45976310Y30085000D01*
X45735750Y30085000D01*
X45577000Y29926250D01*
X45323000Y29926250D01*
X45164250Y30085000D01*
X44923690Y30085000D01*
X44690301Y29988327D01*
X44511673Y29809698D01*
X44415000Y29576309D01*
X44360241Y29576309D01*
X44352225Y29616607D01*
X44257850Y29757850D01*
X44116607Y29852225D01*
X43950000Y29885365D01*
X43150000Y29885365D01*
X42983393Y29852225D01*
X42842150Y29757850D01*
X42747775Y29616607D01*
X42739897Y29577000D01*
X40689001Y29577000D01*
X38898188Y31367812D01*
X38865994Y31415994D01*
X38815101Y31450000D01*
X43664635Y31450000D01*
X43664635Y30550000D01*
X43697775Y30383393D01*
X43792150Y30242150D01*
X43933393Y30147775D01*
X44100000Y30114635D01*
X44900000Y30114635D01*
X45066607Y30147775D01*
X45207850Y30242150D01*
X45302225Y30383393D01*
X45310103Y30423000D01*
X46821537Y30423000D01*
X46842150Y30392150D01*
X46980063Y30300000D01*
X46842150Y30207850D01*
X46747775Y30066607D01*
X46714635Y29900000D01*
X46714635Y29300000D01*
X46747775Y29133393D01*
X46823000Y29020810D01*
X46823000Y28871676D01*
X46809737Y28805000D01*
X46823000Y28738324D01*
X46823000Y28738322D01*
X46862281Y28540848D01*
X47011911Y28316910D01*
X47068441Y28279138D01*
X48938000Y26409578D01*
X48938000Y25943891D01*
X49118710Y25507618D01*
X49452618Y25173710D01*
X49888891Y24993000D01*
X50361109Y24993000D01*
X50797382Y25173710D01*
X51131290Y25507618D01*
X51312000Y25943891D01*
X51312000Y26416109D01*
X51131290Y26852382D01*
X50797382Y27186290D01*
X50361109Y27367000D01*
X49895422Y27367000D01*
X48202879Y29059542D01*
X48252225Y29133393D01*
X48285365Y29300000D01*
X48285365Y29900000D01*
X48252225Y30066607D01*
X48157850Y30207850D01*
X48019937Y30300000D01*
X48157850Y30392150D01*
X48252225Y30533393D01*
X48285365Y30700000D01*
X48285365Y31300000D01*
X48252225Y31466607D01*
X48157850Y31607850D01*
X48077000Y31661872D01*
X48077000Y31996000D01*
X48961384Y32880384D01*
X48962775Y32873393D01*
X49057150Y32732150D01*
X49198393Y32637775D01*
X49365000Y32604635D01*
X50885000Y32604635D01*
X51051607Y32637775D01*
X51192850Y32732150D01*
X51287225Y32873393D01*
X51320365Y33040000D01*
X51320365Y34560000D01*
X51287225Y34726607D01*
X51192850Y34867850D01*
X51051607Y34962225D01*
X50885000Y34995365D01*
X49365000Y34995365D01*
X49198393Y34962225D01*
X49057150Y34867850D01*
X48962775Y34726607D01*
X48929635Y34560000D01*
X48929635Y34361378D01*
X48839866Y34343522D01*
X48649006Y34215994D01*
X48616814Y34167815D01*
X47132188Y32683188D01*
X47084006Y32650994D01*
X46956478Y32460133D01*
X46931268Y32333393D01*
X46911696Y32235000D01*
X46923000Y32178172D01*
X46923000Y31661872D01*
X46842150Y31607850D01*
X46821537Y31577000D01*
X45310103Y31577000D01*
X45302225Y31616607D01*
X45207850Y31757850D01*
X45066607Y31852225D01*
X44900000Y31885365D01*
X44100000Y31885365D01*
X43933393Y31852225D01*
X43792150Y31757850D01*
X43697775Y31616607D01*
X43664635Y31450000D01*
X38815101Y31450000D01*
X38675134Y31543522D01*
X38506829Y31577000D01*
X38506828Y31577000D01*
X38450000Y31588304D01*
X38393172Y31577000D01*
X19770049Y31577000D01*
X19752225Y31666607D01*
X19657850Y31807850D01*
X19516607Y31902225D01*
X19350000Y31935365D01*
X16850000Y31935365D01*
X16683393Y31902225D01*
X16542150Y31807850D01*
X16447775Y31666607D01*
X16414635Y31500000D01*
X7669555Y31500000D01*
X7468458Y31701097D01*
X7164501Y31827000D01*
X6835499Y31827000D01*
X6531542Y31701097D01*
X6407445Y31577000D01*
X4570049Y31577000D01*
X4552225Y31666607D01*
X4457850Y31807850D01*
X4316607Y31902225D01*
X4150000Y31935365D01*
X1650000Y31935365D01*
X1483393Y31902225D01*
X1342150Y31807850D01*
X1247775Y31666607D01*
X1214635Y31500000D01*
X527000Y31500000D01*
X527000Y33807000D01*
X1214635Y33119364D01*
X1214635Y32500000D01*
X1247775Y32333393D01*
X1342150Y32192150D01*
X1483393Y32097775D01*
X1650000Y32064635D01*
X4150000Y32064635D01*
X4316607Y32097775D01*
X4457850Y32192150D01*
X4552225Y32333393D01*
X4585365Y32500000D01*
X4585365Y33500000D01*
X16414635Y33500000D01*
X16414635Y32500000D01*
X16447775Y32333393D01*
X16542150Y32192150D01*
X16683393Y32097775D01*
X16850000Y32064635D01*
X19350000Y32064635D01*
X19516607Y32097775D01*
X19657850Y32192150D01*
X19752225Y32333393D01*
X19770049Y32423000D01*
X38393172Y32423000D01*
X38450000Y32411696D01*
X38506828Y32423000D01*
X38506829Y32423000D01*
X38675134Y32456478D01*
X38865994Y32584006D01*
X38898188Y32632188D01*
X43880636Y37614635D01*
X44000000Y37614635D01*
X44166607Y37647775D01*
X44307850Y37742150D01*
X44389549Y37864423D01*
X44461673Y37690301D01*
X44640302Y37511673D01*
X44873691Y37415000D01*
X44966250Y37415000D01*
X45125000Y37573750D01*
X45125000Y38373000D01*
X45375000Y38373000D01*
X45375000Y37573750D01*
X45533750Y37415000D01*
X45626309Y37415000D01*
X45859698Y37511673D01*
X46038327Y37690301D01*
X46135000Y37923690D01*
X46135000Y38214250D01*
X45976250Y38373000D01*
X45375000Y38373000D01*
X45125000Y38373000D01*
X45103000Y38373000D01*
X45103000Y38627000D01*
X45125000Y38627000D01*
X45125000Y38647000D01*
X45375000Y38647000D01*
X45375000Y38627000D01*
X45976250Y38627000D01*
X46135000Y38785750D01*
X46135000Y39076310D01*
X46038327Y39309699D01*
X45933025Y39415000D01*
X45976310Y39415000D01*
X46209699Y39511673D01*
X46388327Y39690302D01*
X46485000Y39923691D01*
X46485000Y40214250D01*
X46326250Y40373000D01*
X45577000Y40373000D01*
X45577000Y40353000D01*
X45323000Y40353000D01*
X45323000Y40373000D01*
X44573750Y40373000D01*
X44415000Y40214250D01*
X44415000Y39923691D01*
X44511673Y39690302D01*
X44690301Y39511673D01*
X44693483Y39510355D01*
X44640302Y39488327D01*
X44461673Y39309699D01*
X44389549Y39135577D01*
X44307850Y39257850D01*
X44166607Y39352225D01*
X44127000Y39360103D01*
X44127000Y39654719D01*
X44257850Y39742150D01*
X44352225Y39883393D01*
X44385365Y40050000D01*
X44385365Y40950000D01*
X44360241Y41076309D01*
X44415000Y41076309D01*
X44415000Y40785750D01*
X44573750Y40627000D01*
X45323000Y40627000D01*
X45323000Y41426250D01*
X45577000Y41426250D01*
X45577000Y40627000D01*
X46326250Y40627000D01*
X46485000Y40785750D01*
X46485000Y41076309D01*
X46388327Y41309698D01*
X46209699Y41488327D01*
X45976310Y41585000D01*
X45735750Y41585000D01*
X45577000Y41426250D01*
X45323000Y41426250D01*
X45164250Y41585000D01*
X44923690Y41585000D01*
X44690301Y41488327D01*
X44511673Y41309698D01*
X44415000Y41076309D01*
X44360241Y41076309D01*
X44352225Y41116607D01*
X44257850Y41257850D01*
X44116607Y41352225D01*
X43950000Y41385365D01*
X43150000Y41385365D01*
X42983393Y41352225D01*
X42842150Y41257850D01*
X42747775Y41116607D01*
X42714635Y40950000D01*
X42714635Y40050000D01*
X42747775Y39883393D01*
X42842150Y39742150D01*
X42973000Y39654719D01*
X42973001Y38756832D01*
X42961696Y38700000D01*
X43001698Y38498903D01*
X43006479Y38474866D01*
X43047489Y38413490D01*
X38211000Y33577000D01*
X19770049Y33577000D01*
X19752225Y33666607D01*
X19657850Y33807850D01*
X19516607Y33902225D01*
X19350000Y33935365D01*
X16850000Y33935365D01*
X16683393Y33902225D01*
X16542150Y33807850D01*
X16447775Y33666607D01*
X16414635Y33500000D01*
X4585365Y33500000D01*
X4552225Y33666607D01*
X4457850Y33807850D01*
X4335577Y33889550D01*
X4509698Y33961673D01*
X4688327Y34140301D01*
X4785000Y34373690D01*
X4785000Y34714250D01*
X4626250Y34873000D01*
X3027000Y34873000D01*
X3027000Y34853000D01*
X2773000Y34853000D01*
X2773000Y34873000D01*
X2753000Y34873000D01*
X2753000Y35127000D01*
X2773000Y35127000D01*
X2773000Y35976250D01*
X3027000Y35976250D01*
X3027000Y35127000D01*
X4626250Y35127000D01*
X4751646Y35252396D01*
X4833393Y35197775D01*
X5000000Y35164635D01*
X6000000Y35164635D01*
X6166607Y35197775D01*
X6307850Y35292150D01*
X6402225Y35433393D01*
X6435365Y35600000D01*
X6435365Y37400000D01*
X6564635Y37400000D01*
X6564635Y35600000D01*
X6597775Y35433393D01*
X6692150Y35292150D01*
X6833393Y35197775D01*
X7000000Y35164635D01*
X8000000Y35164635D01*
X8166607Y35197775D01*
X8307850Y35292150D01*
X8402225Y35433393D01*
X8435365Y35600000D01*
X8435365Y37400000D01*
X8564635Y37400000D01*
X8564635Y35600000D01*
X8597775Y35433393D01*
X8692150Y35292150D01*
X8833393Y35197775D01*
X9000000Y35164635D01*
X10000000Y35164635D01*
X10166607Y35197775D01*
X10307850Y35292150D01*
X10402225Y35433393D01*
X10435365Y35600000D01*
X10435365Y37400000D01*
X10564635Y37400000D01*
X10564635Y35600000D01*
X10597775Y35433393D01*
X10692150Y35292150D01*
X10833393Y35197775D01*
X11000000Y35164635D01*
X12000000Y35164635D01*
X12166607Y35197775D01*
X12307850Y35292150D01*
X12402225Y35433393D01*
X12435365Y35600000D01*
X12435365Y37400000D01*
X12564635Y37400000D01*
X12564635Y35600000D01*
X12597775Y35433393D01*
X12692150Y35292150D01*
X12833393Y35197775D01*
X13000000Y35164635D01*
X14000000Y35164635D01*
X14166607Y35197775D01*
X14307850Y35292150D01*
X14402225Y35433393D01*
X14435365Y35600000D01*
X14435365Y37400000D01*
X14564635Y37400000D01*
X14564635Y35600000D01*
X14597775Y35433393D01*
X14692150Y35292150D01*
X14833393Y35197775D01*
X15000000Y35164635D01*
X16000000Y35164635D01*
X16166607Y35197775D01*
X16307850Y35292150D01*
X16402225Y35433393D01*
X16414635Y35495783D01*
X16414635Y34500000D01*
X16447775Y34333393D01*
X16542150Y34192150D01*
X16683393Y34097775D01*
X16850000Y34064635D01*
X19350000Y34064635D01*
X19516607Y34097775D01*
X19657850Y34192150D01*
X19752225Y34333393D01*
X19760103Y34373000D01*
X19763128Y34373000D01*
X19817150Y34292150D01*
X19958393Y34197775D01*
X20125000Y34164635D01*
X20875000Y34164635D01*
X21041607Y34197775D01*
X21073783Y34219274D01*
X21185499Y34173000D01*
X21514501Y34173000D01*
X21818458Y34298903D01*
X22051097Y34531542D01*
X22177000Y34835499D01*
X22177000Y35164501D01*
X22051097Y35468458D01*
X21818458Y35701097D01*
X21514501Y35827000D01*
X21449239Y35827000D01*
X21510000Y35973691D01*
X21510000Y36214250D01*
X21351250Y36373000D01*
X20627000Y36373000D01*
X20627000Y36353000D01*
X20373000Y36353000D01*
X20373000Y36373000D01*
X19648750Y36373000D01*
X19490000Y36214250D01*
X19490000Y35973691D01*
X19520748Y35899458D01*
X19516607Y35902225D01*
X19350000Y35935365D01*
X16850000Y35935365D01*
X16683393Y35902225D01*
X16542150Y35807850D01*
X16447775Y35666607D01*
X16435365Y35604217D01*
X16435365Y37026309D01*
X19490000Y37026309D01*
X19490000Y36785750D01*
X19648750Y36627000D01*
X20373000Y36627000D01*
X20373000Y37376250D01*
X20627000Y37376250D01*
X20627000Y36627000D01*
X21351250Y36627000D01*
X21510000Y36785750D01*
X21510000Y37026309D01*
X21413327Y37259698D01*
X21234699Y37438327D01*
X21001310Y37535000D01*
X20785750Y37535000D01*
X20627000Y37376250D01*
X20373000Y37376250D01*
X20214250Y37535000D01*
X19998690Y37535000D01*
X19765301Y37438327D01*
X19586673Y37259698D01*
X19490000Y37026309D01*
X16435365Y37026309D01*
X16435365Y37400000D01*
X16402225Y37566607D01*
X16307850Y37707850D01*
X16166607Y37802225D01*
X16000000Y37835365D01*
X15000000Y37835365D01*
X14833393Y37802225D01*
X14692150Y37707850D01*
X14597775Y37566607D01*
X14564635Y37400000D01*
X14435365Y37400000D01*
X14402225Y37566607D01*
X14307850Y37707850D01*
X14166607Y37802225D01*
X14000000Y37835365D01*
X13000000Y37835365D01*
X12833393Y37802225D01*
X12692150Y37707850D01*
X12597775Y37566607D01*
X12564635Y37400000D01*
X12435365Y37400000D01*
X12402225Y37566607D01*
X12307850Y37707850D01*
X12166607Y37802225D01*
X12000000Y37835365D01*
X11000000Y37835365D01*
X10833393Y37802225D01*
X10692150Y37707850D01*
X10597775Y37566607D01*
X10564635Y37400000D01*
X10435365Y37400000D01*
X10402225Y37566607D01*
X10307850Y37707850D01*
X10166607Y37802225D01*
X10000000Y37835365D01*
X9000000Y37835365D01*
X8833393Y37802225D01*
X8692150Y37707850D01*
X8597775Y37566607D01*
X8564635Y37400000D01*
X8435365Y37400000D01*
X8402225Y37566607D01*
X8307850Y37707850D01*
X8166607Y37802225D01*
X8000000Y37835365D01*
X7000000Y37835365D01*
X6833393Y37802225D01*
X6692150Y37707850D01*
X6597775Y37566607D01*
X6564635Y37400000D01*
X6435365Y37400000D01*
X6402225Y37566607D01*
X6307850Y37707850D01*
X6166607Y37802225D01*
X6000000Y37835365D01*
X5000000Y37835365D01*
X4833393Y37802225D01*
X4692150Y37707850D01*
X4597775Y37566607D01*
X4564635Y37400000D01*
X4564635Y35983390D01*
X4509698Y36038327D01*
X4276309Y36135000D01*
X3185750Y36135000D01*
X3027000Y35976250D01*
X2773000Y35976250D01*
X2614250Y36135000D01*
X1523691Y36135000D01*
X1377000Y36074239D01*
X1377000Y37611000D01*
X1880636Y38114635D01*
X2000000Y38114635D01*
X2166607Y38147775D01*
X2307850Y38242150D01*
X2389549Y38364423D01*
X2461673Y38190301D01*
X2640302Y38011673D01*
X2873691Y37915000D01*
X2966250Y37915000D01*
X3125000Y38073750D01*
X3125000Y38873000D01*
X3375000Y38873000D01*
X3375000Y38073750D01*
X3533750Y37915000D01*
X3626309Y37915000D01*
X3859698Y38011673D01*
X4038327Y38190301D01*
X4135000Y38423690D01*
X4135000Y38714250D01*
X3976250Y38873000D01*
X3375000Y38873000D01*
X3125000Y38873000D01*
X3103000Y38873000D01*
X3103000Y39127000D01*
X3125000Y39127000D01*
X3125000Y39926250D01*
X3375000Y39926250D01*
X3375000Y39127000D01*
X3976250Y39127000D01*
X4135000Y39285750D01*
X4135000Y39364501D01*
X6173000Y39364501D01*
X6173000Y39035499D01*
X6298903Y38731542D01*
X6531542Y38498903D01*
X6835499Y38373000D01*
X7164501Y38373000D01*
X7245456Y38406532D01*
X7333393Y38347775D01*
X7500000Y38314635D01*
X8000000Y38314635D01*
X8166607Y38347775D01*
X8307850Y38442150D01*
X8402225Y38583393D01*
X8435365Y38750000D01*
X8435365Y39650000D01*
X8564635Y39650000D01*
X8564635Y38750000D01*
X8597775Y38583393D01*
X8692150Y38442150D01*
X8833393Y38347775D01*
X9000000Y38314635D01*
X9500000Y38314635D01*
X9666607Y38347775D01*
X9754544Y38406532D01*
X9835499Y38373000D01*
X10164501Y38373000D01*
X10468458Y38498903D01*
X10701097Y38731542D01*
X10827000Y39035499D01*
X10827000Y39364501D01*
X10701097Y39668458D01*
X10468458Y39901097D01*
X10164501Y40027000D01*
X9835499Y40027000D01*
X9754544Y39993468D01*
X9666607Y40052225D01*
X9500000Y40085365D01*
X9000000Y40085365D01*
X8833393Y40052225D01*
X8692150Y39957850D01*
X8597775Y39816607D01*
X8564635Y39650000D01*
X8435365Y39650000D01*
X8402225Y39816607D01*
X8307850Y39957850D01*
X8166607Y40052225D01*
X8000000Y40085365D01*
X7500000Y40085365D01*
X7333393Y40052225D01*
X7245456Y39993468D01*
X7164501Y40027000D01*
X6835499Y40027000D01*
X6531542Y39901097D01*
X6298903Y39668458D01*
X6173000Y39364501D01*
X4135000Y39364501D01*
X4135000Y39576310D01*
X4038327Y39809699D01*
X3859698Y39988327D01*
X3626309Y40085000D01*
X3533750Y40085000D01*
X3375000Y39926250D01*
X3125000Y39926250D01*
X2966250Y40085000D01*
X2873691Y40085000D01*
X2640302Y39988327D01*
X2461673Y39809699D01*
X2389549Y39635577D01*
X2307850Y39757850D01*
X2166607Y39852225D01*
X2000000Y39885365D01*
X1500000Y39885365D01*
X1333393Y39852225D01*
X1192150Y39757850D01*
X1097775Y39616607D01*
X1064635Y39450000D01*
X1064635Y38930636D01*
X527000Y38393000D01*
X527000Y43000000D01*
X2453000Y43000000D01*
X2570758Y42407989D01*
X2906106Y41906106D01*
X3407989Y41570758D01*
X4000000Y41453000D01*
X4592011Y41570758D01*
X5093894Y41906106D01*
X5429242Y42407989D01*
X5547000Y43000000D01*
X5429242Y43592011D01*
X5093894Y44093894D01*
X4592011Y44429242D01*
X4487654Y44450000D01*
X11397983Y44450000D01*
X11497093Y43951740D01*
X11779335Y43529335D01*
X12201740Y43247093D01*
X12539040Y43180000D01*
X12201740Y43112907D01*
X11779335Y42830665D01*
X11497093Y42408260D01*
X11397983Y41910000D01*
X11497093Y41411740D01*
X11779335Y40989335D01*
X12201740Y40707093D01*
X12574231Y40633000D01*
X12825769Y40633000D01*
X13198260Y40707093D01*
X13620665Y40989335D01*
X13755000Y41190382D01*
X13755000Y40933691D01*
X13851673Y40700302D01*
X14030301Y40521673D01*
X14263690Y40425000D01*
X14954250Y40425000D01*
X15113000Y40583750D01*
X15113000Y41783000D01*
X15367000Y41783000D01*
X15367000Y40583750D01*
X15525750Y40425000D01*
X16216310Y40425000D01*
X16449699Y40521673D01*
X16628327Y40700302D01*
X16725000Y40933691D01*
X16725000Y41624250D01*
X16566250Y41783000D01*
X15367000Y41783000D01*
X15113000Y41783000D01*
X15093000Y41783000D01*
X15093000Y42037000D01*
X15113000Y42037000D01*
X15113000Y42057000D01*
X15367000Y42057000D01*
X15367000Y42037000D01*
X16566250Y42037000D01*
X16725000Y42195750D01*
X16725000Y42886309D01*
X16628327Y43119698D01*
X16449699Y43298327D01*
X16216310Y43395000D01*
X15959618Y43395000D01*
X16160665Y43529335D01*
X16442907Y43951740D01*
X16542017Y44450000D01*
X16442907Y44948260D01*
X16160665Y45370665D01*
X15738260Y45652907D01*
X15365769Y45727000D01*
X15114231Y45727000D01*
X14741740Y45652907D01*
X14319335Y45370665D01*
X14037093Y44948260D01*
X13970000Y44610960D01*
X13902907Y44948260D01*
X13620665Y45370665D01*
X13198260Y45652907D01*
X12825769Y45727000D01*
X12574231Y45727000D01*
X12201740Y45652907D01*
X11779335Y45370665D01*
X11497093Y44948260D01*
X11397983Y44450000D01*
X4487654Y44450000D01*
X4000000Y44547000D01*
X3407989Y44429242D01*
X2906106Y44093894D01*
X2570758Y43592011D01*
X2453000Y43000000D01*
X527000Y43000000D01*
X527000Y46973000D01*
X11448098Y46973000D01*
X11500000Y46962676D01*
X11705625Y47003577D01*
X11879945Y47120055D01*
X11996423Y47294375D01*
X12027000Y47448097D01*
X12037324Y47500000D01*
X12027000Y47551903D01*
X12027000Y54473000D01*
X18973001Y54473000D01*
X18973000Y53127000D01*
G04 #@! TD*
M02*
