M48
;DRILL file {KiCad 5.0.2-bee76a0~70~ubuntu18.04.1} date Mon 02 Dec 2019 10:21:49 PM CET
;FORMAT={-:-/ absolute / metric / decimal}
FMAT,2
METRIC,TZ
T1C0.400
T2C0.760
T3C0.762
T4C1.000
T5C1.300
T6C1.500
%
G90
G05
T1
X2.9Y36.
X4.Y39.
X5.Y23.
X5.Y21.
X7.Y39.2
X7.Y31.
X7.Y29.
X10.Y39.2
X20.5Y37.4
X20.75Y21.55
X21.35Y35.
X22.925Y18.
X22.925Y13.
X25.Y18.1
X25.75Y10.85
X27.075Y14.875
X27.1Y19.875
X31.1Y19.71
X32.7Y15.31
X34.1Y20.41
X35.1Y14.225
X37.1Y20.21
X37.1Y16.91
T2
X50.125Y22.3
X50.125Y14.68
X50.125Y45.3
X50.125Y37.68
X50.125Y33.8
X50.125Y26.18
X50.125Y10.8
X50.125Y3.18
T3
X23.14Y24.62
X24.43Y45.38
X28.33Y45.38
X33.3Y24.62
X44.73Y24.62
T4
X12.7Y44.45
X12.7Y41.91
X15.24Y44.45
X15.24Y41.91
T5
X60.285Y45.3
X67.905Y45.3
X60.285Y33.8
X67.905Y33.8
X60.285Y10.8
X67.905Y10.8
X60.285Y22.3
X67.905Y22.3
T6
X76.Y41.5
X76.Y30.
X76.Y7.
X76.Y18.5
X34.Y50.
X40.Y50.
T0
M30
