%FSLAX45Y45*%
G04 Gerber Fmt 4.5, Leading zero omitted, Abs format (unit mm)*
G04 Created by KiCad (PCBNEW 5.0.2-bee76a0~70~ubuntu18.04.1) date Mon 02 Dec 2019 10:21:49 PM CET*
%MOMM*%
%LPD*%
G01*
G04 APERTURE LIST*
%ADD10C,0.200000*%
%ADD11C,0.300000*%
G04 APERTURE END LIST*
D10*
X3250000Y1000000D02*
G75*
G03X3250000Y1000000I-100000J0D01*
G01*
X500000Y4300000D02*
G75*
G03X500000Y4300000I-100000J0D01*
G01*
X7350000Y2750000D02*
G75*
G03X7350000Y2750000I-100000J0D01*
G01*
X8150000Y5300000D02*
X8150000Y200000D01*
X8150000Y5300000D02*
X1950000Y5300000D01*
X1950000Y200000D02*
X8150000Y200000D01*
X1950000Y0D02*
X1950000Y200000D01*
X1950000Y5300000D02*
X1950000Y5500000D01*
X1950000Y0D02*
X1150000Y0D01*
X1150000Y5500000D02*
X1950000Y5500000D01*
X1150000Y5500000D02*
X1150000Y4750000D01*
X1150000Y750000D02*
X1150000Y0D01*
X1150000Y750000D02*
X0Y750000D01*
X0Y4750000D02*
X1150000Y4750000D01*
X0Y750000D02*
X0Y4750000D01*
D10*
D11*
X276428Y-475714D02*
X276428Y-175714D01*
X347857Y-175714D01*
X390714Y-190000D01*
X419286Y-218571D01*
X433571Y-247143D01*
X447857Y-304286D01*
X447857Y-347143D01*
X433571Y-404286D01*
X419286Y-432857D01*
X390714Y-461429D01*
X347857Y-475714D01*
X276428Y-475714D01*
X576428Y-475714D02*
X576428Y-275714D01*
X576428Y-332857D02*
X590714Y-304286D01*
X605000Y-290000D01*
X633571Y-275714D01*
X662143Y-275714D01*
X762143Y-475714D02*
X762143Y-275714D01*
X762143Y-175714D02*
X747857Y-190000D01*
X762143Y-204286D01*
X776428Y-190000D01*
X762143Y-175714D01*
X762143Y-204286D01*
X947857Y-475714D02*
X919286Y-461429D01*
X905000Y-432857D01*
X905000Y-175714D01*
X1105000Y-475714D02*
X1076428Y-461429D01*
X1062143Y-432857D01*
X1062143Y-175714D01*
X1447857Y-475714D02*
X1447857Y-175714D01*
X1547857Y-390000D01*
X1647857Y-175714D01*
X1647857Y-475714D01*
X1919286Y-475714D02*
X1919286Y-318572D01*
X1905000Y-290000D01*
X1876428Y-275714D01*
X1819286Y-275714D01*
X1790714Y-290000D01*
X1919286Y-461429D02*
X1890714Y-475714D01*
X1819286Y-475714D01*
X1790714Y-461429D01*
X1776428Y-432857D01*
X1776428Y-404286D01*
X1790714Y-375714D01*
X1819286Y-361429D01*
X1890714Y-361429D01*
X1919286Y-347143D01*
X2062143Y-275714D02*
X2062143Y-575714D01*
X2062143Y-290000D02*
X2090714Y-275714D01*
X2147857Y-275714D01*
X2176428Y-290000D01*
X2190714Y-304286D01*
X2205000Y-332857D01*
X2205000Y-418571D01*
X2190714Y-447143D01*
X2176428Y-461429D01*
X2147857Y-475714D01*
X2090714Y-475714D01*
X2062143Y-461429D01*
X2333571Y-447143D02*
X2347857Y-461429D01*
X2333571Y-475714D01*
X2319286Y-461429D01*
X2333571Y-447143D01*
X2333571Y-475714D01*
X2333571Y-290000D02*
X2347857Y-304286D01*
X2333571Y-318572D01*
X2319286Y-304286D01*
X2333571Y-290000D01*
X2333571Y-318572D01*
M02*
